<?xml version="1.0" standalone="no"?>
<!DOCTYPE svg PUBLIC "-//W3C//DTD SVG 1.1//EN" "http://www.w3.org/Graphics/SVG/1.1/DTD/svg11.dtd" >
<svg xmlns="http://www.w3.org/2000/svg">
<metadata></metadata>
<defs>
<font id="decima_monolight" horiz-adv-x="1228" >
<font-face units-per-em="2048" ascent="1536" descent="-512" />
<missing-glyph horiz-adv-x="500" />
<glyph horiz-adv-x="0" />
<glyph horiz-adv-x="682" />
<glyph unicode=" " />
<glyph unicode="!" d="M543 0v143h143v-143h-143zM559 307v1127h107v-1127h-107z" />
<glyph unicode="&#x22;" d="M399 989v465h140l-68 -465h-72zM688 989v465h139l-69 -465h-70z" />
<glyph unicode="#" d="M143 422v92h215l58 418h-203v92h213l61 410h97l-58 -410h265l59 410h94l-59 -410h200v-92h-213l-57 -418h201v-92h-213l-60 -422h-94l58 422h-267l-59 -422h-92l55 422h-201zM455 514h264l57 418h-264z" />
<glyph unicode="$" d="M242 358v50h108v-50q0 -112 70.5 -188t179.5 -76h27q108 0 179 73t71 175q0 86 -34 150.5t-88 104.5t-119.5 73.5t-130.5 67.5t-119 75t-88 109t-34 157q0 135 84 234.5t217 122.5v102h94v-102q137 -22 222 -118.5t88 -240.5h-105q-5 112 -73 185t-175 73 q-106 0 -175.5 -69.5t-69.5 -175.5q0 -70 34 -123.5t88 -88t119.5 -66t131 -68.5t119.5 -84t88 -124t34 -178q0 -142 -92.5 -244t-233.5 -116v-102h-94v102q-141 15 -232 117t-91 243z" />
<glyph unicode="%" d="M102 469v96l1024 400v-97zM178 1042v207q0 87 62 145t149 58h17q87 0 148.5 -57.5t61.5 -145.5v-207q0 -87 -62.5 -149t-147.5 -62h-17q-85 0 -148 62t-63 149zM268 1051q0 -56 36.5 -93.5t94.5 -37.5q52 0 88.5 37.5t36.5 91.5v184q0 56 -37 93.5t-92 37.5t-91 -37.5 t-36 -93.5v-182zM621 193v206q0 88 61.5 145.5t148.5 57.5h17q87 0 149 -58t62 -145v-206q0 -87 -63 -149t-148 -62h-17q-85 0 -147.5 62t-62.5 149zM711 201q0 -56 36.5 -93.5t94.5 -37.5q52 0 88.5 37.5t36.5 91.5v184q0 56 -37 93.5t-92 37.5t-91 -37.5t-36 -93.5v-182z " />
<glyph unicode="&#x26;" d="M246 344v311q0 95 57.5 173.5t142.5 115.5l-137 311v179h594v-101h-485v-43l438 -1038q21 67 21 110v279h106v-299q0 -129 -68 -221q44 -95 54 -121h-117l-18 49q-104 -69 -213 -69h-13q-149 0 -255.5 106.5t-106.5 257.5zM354 342q0 -111 75 -187.5t185 -76.5 q96 0 174 63l-303 709q-60 -29 -95.5 -83t-35.5 -114v-311z" />
<glyph unicode="'" d="M545 989v465h139l-68 -465h-71z" />
<glyph unicode="(" d="M440 -35v1139q0 141 103.5 246t244.5 116v-102q-105 -4 -172 -79t-67 -183v-1141q0 -107 67 -182.5t172 -79.5v-98q-147 3 -247.5 108.5t-100.5 255.5z" />
<glyph unicode=")" d="M440 -301q105 4 173.5 79.5t68.5 182.5v1141q0 108 -68.5 183t-173.5 79v102q147 -3 247.5 -107.5t100.5 -254.5v-1139q0 -141 -103.5 -247t-244.5 -117v98z" />
<glyph unicode="*" d="M389 1260l21 67l168 -47v174h71v-174l170 55l19 -63l-170 -66l102 -139l-53 -41l-105 141l-94 -141l-59 41l94 143z" />
<glyph unicode="+" d="M166 528v103h395v395h105v-395h395v-103h-395v-397h-105v397h-395z" />
<glyph unicode="," d="M539 -246l73 246h-65v143h141v-153l-76 -236h-73z" />
<glyph unicode="-" d="M385 528v103h457v-103h-457z" />
<glyph unicode="." d="M543 0v143h143v-143h-143z" />
<glyph unicode="/" d="M217 -371l692 1805h101l-691 -1805h-102z" />
<glyph unicode="0" d="M262 344v748q0 150 100.5 256t241.5 106h17q143 0 243.5 -105.5t100.5 -256.5v-750q0 -151 -100.5 -256.5t-243.5 -105.5h-17q-141 0 -241.5 106.5t-100.5 257.5zM367 342q0 -111 70.5 -187.5t176.5 -76.5q103 0 174.5 76t71.5 186v750q0 111 -72.5 188.5t-177.5 77.5 q-103 0 -173 -77.5t-70 -188.5v-748z" />
<glyph unicode="1" d="M281 0v98h270v1233l-238 -35v103l226 35h118v-1336h291v-98h-667z" />
<glyph unicode="2" d="M242 0v123q0 99 35 186.5t91.5 153.5t124 126.5t135.5 117.5t124.5 115t91.5 131t35 153q0 105 -75 177.5t-181 72.5q-107 0 -180 -76t-78 -188h-107q3 159 110.5 260.5t258.5 101.5q152 0 256 -103t104 -257q0 -89 -35 -169t-91.5 -141.5t-124.5 -120t-135.5 -116 t-124 -117t-91.5 -135.5t-35 -160v-37h637v-98h-745z" />
<glyph unicode="3" d="M246 342v8h106v-10q0 -110 76 -186t186 -76t186.5 77t76.5 187v291q0 84 -59.5 146.5t-143.5 62.5h-125v112l280 379h-503v101h622v-113l-286 -381q122 0 221.5 -89.5t99.5 -215.5v-291q0 -151 -105.5 -257.5t-256.5 -106.5h-13q-151 0 -256.5 105.5t-105.5 256.5z" />
<glyph unicode="4" d="M223 322v127l463 985h115l-469 -1008h442v389h109v-389h123v-104h-123v-322h-109v322h-551z" />
<glyph unicode="5" d="M246 342v8h108v-10q0 -110 75 -186t185 -76t186.5 77t76.5 187v246q0 111 -76.5 188.5t-186.5 77.5h-12q-68 0 -121 -32t-78 -74l-108 30l59 658h580v-105h-481l-37 -457q31 31 85 54.5t107 23.5h13q151 0 256.5 -105.5t105.5 -256.5v-246q0 -151 -105.5 -257.5 t-256.5 -106.5h-13q-150 0 -256 106t-106 256z" />
<glyph unicode="6" d="M244 342v748q0 151 102.5 257.5t251.5 106.5h12q140 0 243 -103.5t114 -246.5h-107q-5 107 -77.5 178.5t-178.5 71.5q-109 0 -180.5 -77.5t-71.5 -189.5v-294q29 54 100.5 105.5t153.5 51.5h15q150 0 256 -106t106 -256v-244q0 -151 -106.5 -257.5t-255.5 -106.5h-15 q-150 0 -256 106t-106 256zM352 340q0 -110 75 -186t185 -76q112 0 187 76.5t75 187.5v244q0 111 -75 188.5t-187 77.5h-12q-92 0 -170 -79.5t-78 -186.5v-246z" />
<glyph unicode="7" d="M279 1333v101h671v-123q0 -64 -33.5 -181t-82 -254.5t-97 -284t-83 -306t-36.5 -285.5h-110q2 139 37 304.5t84 311.5t98 281t83 251.5t34 184.5h-565z" />
<glyph unicode="8" d="M244 344v84q0 94 49 177t135 138q-76 55 -120 132.5t-44 162.5v72q0 143 99.5 243.5t240.5 100.5h19q141 0 240.5 -100.5t99.5 -243.5v-74q0 -85 -43.5 -161.5t-118.5 -131.5q85 -54 133.5 -137t48.5 -178v-86q0 -151 -104.5 -256.5t-253.5 -105.5h-19 q-149 0 -255.5 106.5t-106.5 257.5zM354 342q0 -111 75.5 -187.5t188.5 -76.5q107 0 181.5 76t74.5 186v86q0 111 -75 188.5t-187 77.5q-108 0 -183 -77.5t-75 -188.5v-84zM369 1036q0 -99 66.5 -172t170.5 -73h19q95 0 163 70t68 173v68q0 107 -70.5 180.5t-175.5 73.5 q-102 0 -171.5 -74t-69.5 -180v-66z" />
<glyph unicode="9" d="M244 844v246q0 151 106.5 257.5t255.5 106.5h15q150 0 256 -106t106 -256v-748q0 -151 -102.5 -257.5t-251.5 -106.5h-13q-140 0 -242.5 103t-113.5 245h107q5 -105 77.5 -177.5t178.5 -72.5q109 0 180 78t71 190v293q-33 -56 -103 -107t-150 -51h-15q-150 0 -256 106.5 t-106 256.5zM352 846q0 -111 75 -188.5t185 -77.5h15q92 0 169.5 79.5t77.5 186.5v248q0 111 -75 185.5t-187 74.5q-110 0 -185 -76t-75 -186v-246z" />
<glyph unicode=":" d="M543 0v143h143v-143h-143zM543 881v143h143v-143h-143z" />
<glyph unicode=";" d="M539 -246l73 246h-65v143h141v-153l-76 -236h-73zM547 881v143h143v-143h-143z" />
<glyph unicode="&#x3c;" d="M197 543v119l835 376v-112l-729 -320v-8l729 -317v-115z" />
<glyph unicode="=" d="M166 367v102h897v-102h-897zM166 692v105h897v-105h-897z" />
<glyph unicode="&#x3e;" d="M197 166v115l729 317v8l-729 320v112l835 -376v-119z" />
<glyph unicode="?" d="M250 1092q3 160 107.5 261t256.5 101q156 0 260.5 -99t104.5 -261q0 -77 -18.5 -139.5t-48.5 -106.5t-66 -84.5t-72.5 -83.5t-67 -92t-49.5 -121t-20 -160h-105q1 99 20 179t49 133.5t66 98.5t71.5 84.5t65 80.5t48 97t18.5 124q0 105 -74.5 176.5t-181.5 71.5 q-108 0 -180.5 -74.5t-77.5 -185.5h-106zM514 0v143h143v-143h-143z" />
<glyph unicode="@" d="M199 37v1016q0 166 118.5 283.5t286.5 117.5h23q166 0 283.5 -117.5t117.5 -283.5v-1053h-100v86q-43 -55 -85 -80.5t-102 -25.5q-108 0 -186 79.5t-78 192.5v508q0 107 78.5 184.5t185.5 77.5q65 0 112.5 -31t74.5 -80v142q0 129 -88 218t-213 89h-23q-126 0 -214.5 -89 t-88.5 -218v-1016q0 -132 87.5 -221.5t213.5 -89.5v-95q-167 2 -285 120.5t-118 285.5zM578 264q0 -87 47 -141.5t116 -54.5q85 0 136 53.5t51 142.5v481q0 86 -50 134.5t-135 48.5q-71 0 -118 -49t-47 -134v-481z" />
<glyph unicode="A" d="M248 0v561l256 873h221l256 -873v-561h-107v489h-520v-489h-106zM365 588h499l-213 747h-73z" />
<glyph unicode="B" d="M279 0v1434h348q132 0 220.5 -87.5t88.5 -211.5v-119q0 -73 -39.5 -141.5t-103.5 -114.5q157 -119 157 -279v-155q0 -139 -99 -232.5t-233 -93.5h-339zM385 98h233q98 0 163 67.5t65 160.5v155q0 34 -13.5 71.5t-39.5 73.5t-72 59.5t-103 23.5h-233v-611zM385 803h248 q85 0 145 60t60 145v118q0 85 -60 145t-145 60h-248v-528z" />
<glyph unicode="C" d="M248 340v756q0 149 105 253.5t253 104.5h15q149 0 253.5 -104.5t104.5 -253.5h-107q-2 107 -76.5 181.5t-181.5 74.5q-110 0 -185 -74.5t-75 -183.5v-756q0 -109 75 -184.5t185 -75.5q109 0 183.5 74.5t74.5 183.5v10h107v-8q0 -149 -104.5 -253.5t-253.5 -104.5h-15 q-148 0 -253 105.5t-105 254.5z" />
<glyph unicode="D" d="M258 0v1434h350q149 0 255 -106t106 -255v-713q0 -149 -106 -254.5t-255 -105.5h-350zM365 98h237q110 0 185 74.5t75 183.5v715q0 110 -75 185t-185 75h-237v-1233z" />
<glyph unicode="E" d="M283 0v1434h643v-99h-537v-528h488v-98h-488v-611h555v-98h-661z" />
<glyph unicode="F" d="M293 0v1434h643v-99h-537v-528h488v-98h-488v-709h-106z" />
<glyph unicode="G" d="M236 340v756q0 149 104.5 253.5t253.5 104.5h39q149 0 253.5 -104.5t104.5 -253.5h-106q-2 107 -76.5 181.5t-181.5 74.5h-27q-109 0 -183.5 -74.5t-74.5 -183.5v-756q0 -109 74.5 -184.5t183.5 -75.5h27q109 0 183.5 74.5t74.5 183.5v268h-213v98h319v-364 q0 -149 -104.5 -253.5t-253.5 -104.5h-39q-149 0 -253.5 105.5t-104.5 254.5z" />
<glyph unicode="H" d="M248 0v1434h106v-627h520v627h107v-1434h-107v709h-520v-709h-106z" />
<glyph unicode="I" d="M244 0v98h319v1237h-319v99h741v-99h-315v-1237h315v-98h-741z" />
<glyph unicode="J" d="M248 338v129h106v-131q0 -109 74.5 -183.5t183.5 -74.5q110 0 185 75.5t75 184.5v997h-555v99h662v-1094q0 -149 -105 -254.5t-253 -105.5h-15q-149 0 -253.5 104.5t-104.5 253.5z" />
<glyph unicode="K" d="M236 0v1434h106v-1434h-106zM348 760l500 674h119l-502 -676l528 -758h-116z" />
<glyph unicode="L" d="M285 0v1434h106v-1336h551v-98h-657z" />
<glyph unicode="M" d="M203 0v1434h141l264 -666h10l265 666h141v-1434h-106v1163l8 117h-8l-250 -635h-109l-250 635h-8l8 -117v-1163h-106z" />
<glyph unicode="N" d="M248 0v1434h133l467 -1160l31 -92l6 2l-11 99v1151h107v-1434h-133l-463 1147l-35 104l-6 -2l10 -112v-1137h-106z" />
<glyph unicode="O" d="M236 340v756q0 149 104.5 253.5t253.5 104.5h39q149 0 253.5 -104.5t104.5 -253.5v-758q0 -149 -104.5 -253.5t-253.5 -104.5h-39q-149 0 -253.5 105.5t-104.5 254.5zM342 338q0 -109 74.5 -184.5t183.5 -75.5h27q109 0 183.5 74.5t74.5 183.5v758q0 109 -74.5 183.5 t-183.5 74.5h-27q-109 0 -183.5 -74.5t-74.5 -183.5v-756z" />
<glyph unicode="P" d="M283 0v1434h364q123 0 211 -87.5t88 -211.5v-312q0 -125 -88 -213t-211 -88h-258v-522h-106zM389 621h252q82 0 140.5 57.5t58.5 138.5v316q0 82 -58.5 140t-140.5 58h-252v-710z" />
<glyph unicode="Q" d="M217 340v756q0 149 104.5 253.5t253.5 104.5h39q149 0 254 -104.5t105 -253.5v-758q0 -113 -68 -213l107 -109l-68 -63l-104 106q-101 -79 -226 -79h-39q-149 0 -253.5 105.5t-104.5 254.5zM324 338q0 -73 28 -119q21 59 86.5 100t132.5 41q108 0 189 -84l71 -73 q35 60 35 133v758q0 109 -74.5 183.5t-183.5 74.5h-26q-109 0 -183.5 -74.5t-74.5 -183.5v-756zM408 143q78 -65 174 -65h26q89 0 160 53l-82 84q-51 51 -119 51q-52 0 -99 -34t-60 -89z" />
<glyph unicode="R" d="M266 0v1434h365q123 0 211 -87.5t88 -211.5v-287q0 -94 -57 -174t-146 -111l234 -563h-115l-228 547h-245v-547h-107zM373 645h252q82 0 140 57.5t58 139.5v291q0 82 -58 140t-140 58h-252v-686z" />
<glyph unicode="S" d="M236 338v49h106v-49q0 -109 74.5 -184.5t183.5 -75.5h27q108 0 183 72.5t75 171.5q0 67 -21.5 122.5t-58 95t-83.5 73t-99.5 61.5t-104.5 57t-99 63.5t-83.5 75.5t-58 99t-21.5 129q0 151 104.5 253.5t253.5 102.5q151 0 255.5 -100t107.5 -258h-105q-5 110 -77.5 183 t-180.5 73q-105 0 -178.5 -70.5t-73.5 -173.5q0 -55 21.5 -100.5t58 -79t83.5 -63.5t99 -58.5t104.5 -58.5t99.5 -69t83.5 -85.5t58 -112t21.5 -143.5q0 -149 -104 -253.5t-252 -104.5h-41q-149 0 -253.5 104.5t-104.5 253.5z" />
<glyph unicode="T" d="M248 1333v101h733v-101h-311v-1333h-109v1333h-313z" />
<glyph unicode="U" d="M236 340v1094h106v-1096q0 -109 75 -184.5t185 -75.5h25q109 0 183.5 74.5t74.5 183.5v1098h106v-1096q0 -149 -104.5 -253.5t-253.5 -104.5h-39q-148 0 -253 105.5t-105 254.5z" />
<glyph unicode="V" d="M248 868v566h106v-570l221 -766h78l221 766v570h107v-566l-256 -868h-221z" />
<glyph unicode="W" d="M195 864v570h106v-564l70 -772h28l140 680h149l139 -680h29l70 772v564h106v-570l-86 -864h-196l-127 645h-19l-127 -645h-196z" />
<glyph unicode="X" d="M188 0l361 745l-328 689h121l270 -580l273 580h121l-330 -689l362 -745h-125l-301 639l-299 -639h-125z" />
<glyph unicode="Y" d="M199 1434h118l297 -609l299 609h117l-360 -752v-682h-109v682z" />
<glyph unicode="Z" d="M246 0v111l620 1224h-590v99h707v-111l-621 -1225h619v-98h-735z" />
<glyph unicode="[" d="M440 -369v1803h348v-105h-239v-1599h239v-99h-348z" />
<glyph unicode="\" d="M217 1434h100l693 -1805h-103z" />
<glyph unicode="]" d="M440 -270h242v1599h-242v105h348v-1803h-348v99z" />
<glyph unicode="^" d="M293 717l272 717h97l272 -717h-82l-234 600h-10l-233 -600h-82z" />
<glyph unicode="_" horiz-adv-x="1224" d="M0 -188h1225v-76h-1225v76z" />
<glyph unicode="`" d="M432 1413h143l220 -250h-111z" />
<glyph unicode="a" d="M258 285q0 129 93 219.5t231 99.5l288 21v90q0 101 -62 171t-167 70q-86 0 -144 -48.5t-79 -127.5h-101q19 117 105.5 190.5t218.5 73.5q157 0 243.5 -90t86.5 -227v-727h-101v96q-129 -116 -286 -116q-135 0 -230.5 87t-95.5 218zM358 287q0 -93 70 -157t168 -64 q116 0 195 64.5t79 152.5v252l-284 -17q-97 -6 -162.5 -72t-65.5 -159z" />
<glyph unicode="b" d="M254 0v1434h100v-510q46 55 117 87.5t145 32.5q158 0 257.5 -91.5t99.5 -225.5v-430q0 -134 -99.5 -225.5t-257.5 -91.5q-159 0 -262 129v-109h-100zM354 309q0 -97 77.5 -169t184.5 -72q106 0 181 71.5t75 169.5v406q0 98 -75 169.5t-183 71.5t-184 -71.5t-76 -169.5 v-406z" />
<glyph unicode="c" d="M256 299v428q0 134 99 225.5t259 91.5q147 0 244 -90.5t105 -222.5h-101q-5 98 -74.5 161.5t-173.5 63.5q-108 0 -184 -71.5t-76 -169.5v-406q0 -98 75.5 -169.5t184.5 -71.5q104 0 179 66.5t79 164.5h99q-8 -138 -106 -228.5t-251 -90.5q-161 0 -259.5 92t-98.5 227z " />
<glyph unicode="d" d="M254 297v430q0 134 99 225.5t257 91.5q74 0 145 -32.5t117 -87.5v510h101v-1434h-101v109q-103 -129 -262 -129q-158 0 -257 91.5t-99 225.5zM354 309q0 -98 75 -169.5t181 -71.5q107 0 184.5 72t77.5 169v406q0 98 -76 169.5t-184 71.5t-183 -71.5t-75 -169.5v-406z" />
<glyph unicode="e" d="M256 297v430q0 134 99 225.5t259 91.5q158 0 257.5 -91.5t99.5 -225.5v-244h-617v-174q0 -98 75 -169.5t183 -71.5q106 0 181 66.5t79 164.5h99q-8 -140 -106 -229.5t-251 -89.5q-160 0 -259 91.5t-99 225.5zM354 571h518v144q0 98 -76 169.5t-184 71.5t-183 -71.5 t-75 -169.5v-144z" />
<glyph unicode="f" d="M276 936v88h209v145q0 117 86 202t207 85q94 0 174 -37l-55 -73q-40 22 -119 22t-135.5 -57t-56.5 -133v-154h352v-88h-352v-936h-101v936h-209z" />
<glyph unicode="g" d="M129 -109q0 97 69.5 167.5t166.5 70.5h81v209q-24 8 -52.5 27.5t-59.5 51.5t-51.5 82t-20.5 107v142q0 122 95.5 209t228.5 87q106 0 178 -53l84 105q21 27 57 38t101 11v-94q-52 0 -74.5 -7t-40.5 -32l-55 -78q71 -88 71 -186v-142q0 -122 -95.5 -210.5t-225.5 -88.5 l-29 2v-180h305q98 0 168 -70.5t70 -167.5v-22q0 -97 -70.5 -167.5t-167.5 -70.5h-497q-97 0 -166.5 70.5t-69.5 167.5v22zM238 -113v-14q0 -63 44 -106t107 -43h451q64 0 109.5 43.5t45.5 105.5v14q0 63 -45 106.5t-110 43.5h-451q-63 0 -107 -43.5t-44 -106.5zM367 606 q0 -87 64 -148t155 -61q87 0 152 61.5t65 147.5v139q0 89 -64.5 150t-152.5 61q-92 0 -155.5 -60.5t-63.5 -150.5v-139z" />
<glyph unicode="h" d="M256 0v1434h100v-510q48 53 117 86.5t141 33.5q158 0 258.5 -92t100.5 -225v-727h-101v715q0 98 -76 169.5t-184 71.5q-107 0 -181.5 -71t-74.5 -166v-719h-100z" />
<glyph unicode="i" d="M225 0v88h328v848h-328v88h430v-936h291v-88h-721zM537 1270v143h135v-143h-135z" />
<glyph unicode="j" d="M283 936v88h587v-1116q0 -115 -89 -206t-222 -91q-136 0 -217 59l51 76q24 -17 69 -32t95 -15q89 0 150 57.5t61 145.5v1034h-485zM754 1270v143h131v-143h-131z" />
<glyph unicode="k" d="M311 0v1434h99v-1434h-99zM410 545l424 479h131l-422 -479l454 -545h-131z" />
<glyph unicode="l" d="M262 0v88h291v1258h-227v88h329v-1346h312v-88h-705z" />
<glyph unicode="m" d="M203 0v1024h92v-68q23 39 66 63.5t96 24.5q62 0 112 -35t68 -69q25 40 74 72t114 32q85 0 143 -57t58 -139v-848h-98v834q0 51 -35 86.5t-86 35.5q-50 0 -93.5 -47t-43.5 -116v-793h-103v829q0 55 -38 91t-97 36q-47 0 -89 -48t-42 -111v-797h-98z" />
<glyph unicode="n" d="M256 0v1024h98v-106q43 53 125 89.5t164 36.5q134 0 231 -93.5t97 -223.5v-727h-99v711q0 100 -72 172.5t-173 72.5q-107 0 -190 -69.5t-83 -167.5v-719h-98z" />
<glyph unicode="o" d="M256 297v430q0 134 99 225.5t259 91.5q158 0 257.5 -91.5t99.5 -225.5v-430q0 -134 -99.5 -225.5t-257.5 -91.5q-160 0 -259 91.5t-99 225.5zM354 309q0 -98 75.5 -169.5t184.5 -71.5q106 0 182 71.5t76 169.5v406q0 98 -76 169.5t-184 71.5t-183 -71.5t-75 -169.5v-406z " />
<glyph unicode="p" d="M256 -369v1393h98v-102q50 54 119 88t141 34q158 0 257.5 -91.5t99.5 -225.5v-430q0 -134 -99.5 -225.5t-257.5 -91.5q-72 0 -142 34t-118 86v-469h-98zM354 309q0 -98 75 -169.5t183 -71.5t184 71.5t76 169.5v406q0 98 -76 169.5t-182 71.5q-105 0 -182.5 -72 t-77.5 -169v-406z" />
<glyph unicode="q" d="M256 297v430q0 134 99 225.5t257 91.5q72 0 141 -34t119 -88v102h99v-1393h-99v469q-48 -52 -118 -86t-142 -34q-158 0 -257 91.5t-99 225.5zM354 309q0 -98 76 -169.5t184 -71.5t183 71.5t75 169.5v406q0 97 -77.5 169t-182.5 72q-106 0 -182 -71.5t-76 -169.5v-406z " />
<glyph unicode="r" d="M184 0v88h213v936h103v-119q30 51 102.5 93t149.5 42q72 0 128 -25t89 -66.5t51 -86t22 -90.5h-104q-3 80 -56 132t-139 52t-164.5 -73.5t-78.5 -147.5v-647h407v-88h-723z" />
<glyph unicode="s" d="M281 287h100q2 -91 70 -155t163 -64h13q92 0 155.5 55t63.5 139q0 42 -18 76.5t-48.5 58t-70.5 43t-83.5 37t-87.5 36t-84 42.5t-70.5 53.5t-48.5 73t-18 96.5q0 119 90.5 192.5t221.5 73.5q72 0 132 -26t97 -67t58.5 -87.5t25.5 -91.5h-104q-3 78 -66 131t-151 53 q-78 0 -140.5 -47.5t-62.5 -117.5q0 -45 23 -80.5t60 -57.5t84.5 -44t97.5 -40t97.5 -45.5t84.5 -60.5t60 -85.5t23 -119.5q0 -115 -96 -196.5t-223 -81.5h-21q-143 0 -235 92.5t-92 214.5z" />
<glyph unicode="t" d="M227 936v88h158v287h98v-287h496v-88h-496v-655q0 -76 61.5 -143.5t157.5 -67.5q84 0 143.5 60.5t61.5 125.5h92q-2 -103 -90.5 -189.5t-203.5 -86.5q-144 0 -232 90t-88 215v651h-158z" />
<glyph unicode="u" d="M256 297v727h98v-711q0 -100 72.5 -172.5t173.5 -72.5q107 0 189.5 69.5t82.5 167.5v719h99v-1024h-99v106q-44 -53 -125 -89.5t-163 -36.5q-134 0 -231 93.5t-97 223.5z" />
<glyph unicode="v" d="M266 643v381h101v-379l229 -559h37l227 559v379h103v-375l-258 -649h-181z" />
<glyph unicode="w" d="M188 641v383h99v-377l108 -561h29l117 573h147l119 -573h29l106 561v377h98v-383l-122 -641h-187l-108 555h-17l-106 -555h-187z" />
<glyph unicode="x" d="M244 0l309 524l-295 500h117l239 -416l238 416h119l-297 -500l309 -524h-117l-252 438l-252 -438h-118z" />
<glyph unicode="y" d="M188 1024h109l315 -866l316 866h110l-526 -1393h-102l145 383z" />
<glyph unicode="z" d="M287 0v98l544 838h-512v88h615v-96l-543 -840h551v-88h-655z" />
<glyph unicode="{" d="M383 496v98q49 3 82 41t33 90v367q0 141 103 246t243 116v-102q-105 -4 -172.5 -79t-67.5 -183v-349q0 -69 -40 -125t-85 -67v-8q45 -13 85 -69.5t40 -125.5v-375q0 -107 67.5 -182.5t172.5 -79.5v-98q-146 3 -246 108.5t-100 255.5v387q0 52 -32.5 91.5t-82.5 42.5z" />
<glyph unicode="|" d="M567 -369v1803h95v-1803h-95z" />
<glyph unicode="}" d="M383 -291q105 4 172.5 79.5t67.5 182.5v375q0 69 40 125.5t85 69.5v8q-45 11 -85 67t-40 125v349q0 108 -67.5 183t-172.5 79v102q140 -11 243 -116t103 -246v-367q0 -52 33 -90t82 -41v-98q-50 -3 -82.5 -42.5t-32.5 -91.5v-387q0 -150 -100 -255.5t-246 -108.5v98z" />
<glyph unicode="~" d="M156 512q14 82 83 141.5t167 59.5q50 0 111 -19t108 -42.5t103 -42.5t97 -19q55 0 94.5 32t57.5 74h94q-20 -80 -87.5 -140t-158.5 -60q-62 0 -143 30t-155.5 60t-120.5 30q-111 0 -158 -104h-92z" />
<glyph unicode="&#xa0;" />
<glyph unicode="&#xa1;" d="M543 881v143h143v-143h-143zM559 -408v1125h107v-1125h-107z" />
<glyph unicode="&#xa2;" d="M256 315v402q0 124 89 212t237 103v98h100v-102q119 -23 197 -109.5t84 -197.5h-99q-6 98 -76 161.5t-174 63.5q-107 0 -183.5 -72t-76.5 -169v-379q0 -97 76 -169.5t184 -72.5q104 0 178.5 67t79.5 164h99q-6 -121 -84 -207t-205 -108v-106h-100v102q-148 13 -237 102.5 t-89 216.5z" />
<glyph unicode="&#xa3;" d="M219 606v105h133v430q0 129 97 221t233 92q135 0 231.5 -92t96.5 -221v-70h-111v80q0 84 -63 144.5t-150 60.5q-92 0 -155.5 -60t-63.5 -145v-440h276v-105h-276v-504h541v-102h-719v102h63v504h-133z" />
<glyph unicode="&#xa4;" d="M176 240l98 102q-88 124 -88 260q0 133 90 266l-100 101l74 73l100 -100q125 88 264 88q140 0 265 -88l100 100l74 -73l-101 -101q90 -133 90 -266q0 -132 -88 -260l99 -102l-74 -74l-100 100q-131 -92 -265 -92q-133 0 -264 92l-100 -100zM287 604q0 -135 96 -231 q97 -97 231 -97q132 0 229 98t97 230q0 133 -97 230.5t-229 97.5t-229.5 -97.5t-97.5 -230.5z" />
<glyph unicode="&#xa5;" d="M209 1434h121l282 -629l287 629h121l-281 -609h260v-104h-309l-22 -49v-135h331v-103h-331v-434h-109v434h-332v103h332v135l-22 49h-310v104h262z" />
<glyph unicode="&#xa6;" d="M567 340h95v-709h-95v709zM567 727v707h95v-707h-95z" />
<glyph unicode="&#xa7;" d="M244 795q0 71 34 133.5t91 105.5q-60 83 -60 166q0 108 80.5 181t222.5 73h17q146 0 220 -75t79 -203h-107q-7 176 -198 176h-11q-97 0 -143.5 -47t-46.5 -107q0 -49 31 -88t80.5 -67t109 -54.5t119.5 -57.5t109.5 -68t80.5 -94.5t31 -129.5q0 -142 -123 -242 q58 -83 58 -164q0 -109 -81 -181t-225 -72h-14q-148 0 -221 74.5t-78 203.5h107q7 -176 198 -176h8q98 0 145.5 46.5t47.5 107.5q0 48 -31 87t-80.5 67t-109.5 54.5t-119.5 57.5t-109 68t-80.5 95t-31 130zM352 811q0 -53 25.5 -93.5t73 -71t97.5 -54.5t118 -58.5t116 -68.5 q92 61 92 156q0 53 -26 94.5t-74 72.5t-98 55.5t-118 58.5t-114 65q-92 -59 -92 -156z" />
<glyph unicode="&#xa8;" d="M371 1270v143h125v-143h-125zM731 1270v143h125v-143h-125z" />
<glyph unicode="&#xa9;" d="M166 719v280q0 190 127 324.5t307 134.5h27q179 0 306.5 -134.5t127.5 -324.5v-280q0 -124 -58.5 -229.5t-158.5 -166.5t-217 -61h-27q-180 0 -307 134t-127 323zM250 715q0 -153 102 -261t248 -108h27q146 0 247 108t101 261v289q0 154 -101 262t-247 108h-27 q-146 0 -248 -108t-102 -262v-289zM401 733v264q0 85 61 144t159 59q87 0 145 -58t61 -143h-73q-1 59 -38 93t-95 34q-62 0 -105 -45.5t-43 -105.5v-223q0 -60 43 -105t105 -45q54 0 94.5 36.5t48.5 90.5h72q-5 -89 -63.5 -146t-151.5 -57q-98 0 -159 59.5t-61 147.5z" />
<glyph unicode="&#xaa;" d="M385 1004q0 80 62 136t151 62l150 10v35q0 49 -33 89t-86 40q-44 0 -76.5 -29.5t-40.5 -72.5h-98q12 81 70 130.5t145 49.5q101 0 157 -57t56 -144v-434h-94v39q-58 -51 -148 -51q-85 2 -150 59t-65 138zM403 614v82h439v-82h-439zM479 1006q0 -44 39 -80.5t86 -36.5 q59 0 101.5 32.5t42.5 73.5v135l-148 -8q-50 -3 -85.5 -36t-35.5 -80z" />
<glyph unicode="&#xab;" d="M270 598l240 311h108l-241 -311l241 -311h-108zM606 598l242 311h108l-241 -311l241 -311h-108z" />
<glyph unicode="&#xac;" d="M166 739v105h897v-545h-102v440h-795z" />
<glyph unicode="&#xad;" />
<glyph unicode="&#xae;" d="M166 715v280q0 190 127 324.5t307 134.5h27q179 0 306.5 -134.5t127.5 -324.5v-280q0 -124 -58.5 -229.5t-158.5 -166.5t-217 -61h-27q-180 0 -307 134t-127 323zM250 711q0 -153 102 -261t248 -108h27q146 0 247 108t101 261v288q0 154 -101 262.5t-247 108.5h-27 q-146 0 -248 -108.5t-102 -262.5v-288zM428 532v654h227q58 0 103 -45.5t45 -104.5v-104q0 -42 -26.5 -81.5t-63.5 -57.5l110 -261h-80l-106 248h-137v-248h-72zM500 846h153q31 0 55.5 24.5t24.5 57.5v110q0 33 -24.5 56.5t-55.5 23.5h-153v-272z" />
<glyph unicode="&#xaf;" d="M328 1276v90h571v-90h-571z" />
<glyph unicode="&#xb0;" d="M330 1169q0 117 83.5 201t200.5 84t201 -84t84 -201t-84 -200.5t-201 -83.5t-200.5 83.5t-83.5 200.5zM412 1167q0 -82 58.5 -141t141.5 -59q82 0 141.5 59t59.5 141q0 83 -59.5 142t-141.5 59q-83 0 -141.5 -59t-58.5 -142z" />
<glyph unicode="&#xb1;" d="M166 154v104h897v-104h-897zM166 643v102h395v279h105v-279h395v-102h-395v-276h-105v276h-395z" />
<glyph unicode="&#xb2;" d="M387 659v82q0 56 19.5 103t51.5 80.5t70 63t76 56.5t70 55t51.5 65.5t19.5 80.5q0 53 -34.5 90t-85.5 37q-57 0 -97 -42.5t-43 -106.5h-86q4 102 69.5 166.5t156.5 64.5q88 0 152.5 -62t64.5 -155q0 -51 -20 -94.5t-51.5 -75t-70 -60t-77.5 -56.5t-70.5 -57.5 t-51.5 -68.5t-20 -84h361v-82h-455z" />
<glyph unicode="&#xb3;" d="M389 864v17h92v-17q0 -59 38 -99t95 -40t95.5 41t38.5 98v121q0 45 -29.5 77t-71.5 32h-84v82l150 176h-277v82h381v-78l-149 -178q70 -18 120 -71.5t50 -121.5v-121q0 -89 -64.5 -155t-152.5 -66h-13q-90 0 -154.5 64t-64.5 157z" />
<glyph unicode="&#xb4;" d="M432 1163l219 250h144l-252 -250h-111z" />
<glyph unicode="&#xb5;" d="M231 -369v1393h97v-711q0 -100 67.5 -172.5t163.5 -72.5q103 0 181.5 69.5t78.5 167.5v719h96v-840q0 -39 23.5 -69.5t58.5 -36.5v-88q-56 2 -101 37.5t-65 93.5q-60 -73 -120.5 -107t-157.5 -34q-131 0 -225 131v-480h-97z" />
<glyph unicode="&#xb6;" d="M274 1044q0 161 112.5 275.5t272.5 114.5h295v-1803h-92v1712h-125v-1712h-92v1028q-158 14 -264.5 122t-106.5 263z" />
<glyph unicode="&#xb7;" d="M543 528v144h143v-144h-143z" />
<glyph unicode="&#xb8;" d="M477 -287h115q28 0 46.5 19t18.5 47t-18.5 45.5t-46.5 17.5h-92v158h82v-74h22q60 0 104 -43.5t44 -103.5q0 -61 -44 -104.5t-104 -43.5h-127v82z" />
<glyph unicode="&#xb9;" d="M494 1352v82h239v-775h-96v693h-143z" />
<glyph unicode="&#xba;" d="M385 1008v245q0 84 65.5 142.5t165.5 58.5q99 0 163.5 -58.5t64.5 -142.5v-245q0 -84 -64.5 -142.5t-163.5 -58.5q-100 0 -165.5 58.5t-65.5 142.5zM389 614v82h453v-82h-453zM481 1008q0 -46 40 -82.5t95 -36.5q53 0 93.5 36.5t40.5 82.5v245q0 46 -40.5 82.5 t-95.5 36.5q-53 0 -93 -36.5t-40 -82.5v-245z" />
<glyph unicode="&#xbb;" d="M270 287l242 311l-242 311h109l242 -311l-242 -311h-109zM608 287l242 311l-242 311h109l239 -311l-239 -311h-109z" />
<glyph unicode="&#xbc;" d="M150 1352v82h239v-775h-96v693h-143zM176 0l719 1434h84l-719 -1434h-84zM563 143v86l250 545h98l-254 -545h258v222h93v-222h69v-86h-69v-143h-93v143h-352z" />
<glyph unicode="&#xbd;" d="M147 0l719 1434h84l-719 -1434h-84zM156 1352v82h239v-775h-96v693h-143zM627 0v82q0 56 19.5 103t51.5 80.5t70 63t76 56.5t70 55t51.5 65.5t19.5 80.5q0 53 -35 90t-86 37q-57 0 -96.5 -42.5t-42.5 -107.5h-86q4 102 69 167t156 65q88 0 152.5 -62t64.5 -155 q0 -51 -20 -94.5t-51.5 -75t-70 -60t-77 -56.5t-70 -57.5t-51.5 -68.5t-20 -84h360v-82h-454z" />
<glyph unicode="&#xbe;" d="M125 864v17h92v-17q0 -59 38 -99t95 -40q56 0 94.5 40.5t38.5 98.5v121q0 45 -29 77t-71 32h-84v82l150 176h-277v82h381v-78l-150 -178q70 -18 120 -71.5t50 -121.5v-121q0 -89 -64.5 -155t-152.5 -66h-12q-90 0 -154.5 64t-64.5 157zM254 0l719 1434h84l-719 -1434h-84 zM588 143v86l250 545h98l-254 -545h258v222h92v-222h70v-86h-70v-143h-92v143h-352z" />
<glyph unicode="&#xbf;" d="M250 -70q0 77 18.5 139.5t48.5 106.5t66 84.5t72.5 83.5t67 92t49.5 121t20 160h104q-1 -99 -20 -179t-49 -133.5t-66 -98.5t-71.5 -84.5t-65 -80.5t-48 -97t-18.5 -124q0 -105 74.5 -176.5t181.5 -71.5q108 0 180.5 74.5t77.5 185.5h107q-3 -160 -108 -261t-257 -101 q-156 0 -260 99t-104 261zM571 881v143h144v-143h-144z" />
<glyph unicode="&#xc0;" d="M248 0v561l256 873h221l256 -873v-561h-107v489h-520v-489h-106zM350 1823h144l219 -250h-111zM365 588h499l-213 747h-73z" />
<glyph unicode="&#xc1;" d="M248 0v561l256 873h221l256 -873v-561h-107v489h-520v-489h-106zM365 588h499l-213 747h-73zM537 1573l219 250h143l-252 -250h-110z" />
<glyph unicode="&#xc2;" d="M248 0v561l256 873h221l256 -873v-561h-107v489h-520v-489h-106zM358 1573l183 250h143l186 -250h-112l-146 178l-143 -178h-111zM365 588h499l-213 747h-73z" />
<glyph unicode="&#xc3;" d="M248 0v561l256 873h221l256 -873v-561h-107v489h-520v-489h-106zM309 1618q8 71 60 128.5t118 57.5q47 0 134 -51t127 -51q35 0 56.5 27t26.5 63h87q-8 -72 -57.5 -129t-112.5 -57q-40 0 -88.5 25.5t-94.5 51t-78 25.5q-36 0 -60.5 -26.5t-31.5 -63.5h-86zM365 588h499 l-213 747h-73z" />
<glyph unicode="&#xc4;" d="M248 0v561l256 873h221l256 -873v-561h-107v489h-520v-489h-106zM365 588h499l-213 747h-73zM371 1679v144h125v-144h-125zM731 1679v144h125v-144h-125z" />
<glyph unicode="&#xc5;" d="M248 0v561l256 873h221l256 -873v-561h-107v489h-520v-489h-106zM365 588h499l-213 747h-73zM463 1706q0 63 43.5 107.5t105.5 44.5t107 -44.5t45 -107.5q0 -61 -45 -105.5t-107 -44.5q-61 0 -105 44t-44 106zM537 1706q0 -33 21 -54.5t54 -21.5q35 0 56.5 21.5 t21.5 54.5q0 35 -21.5 56.5t-56.5 21.5q-34 0 -54.5 -21.5t-20.5 -56.5z" />
<glyph unicode="&#xc6;" d="M170 0v569l256 865h625v-99h-361v-528h311v-98h-311v-611h369v-98h-475v489h-308v-489h-106zM279 588h305v747h-88z" />
<glyph unicode="&#xc7;" d="M248 340v756q0 149 105 253.5t253 104.5h15q149 0 253.5 -104.5t104.5 -253.5h-107q-2 107 -76.5 181.5t-181.5 74.5q-110 0 -185 -74.5t-75 -183.5v-756q0 -109 75 -184.5t185 -75.5q109 0 183.5 74.5t74.5 183.5v10h107v-8q0 -147 -101 -250t-247 -108v-54h22 q60 0 104 -43.5t44 -103.5q0 -61 -44 -104.5t-104 -43.5h-127v82h115q28 0 47 19t19 47q0 27 -19 45t-47 18h-92v144q-129 20 -215 120t-86 234z" />
<glyph unicode="&#xc8;" d="M283 0v1434h643v-99h-537v-528h488v-98h-488v-611h555v-98h-661zM365 1823h143l219 -250h-111z" />
<glyph unicode="&#xc9;" d="M283 0v1434h643v-99h-537v-528h488v-98h-488v-611h555v-98h-661zM489 1573l220 250h143l-252 -250h-111z" />
<glyph unicode="&#xca;" d="M283 0v1434h643v-99h-537v-528h488v-98h-488v-611h555v-98h-661zM332 1573l182 250h143l187 -250h-113l-145 178l-144 -178h-110z" />
<glyph unicode="&#xcb;" d="M283 0v1434h643v-99h-537v-528h488v-98h-488v-611h555v-98h-661zM344 1679v144h125v-144h-125zM705 1679v144h124v-144h-124z" />
<glyph unicode="&#xcc;" d="M244 0v98h319v1237h-319v99h741v-99h-315v-1237h315v-98h-741zM348 1823h144l219 -250h-111z" />
<glyph unicode="&#xcd;" d="M244 0v98h319v1237h-319v99h741v-99h-315v-1237h315v-98h-741zM535 1573l219 250h143l-252 -250h-110z" />
<glyph unicode="&#xce;" d="M244 0v98h319v1237h-319v99h741v-99h-315v-1237h315v-98h-741zM358 1573l183 250h143l186 -250h-112l-146 178l-143 -178h-111z" />
<glyph unicode="&#xcf;" d="M244 0v98h319v1237h-319v99h741v-99h-315v-1237h315v-98h-741zM371 1679v144h125v-144h-125zM731 1679v144h125v-144h-125z" />
<glyph unicode="&#xd0;" d="M197 709v98h125v627h352q149 0 253.5 -105.5t104.5 -255.5v-713q0 -149 -104.5 -254.5t-253.5 -105.5h-352v709h-125zM428 98h240q109 0 183.5 74.5t74.5 183.5v715q0 110 -74.5 185t-183.5 75h-240v-524h219v-98h-219v-611z" />
<glyph unicode="&#xd1;" d="M248 0v1434h133l467 -1160l31 -92l6 2l-11 99v1151h107v-1434h-133l-463 1147l-35 104l-6 -2l10 -112v-1137h-106zM309 1618q8 71 60 128.5t118 57.5q47 0 134 -51t127 -51q35 0 56.5 27t26.5 63h87q-8 -72 -57.5 -129t-112.5 -57q-40 0 -88.5 25.5t-94.5 51t-78 25.5 q-36 0 -60.5 -26.5t-31.5 -63.5h-86z" />
<glyph unicode="&#xd2;" d="M236 340v756q0 149 104.5 253.5t253.5 104.5h39q149 0 253.5 -104.5t104.5 -253.5v-758q0 -149 -104.5 -253.5t-253.5 -104.5h-39q-149 0 -253.5 105.5t-104.5 254.5zM342 338q0 -109 74.5 -184.5t183.5 -75.5h27q109 0 183.5 74.5t74.5 183.5v758q0 109 -74.5 183.5 t-183.5 74.5h-27q-109 0 -183.5 -74.5t-74.5 -183.5v-756zM369 1823h143l219 -250h-110z" />
<glyph unicode="&#xd3;" d="M236 340v756q0 149 104.5 253.5t253.5 104.5h39q149 0 253.5 -104.5t104.5 -253.5v-758q0 -149 -104.5 -253.5t-253.5 -104.5h-39q-149 0 -253.5 105.5t-104.5 254.5zM342 338q0 -109 74.5 -184.5t183.5 -75.5h27q109 0 183.5 74.5t74.5 183.5v758q0 109 -74.5 183.5 t-183.5 74.5h-27q-109 0 -183.5 -74.5t-74.5 -183.5v-756zM494 1573l219 250h143l-252 -250h-110z" />
<glyph unicode="&#xd4;" d="M236 340v756q0 149 104.5 253.5t253.5 104.5h39q149 0 253.5 -104.5t104.5 -253.5v-758q0 -149 -104.5 -253.5t-253.5 -104.5h-39q-149 0 -253.5 105.5t-104.5 254.5zM342 338q0 -109 74.5 -184.5t183.5 -75.5h27q109 0 183.5 74.5t74.5 183.5v758q0 109 -74.5 183.5 t-183.5 74.5h-27q-109 0 -183.5 -74.5t-74.5 -183.5v-756zM356 1573l183 250h143l186 -250h-112l-146 178l-143 -178h-111z" />
<glyph unicode="&#xd5;" d="M236 340v756q0 149 104.5 253.5t253.5 104.5h39q149 0 253.5 -104.5t104.5 -253.5v-758q0 -149 -104.5 -253.5t-253.5 -104.5h-39q-149 0 -253.5 105.5t-104.5 254.5zM309 1618q8 71 60 128.5t118 57.5q47 0 134 -51t127 -51q35 0 56.5 27t26.5 63h87q-8 -72 -57.5 -129 t-112.5 -57q-40 0 -88.5 25.5t-94.5 51t-78 25.5q-36 0 -60.5 -26.5t-31.5 -63.5h-86zM342 338q0 -109 74.5 -184.5t183.5 -75.5h27q109 0 183.5 74.5t74.5 183.5v758q0 109 -74.5 183.5t-183.5 74.5h-27q-109 0 -183.5 -74.5t-74.5 -183.5v-756z" />
<glyph unicode="&#xd6;" d="M236 340v756q0 149 104.5 253.5t253.5 104.5h39q149 0 253.5 -104.5t104.5 -253.5v-758q0 -149 -104.5 -253.5t-253.5 -104.5h-39q-149 0 -253.5 105.5t-104.5 254.5zM342 338q0 -109 74.5 -184.5t183.5 -75.5h27q109 0 183.5 74.5t74.5 183.5v758q0 109 -74.5 183.5 t-183.5 74.5h-27q-109 0 -183.5 -74.5t-74.5 -183.5v-756zM371 1679v144h125v-144h-125zM731 1679v144h125v-144h-125z" />
<glyph unicode="&#xd7;" d="M238 297l303 301l-303 303l71 72l305 -301l301 301l74 -72l-303 -303l303 -301l-74 -74l-301 303l-303 -301z" />
<glyph unicode="&#xd8;" d="M236 340v756q0 149 104.5 253.5t253.5 104.5h39q106 0 192 -55l15 35h98l-39 -99q92 -106 92 -239v-758q0 -149 -104.5 -253.5t-253.5 -104.5h-39q-103 0 -193 55l-14 -35h-100l39 98q-90 111 -90 242zM342 338q0 -66 27 -119l415 1079q-63 54 -157 54h-27 q-109 0 -183.5 -74.5t-74.5 -183.5v-756zM442 131q65 -53 158 -53h27q109 0 183.5 74.5t74.5 183.5v758q0 64 -29 123z" />
<glyph unicode="&#xd9;" d="M236 340v1094h106v-1096q0 -109 75 -184.5t185 -75.5h25q109 0 183.5 74.5t74.5 183.5v1098h106v-1096q0 -149 -104.5 -253.5t-253.5 -104.5h-39q-148 0 -253 105.5t-105 254.5zM369 1823h143l219 -250h-110z" />
<glyph unicode="&#xda;" d="M236 340v1094h106v-1096q0 -109 75 -184.5t185 -75.5h25q109 0 183.5 74.5t74.5 183.5v1098h106v-1096q0 -149 -104.5 -253.5t-253.5 -104.5h-39q-148 0 -253 105.5t-105 254.5zM496 1573l219 250h143l-252 -250h-110z" />
<glyph unicode="&#xdb;" d="M236 340v1094h106v-1096q0 -109 75 -184.5t185 -75.5h25q109 0 183.5 74.5t74.5 183.5v1098h106v-1096q0 -149 -104.5 -253.5t-253.5 -104.5h-39q-148 0 -253 105.5t-105 254.5zM356 1573l183 250h143l186 -250h-112l-146 178l-143 -178h-111z" />
<glyph unicode="&#xdc;" d="M236 340v1094h106v-1096q0 -109 75 -184.5t185 -75.5h25q109 0 183.5 74.5t74.5 183.5v1098h106v-1096q0 -149 -104.5 -253.5t-253.5 -104.5h-39q-148 0 -253 105.5t-105 254.5zM371 1679v144h125v-144h-125zM731 1679v144h125v-144h-125z" />
<glyph unicode="&#xdd;" d="M199 1434h118l297 -609l299 609h117l-360 -752v-682h-109v682zM449 1573l219 250h143l-252 -250h-110z" />
<glyph unicode="&#xde;" d="M283 0v1434h106v-217h258q123 0 211 -87.5t88 -211.5v-312q0 -126 -88 -213.5t-211 -87.5h-258v-305h-106zM389 403h252q82 0 139.5 57.5t57.5 139.5v315q0 82 -57.5 140.5t-139.5 58.5h-252v-711z" />
<glyph unicode="&#xdf;" d="M209 2v1090q0 151 100.5 256.5t243.5 105.5h16q140 0 238 -98.5t98 -229.5v-139q-97 -8 -161 -53.5t-64 -110.5q0 -43 19 -83t48.5 -72t66 -64t73 -67t66 -73.5t48.5 -90.5t19 -111q0 -119 -82 -200.5t-203 -81.5q-114 0 -195 82t-81 200v12h98v-24q0 -75 53.5 -128.5 t128.5 -53.5q76 0 130.5 53.5t54.5 128.5q0 50 -19 94t-49.5 77t-67 65t-73 65.5t-67 70t-49.5 86.5t-19 109q0 89 66 149t163 76v48q0 119 -71.5 197.5t-176.5 78.5q-107 0 -182.5 -79t-75.5 -197v-1088h-94z" />
<glyph unicode="&#xe0;" d="M258 285q0 129 93 219.5t231 99.5l288 21v90q0 101 -62 171t-167 70q-86 0 -144 -48.5t-79 -127.5h-101q19 117 105.5 190.5t218.5 73.5q157 0 243.5 -90t86.5 -227v-727h-101v96q-129 -116 -286 -116q-135 0 -230.5 87t-95.5 218zM358 287q0 -93 70 -157t168 -64 q116 0 195 64.5t79 152.5v252l-284 -17q-97 -6 -162.5 -72t-65.5 -159zM377 1413h143l219 -250h-110z" />
<glyph unicode="&#xe1;" d="M258 285q0 129 93 219.5t231 99.5l288 21v90q0 101 -62 171t-167 70q-86 0 -144 -48.5t-79 -127.5h-101q19 117 105.5 190.5t218.5 73.5q157 0 243.5 -90t86.5 -227v-727h-101v96q-129 -116 -286 -116q-135 0 -230.5 87t-95.5 218zM358 287q0 -93 70 -157t168 -64 q116 0 195 64.5t79 152.5v252l-284 -17q-97 -6 -162.5 -72t-65.5 -159zM567 1163l219 250h144l-252 -250h-111z" />
<glyph unicode="&#xe2;" d="M258 285q0 129 93 219.5t231 99.5l288 21v90q0 101 -62 171t-167 70q-86 0 -144 -48.5t-79 -127.5h-101q19 117 105.5 190.5t218.5 73.5q157 0 243.5 -90t86.5 -227v-727h-101v96q-129 -116 -286 -116q-135 0 -230.5 87t-95.5 218zM358 287q0 -93 70 -157t168 -64 q116 0 195 64.5t79 152.5v252l-284 -17q-97 -6 -162.5 -72t-65.5 -159zM403 1163l183 250h143l186 -250h-112l-146 178l-143 -178h-111z" />
<glyph unicode="&#xe3;" d="M258 285q0 129 93 219.5t231 99.5l288 21v90q0 101 -62 171t-167 70q-86 0 -144 -48.5t-79 -127.5h-101q19 117 105.5 190.5t218.5 73.5q157 0 243.5 -90t86.5 -227v-727h-101v96q-129 -116 -286 -116q-135 0 -230.5 87t-95.5 218zM358 287q0 -93 70 -157t168 -64 q116 0 195 64.5t79 152.5v252l-284 -17q-97 -6 -162.5 -72t-65.5 -159zM362 1208q8 71 60.5 129t118.5 58q47 0 133.5 -51.5t126.5 -51.5q35 0 57 27.5t27 62.5h86q-8 -72 -57.5 -129t-112.5 -57q-40 0 -88.5 25.5t-94 51t-77.5 25.5q-36 0 -60.5 -26.5t-31.5 -63.5h-87z " />
<glyph unicode="&#xe4;" d="M258 285q0 129 93 219.5t231 99.5l288 21v90q0 101 -62 171t-167 70q-86 0 -144 -48.5t-79 -127.5h-101q19 117 105.5 190.5t218.5 73.5q157 0 243.5 -90t86.5 -227v-727h-101v96q-129 -116 -286 -116q-135 0 -230.5 87t-95.5 218zM358 287q0 -93 70 -157t168 -64 q116 0 195 64.5t79 152.5v252l-284 -17q-97 -6 -162.5 -72t-65.5 -159zM424 1270v143h125v-143h-125zM784 1270v143h125v-143h-125z" />
<glyph unicode="&#xe5;" d="M258 285q0 129 93 219.5t231 99.5l288 21v90q0 101 -62 171t-167 70q-86 0 -144 -48.5t-79 -127.5h-101q19 117 105.5 190.5t218.5 73.5q157 0 243.5 -90t86.5 -227v-727h-101v96q-129 -116 -286 -116q-135 0 -230.5 87t-95.5 218zM358 287q0 -93 70 -157t168 -64 q116 0 195 64.5t79 152.5v252l-284 -17q-97 -6 -162.5 -72t-65.5 -159zM510 1296q0 63 43.5 107.5t105.5 44.5t107 -44.5t45 -107.5q0 -61 -45 -105t-107 -44q-61 0 -105 43.5t-44 105.5zM584 1296q0 -33 21 -54t54 -21q35 0 56.5 21t21.5 54q0 35 -21.5 56.5t-56.5 21.5 q-34 0 -54.5 -21.5t-20.5 -56.5z" />
<glyph unicode="&#xe6;" d="M152 285q0 74 24.5 134t64 97t86.5 56.5t95 19.5h143v205q0 64 -45.5 111.5t-99.5 47.5q-65 0 -99 -47.5t-34 -128.5h-99q0 118 66.5 191t165.5 73q133 0 198 -124q61 124 213 124q99 0 171.5 -71.5t72.5 -173.5v-293h-407v-268q0 -77 41.5 -123.5t121.5 -46.5 q56 0 100 46t44 107v78h94v-78q0 -100 -70 -170.5t-168 -70.5q-161 0 -215 110q-59 -110 -208 -110q-117 0 -186.5 83.5t-69.5 221.5zM256 287q0 -102 40.5 -160.5t113.5 -58.5q69 0 112 48t43 122v268h-139q-72 0 -121 -55t-49 -164zM668 592h307v194q0 72 -43.5 121 t-100.5 49q-67 0 -115 -47t-48 -114v-203z" />
<glyph unicode="&#xe7;" d="M256 299v428q0 134 99 225.5t259 91.5q147 0 244 -90.5t105 -222.5h-101q-5 98 -74.5 161.5t-173.5 63.5q-108 0 -184 -71.5t-76 -169.5v-406q0 -98 75.5 -169.5t184.5 -71.5q104 0 179 66.5t79 164.5h99q-8 -132 -98.5 -221t-233.5 -96v-56h23q60 0 103.5 -43.5 t43.5 -103.5q0 -61 -43.5 -104.5t-103.5 -43.5h-127v82h114q28 0 47 19t19 47q0 27 -19 45t-47 18h-92v142q-137 15 -219 103t-82 212z" />
<glyph unicode="&#xe8;" d="M256 297v430q0 134 99 225.5t259 91.5q158 0 257.5 -91.5t99.5 -225.5v-244h-617v-174q0 -98 75 -169.5t183 -71.5q106 0 181 66.5t79 164.5h99q-8 -140 -106 -229.5t-251 -89.5q-160 0 -259 91.5t-99 225.5zM354 571h518v144q0 98 -76 169.5t-184 71.5t-183 -71.5 t-75 -169.5v-144zM432 1413h143l220 -250h-111z" />
<glyph unicode="&#xe9;" d="M256 297v430q0 134 99 225.5t259 91.5q158 0 257.5 -91.5t99.5 -225.5v-244h-617v-174q0 -98 75 -169.5t183 -71.5q106 0 181 66.5t79 164.5h99q-8 -140 -106 -229.5t-251 -89.5q-160 0 -259 91.5t-99 225.5zM354 571h518v144q0 98 -76 169.5t-184 71.5t-183 -71.5 t-75 -169.5v-144zM432 1163l219 250h144l-252 -250h-111z" />
<glyph unicode="&#xea;" d="M256 297v430q0 134 99 225.5t259 91.5q158 0 257.5 -91.5t99.5 -225.5v-244h-617v-174q0 -98 75 -169.5t183 -71.5q106 0 181 66.5t79 164.5h99q-8 -140 -106 -229.5t-251 -89.5q-160 0 -259 91.5t-99 225.5zM354 571h518v144q0 98 -76 169.5t-184 71.5t-183 -71.5 t-75 -169.5v-144zM358 1163l183 250h143l186 -250h-112l-146 178l-143 -178h-111z" />
<glyph unicode="&#xeb;" d="M256 297v430q0 134 99 225.5t259 91.5q158 0 257.5 -91.5t99.5 -225.5v-244h-617v-174q0 -98 75 -169.5t183 -71.5q106 0 181 66.5t79 164.5h99q-8 -140 -106 -229.5t-251 -89.5q-160 0 -259 91.5t-99 225.5zM354 571h518v144q0 98 -76 169.5t-184 71.5t-183 -71.5 t-75 -169.5v-144zM371 1270v143h125v-143h-125zM731 1270v143h125v-143h-125z" />
<glyph unicode="&#xec;" d="M225 0v88h328v848h-328v88h430v-936h291v-88h-721zM328 1413h143l219 -250h-110z" />
<glyph unicode="&#xed;" d="M225 0v88h328v848h-328v88h430v-936h291v-88h-721zM489 1163l220 250h143l-252 -250h-111z" />
<glyph unicode="&#xee;" d="M225 0v88h328v848h-328v88h430v-936h291v-88h-721zM338 1163l182 250h144l186 -250h-113l-145 178l-143 -178h-111z" />
<glyph unicode="&#xef;" d="M225 0v88h328v848h-328v88h430v-936h291v-88h-721zM350 1270v143h125v-143h-125zM711 1270v143h125v-143h-125z" />
<glyph unicode="&#xf0;" d="M182 344v234q0 151 106 256.5t257 105.5h12q83 0 153 -46t103 -101v274q0 21 -6 57l-203 -73v90l172 65q-86 127 -217 127h-139v101h145q96 0 179.5 -52t134.5 -139l168 76v-94l-138 -64q11 -48 11 -92v-727q0 -151 -106 -256.5t-257 -105.5h-12q-151 0 -257 106.5 t-106 257.5zM289 342q0 -110 76 -186t186 -76t186 75t76 185v235q0 107 -78 187t-172 80h-12q-110 0 -186 -78t-76 -189v-233z" />
<glyph unicode="&#xf1;" d="M256 0v1024h98v-106q43 53 125 89.5t164 36.5q134 0 231 -93.5t97 -223.5v-727h-99v711q0 100 -72 172.5t-173 72.5q-107 0 -190 -69.5t-83 -167.5v-719h-98zM303 1208q8 72 60.5 129.5t117.5 57.5q47 0 133.5 -51.5t126.5 -51.5q35 0 57 27.5t27 62.5h86 q-8 -72 -57.5 -129t-112.5 -57q-40 0 -88.5 25.5t-94 51t-77.5 25.5q-36 0 -60.5 -26.5t-31.5 -63.5h-86z" />
<glyph unicode="&#xf2;" d="M256 297q0 -134 99 -225.5t259 -91.5q158 0 257.5 91.5t99.5 225.5v430q0 134 -99.5 225.5t-257.5 91.5q-160 0 -259 -91.5t-99 -225.5v-430zM352 1413h144l219 -250h-111zM354 309v406q0 98 75 169.5t183 71.5t184 -71.5t76 -169.5v-406q0 -98 -76 -169.5t-182 -71.5 q-109 0 -184.5 71.5t-75.5 169.5z" />
<glyph unicode="&#xf3;" d="M256 297q0 -134 99 -225.5t259 -91.5q158 0 257.5 91.5t99.5 225.5v430q0 134 -99.5 225.5t-257.5 91.5q-160 0 -259 -91.5t-99 -225.5v-430zM354 309v406q0 98 75 169.5t183 71.5t184 -71.5t76 -169.5v-406q0 -98 -76 -169.5t-182 -71.5q-109 0 -184.5 71.5t-75.5 169.5 zM516 1163l219 250h144l-252 -250h-111z" />
<glyph unicode="&#xf4;" d="M256 297q0 -134 99 -225.5t259 -91.5q158 0 257.5 91.5t99.5 225.5v430q0 134 -99.5 225.5t-257.5 91.5q-160 0 -259 -91.5t-99 -225.5v-430zM354 309v406q0 98 75 169.5t183 71.5t184 -71.5t76 -169.5v-406q0 -98 -76 -169.5t-182 -71.5q-109 0 -184.5 71.5t-75.5 169.5 zM358 1163l183 250h143l186 -250h-112l-146 178l-143 -178h-111z" />
<glyph unicode="&#xf5;" d="M256 297q0 -134 99 -225.5t259 -91.5q158 0 257.5 91.5t99.5 225.5v430q0 134 -99.5 225.5t-257.5 91.5q-160 0 -259 -91.5t-99 -225.5v-430zM309 1208q8 72 60.5 129.5t117.5 57.5q47 0 134 -51.5t127 -51.5q35 0 56.5 27t26.5 63h87q-8 -72 -57.5 -129t-112.5 -57 q-40 0 -88.5 25.5t-94.5 51t-78 25.5q-36 0 -60.5 -26.5t-31.5 -63.5h-86zM354 309v406q0 98 75 169.5t183 71.5t184 -71.5t76 -169.5v-406q0 -98 -76 -169.5t-182 -71.5q-109 0 -184.5 71.5t-75.5 169.5z" />
<glyph unicode="&#xf6;" d="M256 297q0 -134 99 -225.5t259 -91.5q158 0 257.5 91.5t99.5 225.5v430q0 134 -99.5 225.5t-257.5 91.5q-160 0 -259 -91.5t-99 -225.5v-430zM354 309v406q0 98 75 169.5t183 71.5t184 -71.5t76 -169.5v-406q0 -98 -76 -169.5t-182 -71.5q-109 0 -184.5 71.5t-75.5 169.5 zM371 1270v143h125v-143h-125zM731 1270v143h125v-143h-125z" />
<glyph unicode="&#xf7;" d="M166 526v103h895v-103h-895zM541 162v143h143v-143h-143zM541 854v143h143v-143h-143z" />
<glyph unicode="&#xf8;" d="M272 297v430q0 134 94.5 225.5t247.5 91.5q108 0 197 -53l16 33h97l-45 -90q75 -90 75 -207v-430q0 -134 -94.5 -225.5t-245.5 -91.5q-99 0 -200 53l-17 -33h-96l47 88q-76 88 -76 209zM367 309q0 -59 32 -119l367 713q-68 53 -154 53q-103 0 -174 -71.5t-71 -169.5v-406 zM459 119q70 -51 155 -51q102 0 174 71.5t72 169.5v406q0 62 -33 121z" />
<glyph unicode="&#xf9;" d="M256 297v727h98v-711q0 -100 72.5 -172.5t173.5 -72.5q107 0 189.5 69.5t82.5 167.5v719h99v-1024h-99v106q-44 -53 -125 -89.5t-163 -36.5q-134 0 -231 93.5t-97 223.5zM360 1413h144l219 -250h-111z" />
<glyph unicode="&#xfa;" d="M256 297v727h98v-711q0 -100 72.5 -172.5t173.5 -72.5q107 0 189.5 69.5t82.5 167.5v719h99v-1024h-99v106q-44 -53 -125 -89.5t-163 -36.5q-134 0 -231 93.5t-97 223.5zM500 1163l219 250h143l-252 -250h-110z" />
<glyph unicode="&#xfb;" d="M256 297v727h98v-711q0 -100 72.5 -172.5t173.5 -72.5q107 0 189.5 69.5t82.5 167.5v719h99v-1024h-99v106q-44 -53 -125 -89.5t-163 -36.5q-134 0 -231 93.5t-97 223.5zM358 1163l183 250h143l186 -250h-112l-146 178l-143 -178h-111z" />
<glyph unicode="&#xfc;" d="M256 297v727h98v-711q0 -100 72.5 -172.5t173.5 -72.5q107 0 189.5 69.5t82.5 167.5v719h99v-1024h-99v106q-44 -53 -125 -89.5t-163 -36.5q-134 0 -231 93.5t-97 223.5zM371 1270v143h125v-143h-125zM731 1270v143h125v-143h-125z" />
<glyph unicode="&#xfd;" d="M209 1024h102l301 -866l301 866h105l-502 -1393h-96l137 383zM487 1163l220 250h143l-252 -250h-111z" />
<glyph unicode="&#xfe;" d="M272 -369v1805h95v-514q103 122 247 122q151 0 245.5 -91.5t94.5 -225.5v-430q0 -134 -94.5 -225.5t-245.5 -91.5q-69 0 -134.5 33.5t-112.5 86.5v-469h-95zM367 309q0 -98 71 -169.5t174 -71.5t175.5 71.5t72.5 169.5v406q0 98 -72 169.5t-174 71.5q-101 0 -174 -69 t-73 -164v-414z" />
<glyph unicode="&#xff;" d="M209 1024h102l301 -866l301 866h105l-502 -1393h-96l137 383zM371 1270v143h125v-143h-125zM731 1270v143h125v-143h-125z" />
<glyph unicode="&#x152;" d="M154 362v711q0 150 101 255.5t249 105.5h559v-99h-365v-528h316v-98h-316v-611h375v-98h-569q-148 0 -249 106t-101 256zM260 360q0 -111 70.5 -186.5t179.5 -75.5h82v1233h-82q-109 0 -179.5 -74.5t-70.5 -185.5v-711z" />
<glyph unicode="&#x153;" d="M158 225v576q0 101 73 172t175 71q72 0 126 -39.5t80 -89.5q15 25 29.5 43.5t39.5 40t61.5 33.5t82.5 12q99 0 171.5 -71.5t72.5 -171.5v-318h-407v-245q0 -75 43 -122.5t118 -47.5q58 0 102 46.5t44 108.5v76h100v-76q-1 -101 -72.5 -172t-171.5 -71q-73 0 -129 32.5 t-84 87.5q-68 -120 -206 -120q-104 0 -176 71t-72 174zM256 238q0 -74 42 -122t108 -48q67 0 110 48t43 122v559q0 66 -45.5 112.5t-110.5 46.5q-58 0 -102.5 -49t-44.5 -119v-550zM662 571h307v217q0 71 -44 119.5t-102 48.5q-65 0 -113 -47t-48 -112v-226z" />
<glyph unicode="&#x178;" d="M199 1434h118l297 -609l299 609h117l-360 -752v-682h-109v682zM371 1679v144h125v-144h-125zM731 1679v144h125v-144h-125z" />
<glyph unicode="&#x2c6;" d="M358 1163l183 250h143l186 -250h-112l-146 178l-143 -178h-111z" />
<glyph unicode="&#x2dc;" d="M309 1208q8 72 60.5 129.5t117.5 57.5q47 0 134 -51.5t127 -51.5q35 0 56.5 27t26.5 63h87q-8 -72 -57.5 -129t-112.5 -57q-40 0 -88.5 25.5t-94.5 51t-78 25.5q-36 0 -60.5 -26.5t-31.5 -63.5h-86z" />
<glyph unicode="&#x2000;" horiz-adv-x="929" />
<glyph unicode="&#x2001;" horiz-adv-x="1858" />
<glyph unicode="&#x2002;" horiz-adv-x="929" />
<glyph unicode="&#x2003;" horiz-adv-x="1858" />
<glyph unicode="&#x2004;" horiz-adv-x="619" />
<glyph unicode="&#x2005;" horiz-adv-x="464" />
<glyph unicode="&#x2006;" horiz-adv-x="309" />
<glyph unicode="&#x2007;" horiz-adv-x="309" />
<glyph unicode="&#x2008;" horiz-adv-x="232" />
<glyph unicode="&#x2009;" horiz-adv-x="371" />
<glyph unicode="&#x200a;" horiz-adv-x="103" />
<glyph unicode="&#x2010;" d="M385 528v103h457v-103h-457z" />
<glyph unicode="&#x2011;" d="M385 528v103h457v-103h-457z" />
<glyph unicode="&#x2012;" d="M385 528v103h457v-103h-457z" />
<glyph unicode="&#x2013;" d="M227 557v98h774v-98h-774z" />
<glyph unicode="&#x2014;" horiz-adv-x="1226" d="M0 557v98h1227v-98h-1227z" />
<glyph unicode="&#x2018;" d="M510 1042l137 392h72l-70 -392h-139z" />
<glyph unicode="&#x2019;" d="M510 1042l70 392h139l-139 -392h-70z" />
<glyph unicode="&#x201a;" d="M510 -246l70 389h139l-139 -389h-70z" />
<glyph unicode="&#x201c;" d="M369 1042l137 392h72l-70 -392h-139zM649 1042l137 392h72l-70 -392h-139z" />
<glyph unicode="&#x201d;" d="M369 1042l69 392h140l-140 -392h-69zM649 1042l70 392h139l-139 -392h-70z" />
<glyph unicode="&#x201e;" d="M369 -246l69 389h140l-140 -389h-69zM649 -246l70 389h139l-139 -389h-70z" />
<glyph unicode="&#x2022;" d="M319 750q0 121 86.5 207.5t208.5 86.5t208.5 -86.5t86.5 -207.5q0 -122 -86.5 -208.5t-208.5 -86.5t-208.5 86.5t-86.5 208.5z" />
<glyph unicode="&#x2026;" d="M133 0v143h143v-143h-143zM543 0v143h143v-143h-143zM952 0v143h144v-143h-144z" />
<glyph unicode="&#x202f;" horiz-adv-x="371" />
<glyph unicode="&#x2039;" d="M438 598l240 311h110l-243 -311l243 -311h-110z" />
<glyph unicode="&#x203a;" d="M438 287l242 311l-242 311h109l241 -311l-241 -311h-109z" />
<glyph unicode="&#x205f;" horiz-adv-x="464" />
<glyph unicode="&#x20ac;" d="M195 530v105h100v153h-100v105h100v199q0 151 105.5 256.5t256.5 105.5h13q151 0 256.5 -105.5t105.5 -256.5h-106q-2 109 -77.5 184.5t-184.5 75.5q-110 0 -185.5 -76t-75.5 -186v-197h476v-105h-476v-153h410v-105h-410v-188q0 -111 75.5 -187.5t185.5 -76.5t186 76 t76 186v10h106v-8q0 -151 -105.5 -256.5t-256.5 -105.5h-13q-151 0 -256.5 106.5t-105.5 257.5v186h-100z" />
<glyph unicode="&#x2122;" d="M143 1374v60h394v-60h-166v-626h-66v626h-162zM592 748v686h76l168 -344h8l164 344h77v-686h-67v552h-8l-138 -286h-67l-141 286h-9v-552h-63z" />
<glyph unicode="&#x25fc;" horiz-adv-x="1024" d="M0 0v1024h1024v-1024h-1024z" />
<glyph unicode="&#xfb01;" d="M129 936v88h147v145q0 117 86 202t207 85q94 0 174 -37l-55 -73q-40 22 -119 22t-135.5 -57t-56.5 -133v-154h555v-936h166v-88h-455v88h186v848h-452v-936h-101v936h-147zM813 1270v143h135v-143h-135z" />
<glyph unicode="&#xfb02;" d="M131 936v88h145v145q0 115 85 190t208 75h361v-1346h166v-88h-455v88h186v1258h-258q-81 0 -136.5 -47t-55.5 -121v-154h270v-88h-270v-936h-101v936h-145z" />
</font>
</defs>
</svg>
