<?xml version="1.0" standalone="no"?>
<!DOCTYPE svg PUBLIC "-//W3C//DTD SVG 1.1//EN" "http://www.w3.org/Graphics/SVG/1.1/DTD/svg11.dtd" >
<svg xmlns="http://www.w3.org/2000/svg">
<metadata></metadata>
<defs>
<font id="decima_monolight_italic" horiz-adv-x="1228" >
<font-face units-per-em="2048" ascent="1536" descent="-512" />
<missing-glyph horiz-adv-x="500" />
<glyph />
<glyph />
<glyph unicode="&#xd;" />
<glyph unicode=" " />
<glyph unicode="!" d="M492 0l20 143h143l-20 -143h-143zM551 307l158 1127h106l-158 -1127h-106z" />
<glyph unicode="&#x22;" d="M453 989l63 465h139l-131 -465h-71zM741 989l64 465h139l-133 -465h-70z" />
<glyph unicode="#" d="M152 422l12 92h215l117 418h-203l12 92h213l119 410h96l-115 -410h265l116 410h95l-117 -410h201l-13 -92h-213l-116 -418h200l-12 -92h-213l-119 -422h-94l117 422h-266l-119 -422h-92l114 422h-200zM475 514h264l117 418h-264z" />
<glyph unicode="$" d="M242 358l6 50h108l-6 -50q-17 -111 42.5 -187.5t168.5 -76.5h27q108 0 189 73t95 175q9 68 -4 122t-43 91t-71.5 68t-88.5 56l-94 50t-88.5 57t-71.5 70.5t-43 95t-3 127.5q19 135 116.5 234.5t233.5 122.5l14 102h94l-14 -102q134 -22 205.5 -118.5t54.5 -240.5h-104 q11 112 -46.5 185t-164.5 73q-106 0 -187 -70t-94 -175q-8 -55 7 -100t46 -76t73.5 -58t90 -51.5t94.5 -51.5t88.5 -62.5t70.5 -79.5t41 -109t1 -144q-22 -143 -128.5 -245t-248.5 -115l-14 -102h-94l14 102q-139 15 -215.5 117t-56.5 243z" />
<glyph unicode="%" d="M117 469l14 96l1079 400l-14 -97zM272 1042l31 207q12 87 82.5 145t157.5 58h16q86 0 140 -57.5t42 -145.5l-30 -207q-12 -87 -83.5 -149t-156.5 -62h-16q-86 0 -140.5 62t-42.5 149zM365 1051q-8 -56 23 -93.5t89 -37.5q53 0 95 37.5t49 91.5l26 184q8 56 -23.5 93.5 t-86.5 37.5t-96.5 -37.5t-49.5 -93.5zM596 193l29 206q12 87 82 145t157 58h17q86 0 140 -57.5t42 -145.5l-29 -206q-12 -87 -83 -149t-156 -62h-17q-85 0 -139.5 62t-42.5 149zM688 201q-8 -56 23.5 -93.5t89.5 -37.5q52 0 93.5 37.5t49.5 91.5l25 184q8 56 -24 93.5 t-87 37.5t-96 -37.5t-49 -93.5z" />
<glyph unicode="&#x26;" d="M244 344l43 311q13 94 81.5 173t159.5 116l-94 311l27 179h594l-15 -101h-485l-6 -43l293 -1038q29 67 35 110l38 279h107l-41 -299q-20 -130 -98 -221q26 -86 35 -121h-117l-10 49q-113 -69 -224 -69h-12q-150 0 -241.5 107t-69.5 257zM352 342q-15 -111 49 -187.5 t174 -76.5q95 0 183 63l-203 709q-64 -29 -107.5 -83t-52.5 -114z" />
<glyph unicode="'" d="M598 989l64 465h139l-131 -465h-72z" />
<glyph unicode="(" d="M397 -35l160 1139q20 141 138 246t261 116l-14 -102q-106 -4 -183.5 -79t-92.5 -183l-160 -1141q-15 -107 42 -182.5t161 -79.5l-15 -98q-147 3 -233 108.5t-64 255.5z" />
<glyph unicode=")" d="M346 -399l14 98q105 4 184.5 79.5t94.5 182.5l160 1141q15 108 -43 183t-162 79l14 102q147 -3 233 -107.5t64 -254.5l-160 -1139q-20 -141 -138 -247t-261 -117z" />
<glyph unicode="*" d="M477 1260l31 67l162 -47l24 174h72l-25 -174l179 55l8 -63l-178 -66l81 -139l-59 -41l-84 141l-115 -141l-53 41l115 143z" />
<glyph unicode="+" d="M199 528l14 103h395l56 395h104l-55 -395h395l-14 -103h-396l-55 -397h-104l55 397h-395z" />
<glyph unicode="," d="M506 -246l108 246h-65l20 143h142l-21 -153l-110 -236h-74z" />
<glyph unicode="-" d="M418 528l14 103h457l-15 -103h-456z" />
<glyph unicode="." d="M537 0l20 143h143l-20 -143h-143z" />
<glyph unicode="/" d="M127 -371l946 1805h101l-945 -1805h-102z" />
<glyph unicode="0" d="M260 344l105 748q22 151 137 256.5t256 105.5h16q143 0 229 -106t64 -256l-106 -750q-20 -150 -136.5 -256t-259.5 -106h-16q-141 0 -226 106.5t-63 257.5zM362 342q-15 -111 45 -187.5t166 -76.5q103 0 185.5 76t97.5 186l107 750q15 111 -46.5 188.5t-166.5 77.5 q-104 0 -185 -77.5t-96 -188.5z" />
<glyph unicode="1" d="M229 0l15 98h270l172 1233l-242 -35l15 103l229 35h119l-186 -1336h290l-14 -98h-668z" />
<glyph unicode="2" d="M190 0l17 123q11 78 43 149t76.5 127t99.5 107.5t114.5 97t118 90t113 90.5t98 94t73 106.5t38.5 121.5q15 105 -49 177.5t-170 72.5q-107 0 -191 -76t-106 -188h-107q26 159 147.5 260.5t272.5 101.5q152 0 243 -103t69 -257q-13 -89 -59.5 -169t-111.5 -141.5 t-141.5 -120t-152.5 -116t-140.5 -117t-110 -135.5t-57.5 -160l-6 -37h637l-12 -98h-746z" />
<glyph unicode="3" d="M244 342v8h106v-10q-17 -110 48.5 -186t176.5 -76q110 0 197 77t102 187l41 291q11 84 -39.5 146.5t-134.5 62.5h-125l17 112l334 379h-504l14 101h623l-17 -113l-340 -381q122 0 209.5 -89.5t69.5 -215.5l-41 -291q-22 -151 -142.5 -257.5t-271.5 -106.5h-12 q-151 0 -242 105.5t-69 256.5z" />
<glyph unicode="4" d="M217 322l19 127l600 985h114l-610 -1008h442l56 389h108l-55 -389h123l-15 -104h-122l-46 -322h-108l45 322h-551z" />
<glyph unicode="5" d="M244 342v8h108v-10q-17 -110 48 -186t175 -76t197 77t102 187l35 246q15 111 -50 188.5t-175 77.5h-12q-68 0 -125.5 -32t-87.5 -74l-105 30l152 658h579l-14 -105h-481l-103 -457q36 31 94 54.5t111 23.5h13q151 0 242 -105.5t69 -256.5l-35 -246 q-22 -151 -142.5 -257.5t-271.5 -106.5h-12q-150 0 -241.5 106t-69.5 256z" />
<glyph unicode="6" d="M240 342l106 748q20 151 138.5 257.5t267.5 106.5h12q140 0 228 -103.5t79 -246.5h-106q9 107 -53.5 178.5t-168.5 71.5q-109 0 -191 -77.5t-97 -189.5l-43 -294q36 54 115 105.5t161 51.5h14q150 0 242 -106t70 -256l-33 -244q-22 -150 -144 -257t-272 -107h-14 q-149 0 -240 105.5t-71 256.5zM348 340q-15 -111 49 -186.5t174 -75.5q112 0 198 76.5t101 187.5l35 244q15 111 -49 188.5t-176 77.5h-12q-92 0 -181 -79.5t-104 -186.5z" />
<glyph unicode="7" d="M414 1333l14 101h672l-17 -123q-9 -64 -59 -181t-117.5 -254.5t-136.5 -284t-126.5 -306t-76.5 -285.5h-110q21 139 79.5 304.5t128 311.5t137 281t118 251.5t59.5 184.5h-565z" />
<glyph unicode="8" d="M242 344l10 84q13 94 74.5 177t154.5 138q-69 55 -102 132.5t-21 162.5l11 72q20 143 134 243.5t255 100.5h18q141 0 226 -100.5t65 -243.5l-10 -74q-12 -85 -66 -161.5t-137 -131.5q77 -54 113.5 -137.5t23.5 -177.5l-12 -86q-20 -150 -140 -256t-270 -106h-18 q-149 0 -240 106.5t-69 257.5zM350 342q-15 -111 50 -187.5t178 -76.5q107 0 192 76t100 186l13 86q15 111 -49.5 188.5t-176.5 77.5q-108 0 -194 -77.5t-101 -188.5zM463 1036q-14 -99 42.5 -172t160.5 -73h18q95 0 173 70t93 173l11 68q14 107 -46 180.5t-165 73.5 q-103 0 -183 -74t-94 -180z" />
<glyph unicode="9" d="M254 328h106q-9 -106 53.5 -178t168.5 -72q109 0 192 78t98 190l41 293q-41 -56 -118.5 -107t-157.5 -51h-14q-150 0 -242 106.5t-70 256.5l35 246q20 150 142 257t272 107h14q150 0 241.5 -106t69.5 -256l-104 -748q-22 -151 -140.5 -257.5t-267.5 -106.5h-12 q-140 0 -227.5 102.5t-79.5 245.5zM420 846q-15 -111 49 -188.5t174 -77.5h14q92 0 181 79.5t104 186.5l35 248q15 111 -49 185.5t-176 74.5q-110 0 -196 -76t-101 -186z" />
<glyph unicode=":" d="M506 0l20 143h144l-21 -143h-143zM629 881l20 143h144l-21 -143h-143z" />
<glyph unicode=";" d="M475 -246l109 246h-66l21 143h141l-23 -153l-108 -236h-74zM643 881l19 143h143l-19 -143h-143z" />
<glyph unicode="&#x3c;" d="M229 543l17 119l889 376l-17 -112l-774 -320v-8l684 -317l-16 -115z" />
<glyph unicode="=" d="M176 367l14 102h897l-14 -102h-897zM221 692l15 105h897l-15 -105h-897z" />
<glyph unicode="&#x3e;" d="M176 166l17 115l774 317v8l-684 320l16 112l782 -376l-16 -119z" />
<glyph unicode="?" d="M350 1092q26 160 145 261t271 101q156 0 247 -99t68 -261q-11 -77 -38 -139.5t-63 -106.5t-78 -84.5t-84.5 -83.5t-79.5 -92t-66.5 -121t-42.5 -160h-105q15 99 45 179t67.5 133.5t79.5 98.5t83.5 84.5t76.5 80.5t61.5 97t35.5 124q15 105 -49.5 176.5t-171.5 71.5 t-190 -74t-105 -186h-107zM463 0l18 143h144l-19 -143h-143z" />
<glyph unicode="@" d="M164 37l143 1016q15 109 82.5 201t168.5 146t212 54h23q166 0 266.5 -117.5t77.5 -283.5l-148 -1053h-100l12 86q-51 -55 -97 -80.5t-106 -25.5q-108 0 -174 79t-51 193l72 508q15 107 104.5 184.5t196.5 77.5q123 0 170 -111l20 142q19 128 -57 217.5t-201 89.5h-22 q-126 0 -226.5 -89t-119.5 -218l-144 -1016q-19 -132 56.5 -221.5t201.5 -89.5l-12 -95q-167 2 -269 120.5t-79 285.5zM575 264q-12 -87 28.5 -141.5t109.5 -54.5q85 0 143 53.5t70 142.5l67 481q12 87 -30.5 135t-126.5 48q-72 0 -126.5 -49t-66.5 -134z" />
<glyph unicode="A" d="M197 0l77 561l379 873h221l134 -873l-78 -561h-107l68 489h-520l-68 -489h-106zM395 588h500l-107 747h-73z" />
<glyph unicode="B" d="M227 0l201 1434h348q132 0 208 -88q63 -72 63 -167q0 -21 -3 -44l-16 -119q-10 -73 -60 -141.5t-120 -114.5q122 -104 122 -237q0 -21 -3 -42l-23 -155q-20 -139 -131.5 -232.5t-245.5 -93.5h-340zM348 98h234q98 0 172 67.5t86 160.5l22 155q2 13 2 27q0 22 -5 44 q-8 38 -28.5 74t-63 59.5t-99.5 23.5h-234zM446 803h248q85 0 153.5 60t80.5 145l16 118q2 16 2 31q0 65 -42 114q-52 60 -136 60h-248z" />
<glyph unicode="C" d="M244 340l106 756q22 149 142 253.5t268 104.5h14q149 0 239 -104q72 -84 73 -197q0 -28 -5 -57h-106q3 19 3 38q0 84 -53 144q-64 74 -171 74q-110 0 -196 -74.5t-101 -183.5l-107 -756q-3 -21 -3 -40q0 -82 52 -144q64 -76 174 -76q109 0 194.5 74.5t100.5 183.5l2 10 h107l-2 -8q-22 -149 -141.5 -253.5t-268.5 -104.5h-14q-147 0 -237 106q-73 86 -74 201q0 26 4 53z" />
<glyph unicode="D" d="M207 0l201 1434h350q149 0 240 -106q75 -87 75 -203q0 -25 -4 -52l-100 -713q-22 -149 -142.5 -254.5t-269.5 -105.5h-350zM328 98h237q110 0 195 74.5t100 183.5l101 715q4 23 4 44q0 81 -52 141q-65 75 -176 75h-237z" />
<glyph unicode="E" d="M231 0l201 1434h643l-12 -99h-537l-75 -528h487l-12 -98h-488l-86 -611h555l-14 -98h-662z" />
<glyph unicode="F" d="M242 0l200 1434h643l-12 -99h-536l-76 -528h487l-12 -98h-487l-101 -709h-106z" />
<glyph unicode="G" d="M231 340l107 756q22 149 141.5 253.5t268.5 104.5h38q149 0 240 -104q72 -85 72 -197q0 -28 -4 -57h-107q3 19 3 38q0 83 -53 144q-64 74 -171 74h-27q-109 0 -194.5 -74.5t-100.5 -183.5l-106 -756q-3 -21 -3 -40q0 -83 52 -144q64 -76 172 -76h27q109 0 194.5 74.5 t100.5 183.5l37 268h-213l14 98h319l-51 -364q-22 -149 -141 -253.5t-268 -104.5h-39q-149 0 -239 105q-73 86 -73 202q0 26 4 53z" />
<glyph unicode="H" d="M197 0l200 1434h107l-88 -627h520l88 627h106l-200 -1434h-107l101 709h-521l-100 -709h-106z" />
<glyph unicode="I" d="M193 0l14 98h319l174 1237h-319l12 99h742l-13 -99h-315l-174 -1237h315l-14 -98h-741z" />
<glyph unicode="J" d="M244 338l18 129h107l-19 -131q-3 -21 -3 -40q0 -83 53 -144q64 -74 173 -74q110 0 195 75.5t100 184.5l142 997h-555l14 99h661l-153 -1094q-22 -149 -142 -254.5t-268 -105.5h-14q-149 0 -239 104q-74 86 -74 201q0 26 4 53z" />
<glyph unicode="K" d="M184 0l201 1434h107l-201 -1434h-107zM403 760l594 674h119l-596 -676l422 -758h-117z" />
<glyph unicode="L" d="M233 0l201 1434h107l-187 -1336h551l-14 -98h-658z" />
<glyph unicode="M" d="M152 0l200 1434h142l172 -666h10l356 666h142l-201 -1434h-107l164 1163l25 117h-8l-340 -635h-109l-160 635h-8l-8 -117l-164 -1163h-106z" />
<glyph unicode="N" d="M197 0l200 1434h133l306 -1160l16 -92l8 2l2 99l162 1151h106l-200 -1434h-133l-301 1147l-21 104l-6 -2l-6 -112l-160 -1137h-106z" />
<glyph unicode="O" d="M231 340l107 756q22 149 141.5 253.5t268.5 104.5h38q150 0 240 -104q73 -84 72 -197q0 -27 -4 -57l-107 -758q-22 -149 -141 -253.5t-268 -104.5h-39q-149 0 -239 105q-73 86 -73 202q0 26 4 53zM338 338q-3 -21 -3 -40q0 -82 52 -144q64 -76 172 -76h27 q109 0 194.5 74.5t100.5 183.5l106 758q3 21 3 40q0 84 -52 144q-64 74 -172 74h-27q-109 0 -194.5 -74.5t-100.5 -183.5z" />
<glyph unicode="P" d="M231 0l201 1434h365q123 0 199 -88q62 -72 62 -167q0 -21 -3 -44l-45 -312q-17 -126 -117 -213.5t-223 -87.5h-258l-74 -522h-107zM424 621h252q82 0 149.5 57.5t77.5 138.5l45 316q2 15 2 29q0 64 -42 111q-50 58 -132 58h-252z" />
<glyph unicode="Q" d="M215 340l107 756q20 149 139 253.5t268 104.5h39q149 0 239 -104q74 -86 74 -201q0 -26 -4 -53l-106 -758q-18 -113 -99 -213l93 -109l-78 -63l-90 106q-109 -79 -236 -79h-39q-149 0 -239 106q-72 84 -72 197q0 28 4 57zM322 338q-3 -24 -3 -45q0 -43 13 -74 q30 59 101 100t138 41q108 0 177 -84l61 -73q46 64 53 133l107 758q3 21 3 40q0 83 -52 144q-63 74 -172 74h-27q-109 0 -194.5 -74.5t-100.5 -183.5zM377 143q68 -65 166 -65h26q89 0 166 53l-69 84q-44 51 -111 51q-52 0 -104.5 -34t-73.5 -89z" />
<glyph unicode="R" d="M215 0l201 1434h364q123 0 199 -88q62 -72 62 -167q0 -21 -3 -44l-41 -287q-12 -93 -80 -173.5t-161 -111.5l153 -563h-114l-152 547h-246l-75 -547h-107zM412 645h252q82 0 148.5 57.5t78.5 139.5l41 291q2 15 2 29q0 64 -42 111q-50 58 -132 58h-252z" />
<glyph unicode="S" d="M231 338l7 49h106l-6 -49q-3 -21 -3 -40q0 -82 52 -144q64 -76 172 -76h27q108 0 193.5 72.5t99.5 171.5q4 27 4 53q1 55 -17 99q-26 66 -75.5 109.5t-111 81t-123.5 76t-111 83.5t-74 115q-17 47 -17 103q0 27 4 56q22 151 141.5 253.5t268.5 102.5q151 0 241 -100 q74 -82 74 -202q0 -27 -4 -56h-104q2 17 2 32q0 89 -53 151q-62 73 -170 73q-105 0 -189.5 -70.5t-97.5 -173.5q-3 -19 -3 -37q0 -33 10 -63q15 -46 47 -79.5t75 -63.5t91 -58.5t96 -58.5t89.5 -69t71.5 -85t42 -112q6 -34 6 -72q0 -34 -5 -72q-22 -149 -140.5 -253.5 t-266.5 -104.5h-41q-149 0 -239 104q-73 84 -73 197q0 28 4 57z" />
<glyph unicode="T" d="M383 1333l14 101h733l-14 -101h-311l-187 -1333h-108l186 1333h-313z" />
<glyph unicode="U" d="M233 340l154 1094h107l-156 -1096q-3 -20 -3 -40q0 -82 53 -144q65 -76 175 -76h25q109 0 193.5 74.5t99.5 183.5l155 1098h107l-156 -1096q-20 -149 -139 -253.5t-268 -104.5h-39q-148 0 -239 106q-73 85 -73 198q0 27 4 56z" />
<glyph unicode="V" d="M317 868l80 566h107l-80 -570l115 -766h77l328 766l80 570h106l-79 -566l-377 -868h-221z" />
<glyph unicode="W" d="M229 0l35 864l80 570h107l-78 -564l-39 -772h28l234 680h149l46 -680h28l178 772l78 564h107l-80 -570l-207 -864h-197l-36 645h-19l-217 -645h-197z" />
<glyph unicode="X" d="M137 0l465 745l-231 689h121l190 -580l352 580h121l-426 -689l258 -745h-125l-211 639l-389 -639h-125z" />
<glyph unicode="Y" d="M348 1434h119l213 -609l383 609h117l-465 -752l-97 -682h-108l96 682z" />
<glyph unicode="Z" d="M195 0l14 111l795 1224h-590l12 99h707l-15 -111l-792 -1225h618l-14 -98h-735z" />
<glyph unicode="[" d="M350 -369l254 1803h348l-16 -105h-240l-223 -1599h240l-15 -99h-348z" />
<glyph unicode="\" d="M381 1434h100l439 -1805h-103z" />
<glyph unicode="]" d="M350 -369l15 99h241l223 1599h-241l16 105h348l-254 -1803h-348z" />
<glyph unicode="^" d="M317 717l373 717h96l172 -717h-81l-150 600h-10l-318 -600h-82z" />
<glyph unicode="_" horiz-adv-x="1224" d="M-20 -264l10 76h1222l-10 -76h-1222z" />
<glyph unicode="`" d="M539 1413h143l184 -250h-110z" />
<glyph unicode="a" d="M246 297l61 430q19 134 130 225.5t265 91.5q201 0 347 -63l-111 -788q-1 -10 -1 -20q0 -30 14 -55q19 -33 57 -40l-13 -88q-54 1 -96 38t-59 97q-65 -78 -141 -111.5t-146 -33.5q-154 0 -240 92q-70 75 -70 178q0 23 3 47zM348 309q-3 -18 -2 -35q0 -78 52 -136 q64 -72 167 -72q106 0 191.5 72.5t99.5 170.5l84 596q-124 53 -250 53q-103 0 -186.5 -72.5t-97.5 -170.5z" />
<glyph unicode="b" d="M254 41l197 1393h96l-72 -510q52 52 127.5 86t149.5 34q156 0 244 -92q72 -76 72 -179q0 -22 -3 -46l-59 -430q-19 -133 -133.5 -225t-270.5 -92q-198 0 -348 61zM362 121q116 -55 252 -55q106 0 194.5 73t100.5 170l58 406q2 16 2 32q-1 77 -57 137q-68 72 -175 72 t-193 -72t-100 -169z" />
<glyph unicode="c" d="M260 299l62 428q19 134 131 225.5t272 91.5q147 0 231 -90q74 -80 73 -193q0 -15 -1 -30h-100q1 13 1 25q0 82 -52 137q-60 63 -164 63q-108 0 -194.5 -71.5t-100.5 -169.5l-58 -406q-2 -17 -2 -33q0 -76 54 -136q66 -72 176 -72q104 0 187 66.5t102 164.5h98 q-27 -138 -137.5 -228.5t-262.5 -90.5q-161 0 -247 92q-71 75 -71 180q0 23 3 47z" />
<glyph unicode="d" d="M209 297l59 430q19 134 131.5 225.5t270.5 91.5q74 0 140 -32.5t105 -87.5l72 510h100l-202 -1434h-101l17 109q-122 -129 -281 -129q-158 0 -244 92q-70 75 -70 178q0 23 3 47zM309 309q-2 -15 -1 -30q0 -79 54 -139q64 -72 170 -72q107 0 195 72t100 169l58 406 q2 17 2 33q0 76 -54 136q-66 72 -174 72t-193 -71.5t-99 -169.5z" />
<glyph unicode="e" d="M322 297l61 430q19 134 132.5 225.5t272.5 91.5h25q119 0 203 -86q71 -72 71 -164q0 -17 -2 -34l-4 -33q-13 -92 -80 -153t-188 -103l-387 -133l-4 -35q-2 -17 -2 -33q0 -76 54 -134q66 -70 175 -70q150 0 256 32l-14 -92q-129 -26 -250 -26q-158 0 -248 92 q-74 76 -74 180q0 22 3 45zM440 438l396 135q66 23 103.5 59.5t43.5 82.5l4 24q2 13 2 26q0 69 -54 126q-64 67 -153 67h-8q-108 0 -194.5 -72.5t-100.5 -170.5z" />
<glyph unicode="f" d="M399 936l13 88h209l20 145q17 118 115 202.5t219 84.5q96 0 168 -37l-66 -73q-37 22 -114 22q-79 0 -144 -57t-76 -133l-22 -154h352l-12 -88h-352l-183 -1305h-100l182 1305h-209z" />
<glyph unicode="g" d="M205 -154q15 113 125 183l145 82l47 22q-16 -2 -31 -2q-71 0 -131 36q-71 43 -104 115q-23 53 -23 108q0 21 3 42l40 289q19 139 130.5 231t269.5 92q204 0 354 -63l-149 -1055q-19 -136 -129 -225.5t-273 -89.5q-133 0 -211 64q-65 54 -65 138q0 16 2 33zM305 -150 q-1 -9 -1 -18q0 -52 40 -91q47 -46 133 -46h12q114 0 197.5 72.5t97.5 173.5l47 333q-42 -84 -137 -133l-307 -170q-29 -16 -52.5 -47.5t-29.5 -73.5zM336 444q-2 -18 -2 -34q0 -78 52 -137q65 -72 173 -72q106 0 194.5 74t102.5 171l64 459q-118 53 -256 53 q-107 0 -192 -73.5t-99 -175.5z" />
<glyph unicode="h" d="M236 0l200 1434h101l-72 -510q57 53 130.5 86.5t145.5 33.5q157 0 245 -92q72 -76 72 -179q0 -22 -3 -46l-103 -727h-100l100 715q2 17 2 34q0 77 -54 135q-66 72 -173 72t-192 -71t-99 -166l-100 -719h-100z" />
<glyph unicode="i" d="M254 0l12 88h328l119 848h-328l14 88h430l-133 -936h291l-12 -88h-721zM743 1270l21 143h135l-20 -143h-136z" />
<glyph unicode="j" d="M84 -123q9 60 47 121.5t109 103.5l424 256q16 10 31.5 22.5t22.5 19.5l7 8l74 528h-383l12 88h485l-153 -1094q-19 -130 -143 -224.5t-271 -94.5q-127 0 -202 75q-62 63 -62 154q0 18 2 37zM180 -121q-2 -13 -2 -26q0 -57 40 -103q50 -55 138 -55h15q112 0 194.5 74 t96.5 176l47 350q-27 -25 -50 -39l-378 -227q-88 -52 -101 -150zM831 1270l21 143h131l-20 -143h-132z" />
<glyph unicode="k" d="M340 0l201 1434h98l-201 -1434h-98zM514 545l492 479h131l-490 -479l379 -545h-131z" />
<glyph unicode="l" d="M242 0l12 88h291l176 1258h-227l12 88h330l-189 -1346h311l-12 -88h-704z" />
<glyph unicode="m" d="M150 0l143 1024h92l-10 -68q29 39 75 63.5t99 24.5q61 0 106.5 -34.5t59.5 -69.5q31 40 84.5 72t118.5 32q84 0 134 -57q41 -47 42 -110q0 -14 -2 -29l-119 -848h-99l117 834q1 9 1 17q0 39 -24 69q-30 36 -81 36q-50 0 -100 -47t-60 -116l-111 -793h-102l117 829 q1 8 1 16q0 44 -28 75q-33 36 -92 36q-48 0 -96.5 -48.5t-57.5 -110.5l-110 -797h-98z" />
<glyph unicode="n" d="M219 0l143 1024h99l-15 -106q50 53 137 89.5t169 36.5q134 0 218 -94q68 -76 68 -176q0 -23 -4 -47l-100 -727h-98l98 711q3 18 3 36q0 77 -51 137q-62 72 -163 72q-107 0 -199.5 -69.5t-105.5 -167.5l-101 -719h-98z" />
<glyph unicode="o" d="M227 297l62 430q19 134 131 225.5t272 91.5q158 0 244 -92q71 -75 71 -178q0 -23 -3 -47l-62 -430q-19 -134 -130 -225.5t-269 -91.5q-161 0 -248 92q-71 75 -71 178q0 23 3 47zM328 309q-2 -17 -2 -33q0 -76 54 -136q66 -72 175 -72q106 0 191.5 71.5t99.5 169.5l57 406 q2 17 2 34q1 77 -53 135q-66 72 -174 72t-193.5 -71.5t-99.5 -169.5z" />
<glyph unicode="p" d="M227 -369l195 1393h98l-14 -102q59 54 132.5 88t145.5 34q158 0 244 -92q71 -75 71 -178q0 -23 -3 -47l-62 -430q-19 -134 -131 -225.5t-270 -91.5q-72 0 -137 34t-105 86l-65 -469h-99zM420 309q-2 -17 -2 -34q0 -77 54 -135q65 -72 173 -72t193.5 71.5t99.5 169.5 l57 406q2 17 2 34q0 77 -53 135q-66 72 -172 72t-193.5 -72t-101.5 -169z" />
<glyph unicode="q" d="M180 297l62 430q19 133 133 225t270 92q200 0 346 -61l-188 -1352h-96l65 469q-54 -52 -129 -86t-149 -34q-156 0 -244 92q-73 76 -73 179q0 22 3 46zM279 309q-2 -16 -2 -32q0 -77 57 -137q69 -72 176 -72q106 0 191.5 71.5t99.5 169.5l84 594q-116 55 -252 55 q-106 0 -194.5 -73t-102.5 -170z" />
<glyph unicode="r" d="M117 0l12 88h213l131 936h102l-16 -119q37 51 115 93t155 42q58 0 104 -17t74.5 -44t46.5 -63t24 -72q5 -28 5 -55v-17h-104q1 12 1 23q0 65 -39 109q-46 52 -132 52t-174.5 -73.5t-99.5 -147.5l-91 -647h408l-12 -88h-723z" />
<glyph unicode="s" d="M246 287h100q-2 -15 -2 -30q0 -72 50 -125q60 -64 155 -64h12q92 0 163 55t83 139q2 13 2 26q-1 32 -13 58q-18 38 -51.5 61.5t-78 46.5t-91.5 40.5t-91 43.5t-77 56q-33 28 -49 76q-11 32 -11 69q0 19 3 39q17 119 118 192.5t232 73.5q72 0 128 -26t87.5 -67t46.5 -87 q13 -41 13 -81v-11h-105q1 9 1 17q-1 67 -49 114q-54 53 -142 53q-78 0 -147.5 -47.5t-79.5 -117.5q-2 -11 -2 -22q-1 -33 13 -59q18 -36 52.5 -57.5t79 -43.5t91.5 -40t91 -45.5t76 -60.5t48 -85q10 -33 10 -73q0 -23 -3 -47q-17 -115 -124 -196.5t-234 -81.5h-21 q-142 0 -222 92q-65 75 -65 171q0 21 3 44z" />
<glyph unicode="t" d="M313 936l13 88h157l39 287h99l-39 -287h495l-12 -88h-496l-92 -655q-2 -14 -2 -28q1 -61 43 -115q52 -68 148 -68q84 0 152 60t79 126h92q-10 -66 -59 -130t-124 -105t-151 -41q-144 0 -219 90q-60 73 -60 168q0 23 3 47l92 651h-158z" />
<glyph unicode="u" d="M231 297l103 727h98l-100 -711q-3 -18 -3 -36q0 -77 51 -137q62 -72 163 -72q107 0 199.5 69.5t105.5 167.5l102 719h99l-146 -1024h-98l16 106q-52 -54 -138.5 -90t-168.5 -36q-134 0 -218 94q-69 76 -69 176q0 23 4 47z" />
<glyph unicode="v" d="M279 272l104 752h96l-104 -750q-2 -15 -2 -30q0 -67 45 -117q55 -61 133 -61q125 0 233 108t131 266l43 305q3 20 3 39q0 54 -24 94q-32 54 -89 70l14 94q44 -7 82.5 -28.5t68.5 -55.5q29 -34 43 -86q8 -31 9 -65q0 -23 -4 -47l-45 -318q-17 -118 -80.5 -222.5 t-168.5 -172t-226 -67.5q-127 0 -204 84q-62 67 -62 160q0 23 4 48z" />
<glyph unicode="w" d="M164 227l110 797h99l-113 -807q-2 -13 -2 -25q0 -48 29 -82q36 -44 98 -44q61 0 112 44.5t60 106.5l113 807h102l-113 -807q-2 -12 -2 -22q1 -49 33 -85q40 -44 101 -44q64 0 118 50.5t62 108.5l76 529q3 21 3 40q0 53 -21 89q-28 49 -85 65l14 94q97 -14 152 -85 q43 -55 43 -138q0 -24 -4 -51l-76 -541q-15 -103 -100 -175t-187 -72q-74 0 -124 35.5t-68 68.5q-96 -104 -219 -104q-102 0 -164 72q-50 58 -50 136q0 19 3 39z" />
<glyph unicode="x" d="M166 0l383 524l-225 500h116l183 -416l295 416h118l-366 -500l235 -524h-117l-190 438l-313 -438h-119z" />
<glyph unicode="y" d="M207 -154q9 59 43.5 107t87.5 78l180 102q-10 -2 -24 -2q-121 0 -197 91q-62 74 -62 169q0 21 3 43l84 590h98l-82 -578q-2 -17 -2 -34q0 -77 53 -138q65 -73 172 -73q106 0 194.5 74t102.5 171l82 578h98l-153 -1098q-21 -136 -131 -225.5t-273 -89.5q-133 0 -211 64 q-65 54 -65 138q0 16 2 33zM307 -150q-1 -9 -1 -18q0 -52 40 -91q48 -46 135 -46h13q114 0 197 72.5t97 173.5l46 333q-15 -41 -58.5 -77.5t-79.5 -55.5l-301 -168q-30 -15 -55.5 -48t-32.5 -75z" />
<glyph unicode="z" d="M209 -123q9 61 46.5 122t109.5 103l405 242q-40 40 -80 56t-96 16h-164l16 114l437 406h-502l12 88h602l-18 -123l-445 -399h84q150 0 236 -96q71 -78 71 -179q0 -22 -3 -45l-35 -252q-19 -130 -143 -224.5t-271 -94.5q-127 -1 -202 75q-63 63 -63 154q0 18 3 37z M303 -121l-2 -22q1 -59 43 -107q50 -56 137 -55h15q112 0 194 74t96 176l31 225q3 17 3 35q0 33 -11 69l-403 -245q-90 -56 -103 -150z" />
<glyph unicode="{" d="M414 496l14 98q49 3 87 41t46 90l51 367q20 140 138 245.5t260 116.5l-15 -102q-105 -4 -183 -79t-93 -183l-49 -349q-10 -69 -57.5 -125t-94.5 -67l-2 -8q44 -13 76 -69.5t22 -125.5l-53 -375q-14 -107 43 -182.5t160 -79.5l-12 -98q-146 3 -231.5 108.5t-63.5 255.5 l53 387q8 52 -19 91.5t-77 42.5z" />
<glyph unicode="|" d="M477 -369l254 1803h94l-254 -1803h-94z" />
<glyph unicode="}" d="M291 -389l12 98q106 4 184.5 79.5t92.5 182.5l53 375q10 69 57 125.5t94 69.5l2 8q-44 11 -76 67t-22 125l49 349q15 108 -41 183t-161 79l14 102q139 -11 227 -116t68 -246l-51 -367q-8 -52 19.5 -90t76.5 -41l-15 -98q-50 -3 -87.5 -42.5t-45.5 -91.5l-53 -387 q-22 -150 -136.5 -255.5t-260.5 -108.5z" />
<glyph unicode="~" d="M184 512q26 82 103.5 141.5t175.5 59.5q50 0 108 -19t102 -42.5t97 -42.5t94 -19q54 0 98 31.5t70 74.5h94q-32 -80 -107.5 -140t-166.5 -60q-62 0 -139 30t-147.5 60t-116.5 30q-61 0 -104.5 -30t-68.5 -74h-92z" />
<glyph unicode="&#xa0;" />
<glyph unicode="&#xa1;" d="M479 -408l158 1125h106l-157 -1125h-107zM643 881l21 143h143l-21 -143h-143z" />
<glyph unicode="&#xa2;" d="M264 315l55 402q18 124 119 212t252 103l15 98h100l-17 -102q116 -23 182.5 -109.5t55.5 -197.5h-98q8 99 -52.5 162t-164.5 63q-107 0 -194 -72.5t-101 -168.5l-54 -379q-12 -97 54 -169.5t174 -72.5q104 0 188 67t103 164h98q-23 -121 -113.5 -207t-220.5 -108 l-14 -106h-101l15 102q-147 13 -223.5 102.5t-57.5 216.5z" />
<glyph unicode="&#xa3;" d="M238 0l14 102h63l70 504h-133l14 105h133l62 430q19 129 128 221t245 92q135 0 219 -92t65 -221l-10 -70h-111l13 80q10 85 -44.5 145t-140.5 60q-92 0 -164 -60t-83 -145l-64 -440h277l-15 -105h-276l-70 -504h541l-15 -102h-718z" />
<glyph unicode="&#xa4;" d="M166 240l113 102q-70 125 -52 260q18 131 127 266l-86 101l84 73l86 -100q137 88 277 88q139 0 252 -88l114 100l64 -73l-115 -101q72 -128 53 -266q-18 -134 -125 -260l84 -102l-84 -74l-86 100q-143 -92 -276 -92t-252 92l-115 -100zM328 604q-19 -133 63 -231 q85 -97 219 -97q132 0 242 98t129 230q19 133 -64 230.5t-215 97.5t-243.5 -97.5t-130.5 -230.5z" />
<glyph unicode="&#xa5;" d="M238 434l14 103h332l18 135l-16 49h-310l17 104h262l-197 609h121l195 -629l375 629h120l-364 -609h260l-16 -104h-310l-28 -49l-19 -135h332l-14 -103h-332l-62 -434h-108l61 434h-331z" />
<glyph unicode="&#xa6;" d="M477 -369l101 709h94l-101 -709h-94zM631 727l100 707h94l-100 -707h-94z" />
<glyph unicode="&#xa7;" d="M285 258h106q-18 -176 174 -176h8q98 0 151 46t62 108q7 48 -18.5 87t-71 67t-101.5 54.5t-111.5 57.5t-100 68t-67.5 95t-13 130q10 71 53 133.5t107 105.5q-48 80 -37 166q16 108 107 181t233 73h16q146 0 209.5 -75t50.5 -203h-106q14 176 -174 176h-10 q-97 0 -150.5 -47t-62.5 -107q-6 -43 13 -79t55 -60.5t83 -50.5t96.5 -47.5t95.5 -53t80.5 -66t51.5 -87t8 -115.5q-19 -141 -158 -242q46 -80 35 -164q-16 -109 -107 -181t-235 -72h-14q-148 0 -210 74t-48 204zM416 811q-8 -53 11.5 -93.5t63 -71t90 -54.5t110 -58.5 t106.5 -68.5q101 62 112 156q8 53 -12 94.5t-63.5 72.5t-90 55.5t-110 58.5t-105.5 65q-101 -60 -112 -156z" />
<glyph unicode="&#xa8;" d="M455 1270l18 143h125l-18 -143h-125zM815 1270l19 143h124l-18 -143h-125z" />
<glyph unicode="&#xa9;" d="M205 719l41 280q26 190 171.5 324.5t325.5 134.5h27q117 0 208.5 -61.5t135.5 -167t27 -230.5l-41 -280q-17 -124 -90.5 -229.5t-182 -166.5t-225.5 -61h-27q-118 0 -209.5 61.5t-134.5 166.5t-26 229zM289 715q-22 -153 65.5 -261t233.5 -108h26q146 0 262 108t138 261 l41 289q22 154 -64.5 262t-232.5 108h-27q-146 0 -262.5 -108t-138.5 -262zM442 733l37 264q12 85 81.5 144t166.5 59q86 0 137 -58t43 -143h-73q6 59 -26.5 93t-90.5 34q-62 0 -111 -45.5t-57 -105.5l-31 -223q-9 -60 27 -105t98 -45q54 0 100.5 36.5t61.5 90.5h72 q-18 -89 -85 -146t-159 -57q-98 0 -150.5 59.5t-40.5 147.5z" />
<glyph unicode="&#xaa;" d="M416 614l12 82h438l-12 -82h-438zM453 1004q10 80 80 136t161 62l150 10l6 35q6 49 -21.5 89t-80.5 40q-44 0 -81 -29.5t-51 -72.5h-98q25 81 90.5 130.5t151.5 49.5q101 0 149 -57t35 -144l-61 -434h-95l7 39q-65 -51 -156 -51q-84 2 -141 59t-45 138zM547 1006 q-6 -44 27.5 -80.5t80.5 -36.5q59 0 106 32.5t52 73.5l21 135l-150 -8q-50 -3 -90.5 -36.5t-46.5 -79.5z" />
<glyph unicode="&#xab;" d="M311 598l283 311h108l-284 -311l198 -311h-108zM647 598l285 311h108l-284 -311l198 -311h-108z" />
<glyph unicode="&#xac;" d="M229 739l15 105h897l-78 -545h-102l63 440h-795z" />
<glyph unicode="&#xad;" />
<glyph unicode="&#xae;" d="M205 715l39 280q28 191 173.5 325t325.5 134h27q117 0 208.5 -61.5t135 -167t25.5 -230.5l-39 -280q-17 -124 -90.5 -229.5t-182 -166.5t-225.5 -61h-27q-118 0 -209.5 61.5t-134.5 166.5t-26 229zM289 711q-22 -153 65.5 -261t233.5 -108h26q146 0 262 108t138 261 l41 288q22 154 -64.5 262.5t-232.5 108.5h-27q-146 0 -262.5 -108.5t-138.5 -262.5zM442 532l93 654h227q58 0 96 -45.5t29 -104.5l-15 -104q-6 -42 -37.5 -81.5t-70.5 -57.5l74 -261h-80l-72 248h-137l-35 -248h-72zM557 846h154q31 0 59.5 24.5t32.5 57.5l14 110 q4 33 -16 56.5t-51 23.5h-154z" />
<glyph unicode="&#xaf;" d="M414 1276l12 90h571l-12 -90h-571z" />
<glyph unicode="&#xb0;" d="M412 1169q15 117 110.5 201t212.5 84t189 -84t57 -201q-17 -117 -113 -200.5t-213 -83.5t-188.5 83.5t-54.5 200.5zM492 1167q-11 -82 40 -141t134 -59q82 0 149.5 59t77.5 141q12 83 -39 142t-133 59q-83 0 -150 -59t-79 -142z" />
<glyph unicode="&#xb1;" d="M145 154l15 104h897l-15 -104h-897zM213 643l14 102h396l41 279h104l-41 -279h395l-14 -102h-395l-39 -276h-105l39 276h-395z" />
<glyph unicode="&#xb2;" d="M403 659l13 82q8 56 34.5 103t62.5 80.5t78.5 63t84.5 56.5t77.5 55t61 65.5t31.5 80.5q6 53 -24 90t-81 37q-57 0 -102 -42t-57 -107h-86q20 103 93.5 167t164.5 64q88 0 143.5 -62t42.5 -155q-7 -51 -33 -94.5t-62.5 -75t-79 -60t-84.5 -56.5t-78 -57.5t-61.5 -68.5 t-31.5 -84h360l-12 -82h-455z" />
<glyph unicode="&#xb3;" d="M436 864l2 17h92l-2 -17q-8 -59 25 -99t90 -40t100.5 40.5t51.5 98.5l16 121q8 45 -17 77t-67 32h-84l12 82l174 176h-276l10 82h381l-10 -78l-174 -178q67 -18 109 -71.5t32 -121.5l-16 -121q-12 -89 -86 -155t-162 -66h-12q-90 0 -145.5 64t-43.5 157z" />
<glyph unicode="&#xb4;" d="M504 1163l254 250h143l-287 -250h-110z" />
<glyph unicode="&#xb5;" d="M156 -369l196 1393h97l-101 -711q-14 -101 43.5 -173t153.5 -72q103 0 191.5 69.5t101.5 167.5l102 719h96l-118 -840q-6 -39 13 -69.5t54 -36.5l-12 -88q-56 2 -97 37.5t-51 93.5q-69 -73 -135 -107t-164 -34q-134 0 -207 131l-67 -480h-96z" />
<glyph unicode="&#xb6;" d="M383 1044q15 106 79 195.5t160 142t201 52.5h295l-254 -1803h-92l240 1712h-125l-240 -1712h-92l143 1028q-154 14 -245 122t-70 263z" />
<glyph unicode="&#xb7;" d="M573 528l21 144h143l-20 -144h-144z" />
<glyph unicode="&#xb8;" d="M438 -369l11 82h114q28 0 49.5 19t26.5 47q3 28 -13 45.5t-44 17.5h-93l23 158h82l-10 -74h22q60 0 97.5 -43.5t29.5 -103.5q-9 -61 -58.5 -104.5t-109.5 -43.5h-127z" />
<glyph unicode="&#xb9;" d="M608 1352l13 82h239l-108 -775h-97l97 693h-144z" />
<glyph unicode="&#xba;" d="M401 614l13 82h452l-12 -82h-453zM453 1008l34 245q12 84 86.5 142.5t174.5 58.5q98 0 154 -58.5t44 -142.5l-35 -245q-11 -84 -84 -142.5t-172 -58.5q-100 0 -156.5 58t-45.5 143zM549 1008q-6 -47 29 -83t90 -36q53 0 98 36.5t51 82.5l35 245q6 47 -29 83t-90 36 q-53 0 -98 -36.5t-51 -82.5z" />
<glyph unicode="&#xbb;" d="M268 287l285 311l-199 311h109l199 -311l-285 -311h-109zM606 287l285 311l-199 311h109l196 -311l-282 -311h-109z" />
<glyph unicode="&#xbc;" d="M125 0l919 1434h84l-919 -1434h-84zM289 1352l10 82h240l-109 -775h-96l98 693h-143zM532 143l13 86l325 545h99l-330 -545h258l31 222h92l-31 -222h70l-12 -86h-70l-21 -143h-92l21 143h-353z" />
<glyph unicode="&#xbd;" d="M96 0l920 1434h84l-920 -1434h-84zM295 1352l10 82h240l-109 -775h-96l98 693h-143zM575 0l13 82q8 56 34.5 103t62.5 80.5t78 63t84 56.5t77.5 55t60.5 65.5t31 80.5q8 53 -22 90t-81 37q-57 0 -103 -43t-56 -107h-86q18 102 91.5 167t164.5 65q88 0 144 -62t44 -155 q-10 -69 -55.5 -125t-103.5 -94.5t-116 -76t-102 -88.5t-53 -112h360l-12 -82h-455z" />
<glyph unicode="&#xbe;" d="M195 860l2 17h92l-2 -17q-8 -59 24.5 -99t89.5 -40t100.5 40.5t51.5 98.5l18 121q6 45 -19 77t-67 32h-84l13 81l174 177h-277l11 82h380l-10 -78l-174 -178q67 -18 110 -71.5t34 -121.5l-19 -121q-12 -89 -86 -155t-162 -66h-12q-90 0 -145 64t-43 157zM203 -4l919 1434 h84l-919 -1434h-84zM557 139l12 86l326 545h98l-329 -545h258l30 221h92l-30 -221h69l-12 -86h-70l-20 -143h-92l20 143h-352z" />
<glyph unicode="&#xbf;" d="M219 -70q11 77 38.5 139.5t63.5 106.5t77.5 84.5t84 83.5t80 92t67 121t42.5 160h104q-15 -99 -45.5 -179t-68 -133.5t-79.5 -98.5t-83.5 -84.5t-76.5 -80.5t-61.5 -97t-35.5 -124q-15 -105 49.5 -176.5t171.5 -71.5q108 0 191.5 74.5t103.5 185.5h106 q-26 -160 -145 -261t-271 -101q-156 0 -246.5 99t-66.5 261zM674 881l20 143h144l-21 -143h-143z" />
<glyph unicode="&#xc0;" d="M197 0l77 561l379 873h221l134 -873l-78 -561h-107l68 489h-520l-68 -489h-106zM395 588h500l-107 747h-73zM516 1823h143l185 -250h-111z" />
<glyph unicode="&#xc1;" d="M197 0l77 561l379 873h221l134 -873l-78 -561h-107l68 489h-520l-68 -489h-106zM395 588h500l-107 747h-73zM666 1573l254 250h143l-287 -250h-110z" />
<glyph unicode="&#xc2;" d="M197 0l77 561l379 873h221l134 -873l-78 -561h-107l68 489h-520l-68 -489h-106zM395 588h500l-107 747h-73zM487 1573l218 250h143l151 -250h-112l-121 178l-168 -178h-111z" />
<glyph unicode="&#xc3;" d="M197 0l77 561l379 873h221l134 -873l-78 -561h-107l68 489h-520l-68 -489h-106zM395 588h500l-107 747h-73zM444 1618q18 71 78.5 128.5t126.5 57.5q47 0 126.5 -51t119.5 -51q35 0 60.5 27t35.5 63h86q-18 -72 -76 -129t-120 -57q-40 0 -85 25.5t-87 51t-74 25.5 q-36 0 -65 -27t-40 -63h-86z" />
<glyph unicode="&#xc4;" d="M197 0l77 561l379 873h221l134 -873l-78 -561h-107l68 489h-520l-68 -489h-106zM395 588h500l-107 747h-73zM512 1679l18 144h125l-18 -144h-125zM872 1679l19 144h125l-19 -144h-125z" />
<glyph unicode="&#xc5;" d="M197 0l77 561l379 873h221l134 -873l-78 -561h-107l68 489h-520l-68 -489h-106zM395 588h500l-107 747h-73zM610 1706q9 63 59 107.5t111 44.5q62 0 101 -44.5t30 -107.5q-9 -61 -59.5 -105.5t-112.5 -44.5t-100 44.5t-29 105.5zM684 1706q-5 -33 14 -54.5t52 -21.5 q35 0 59 21.5t29 54.5q5 35 -14 56.5t-54 21.5q-34 0 -58 -21.5t-28 -56.5z" />
<glyph unicode="&#xc6;" d="M119 0l80 569l376 865h625l-12 -99h-361l-75 -528h311l-12 -98h-312l-86 -611h369l-14 -98h-476l68 489h-307l-68 -489h-106zM309 588h305l107 747h-88z" />
<glyph unicode="&#xc7;" d="M256 340l106 756q22 149 142 253.5t268 104.5h14q149 0 239.5 -104.5t68.5 -253.5h-107q14 108 -50 182t-171 74q-110 0 -196 -74.5t-101 -183.5l-107 -756q-15 -109 49.5 -184.5t174.5 -75.5q109 0 194.5 74.5t100.5 183.5l2 10h106l-2 -8q-20 -147 -136 -250t-263 -108 l-6 -54h22q60 0 97.5 -43.5t29.5 -103.5q-9 -61 -58.5 -104.5t-109.5 -43.5h-127l10 82h115q28 0 49.5 19t26.5 47q3 28 -13 45.5t-44 17.5h-93l21 144q-126 20 -198.5 120t-53.5 234z" />
<glyph unicode="&#xc8;" d="M217 0l203 1434h643l-14 -99h-537l-74 -528h488l-15 -98h-487l-86 -611h555l-14 -98h-662zM555 1823h143l185 -250h-111z" />
<glyph unicode="&#xc9;" d="M217 0l203 1434h643l-14 -99h-537l-74 -528h488l-15 -98h-487l-86 -611h555l-14 -98h-662zM645 1573l254 250h143l-286 -250h-111z" />
<glyph unicode="&#xca;" d="M217 0l203 1434h643l-14 -99h-537l-74 -528h488l-15 -98h-487l-86 -611h555l-14 -98h-662zM487 1573l218 250h143l151 -250h-112l-121 178l-168 -178h-111z" />
<glyph unicode="&#xcb;" d="M217 0l203 1434h643l-14 -99h-537l-74 -528h488l-15 -98h-487l-86 -611h555l-14 -98h-662zM514 1679l21 144h124l-20 -144h-125zM874 1679l21 144h125l-21 -144h-125z" />
<glyph unicode="&#xcc;" d="M178 0l15 98h319l174 1237h-319l14 99h741l-14 -99h-315l-175 -1237h316l-14 -98h-742zM539 1823h143l184 -250h-110z" />
<glyph unicode="&#xcd;" d="M178 0l15 98h319l174 1237h-319l14 99h741l-14 -99h-315l-175 -1237h316l-14 -98h-742zM690 1573l254 250h143l-286 -250h-111z" />
<glyph unicode="&#xce;" d="M178 0l15 98h319l174 1237h-319l14 99h741l-14 -99h-315l-175 -1237h316l-14 -98h-742zM514 1573l217 250h143l152 -250h-113l-120 178l-168 -178h-111z" />
<glyph unicode="&#xcf;" d="M178 0l15 98h319l174 1237h-319l14 99h741l-14 -99h-315l-175 -1237h316l-14 -98h-742zM541 1679l20 144h125l-20 -144h-125zM901 1679l21 144h125l-21 -144h-125z" />
<glyph unicode="&#xd0;" d="M246 709l12 98h125l88 627h352q149 0 239.5 -106t70.5 -255l-101 -713q-22 -150 -141 -255t-268 -105h-353l101 709h-125zM391 98h240q109 0 193.5 74.5t99.5 183.5l100 715q17 110 -47.5 185t-173.5 75h-240l-74 -524h220l-13 -98h-219z" />
<glyph unicode="&#xd1;" d="M184 0l201 1434h133l303 -1160l19 -92l6 2l4 99l162 1151h106l-200 -1434h-134l-303 1147l-20 104l-6 -2l-4 -112l-160 -1137h-107zM473 1618q18 72 78 129t125 57q47 0 126.5 -51t119.5 -51q35 0 61.5 27.5t36.5 62.5h86q-20 -72 -77.5 -129t-119.5 -57 q-40 0 -84.5 25.5t-86.5 51t-74 25.5q-36 0 -65 -27t-40 -63h-86z" />
<glyph unicode="&#xd2;" d="M219 340l107 756q20 149 139 253.5t268 104.5h39q149 0 239 -104.5t70 -253.5l-106 -758q-22 -149 -141.5 -253.5t-268.5 -104.5h-39q-149 0 -239 105.5t-68 254.5zM326 338q-15 -109 49 -184.5t172 -75.5h26q109 0 194.5 74.5t100.5 183.5l107 758q15 109 -49.5 183.5 t-173.5 74.5h-27q-109 0 -193.5 -74.5t-99.5 -183.5zM561 1823h144l184 -250h-111z" />
<glyph unicode="&#xd3;" d="M219 340l107 756q20 149 139 253.5t268 104.5h39q149 0 239 -104.5t70 -253.5l-106 -758q-22 -149 -141.5 -253.5t-268.5 -104.5h-39q-149 0 -239 105.5t-68 254.5zM326 338q-15 -109 49 -184.5t172 -75.5h26q109 0 194.5 74.5t100.5 183.5l107 758q15 109 -49.5 183.5 t-173.5 74.5h-27q-109 0 -193.5 -74.5t-99.5 -183.5zM651 1573l254 250h144l-287 -250h-111z" />
<glyph unicode="&#xd4;" d="M219 340l107 756q20 149 139 253.5t268 104.5h39q149 0 239 -104.5t70 -253.5l-106 -758q-22 -149 -141.5 -253.5t-268.5 -104.5h-39q-149 0 -239 105.5t-68 254.5zM326 338q-15 -109 49 -184.5t172 -75.5h26q109 0 194.5 74.5t100.5 183.5l107 758q15 109 -49.5 183.5 t-173.5 74.5h-27q-109 0 -193.5 -74.5t-99.5 -183.5zM514 1573l217 250h143l152 -250h-113l-120 178l-168 -178h-111z" />
<glyph unicode="&#xd5;" d="M219 340l107 756q22 149 141 253.5t268 104.5h39q149 0 239 -104.5t68 -253.5l-106 -758q-22 -149 -140.5 -253.5t-267.5 -104.5h-39q-149 0 -239 105.5t-70 254.5zM326 338q-15 -109 49 -184.5t172 -75.5h26q109 0 194.5 74.5t100.5 183.5l107 758q15 109 -48.5 183.5 t-172.5 74.5h-27q-109 0 -194.5 -74.5t-100.5 -183.5zM473 1618q18 71 78.5 128.5t126.5 57.5q47 0 126.5 -51t119.5 -51q35 0 60.5 27t35.5 63h86q-18 -72 -76 -129t-121 -57q-40 0 -84.5 25.5t-86.5 51t-74 25.5q-36 0 -65 -27t-40 -63h-86z" />
<glyph unicode="&#xd6;" d="M219 340l107 756q20 149 139 253.5t268 104.5h39q149 0 239 -104.5t70 -253.5l-106 -758q-22 -149 -141.5 -253.5t-268.5 -104.5h-39q-149 0 -239 105.5t-68 254.5zM326 338q-15 -109 49 -184.5t172 -75.5h26q109 0 194.5 74.5t100.5 183.5l107 758q15 109 -49.5 183.5 t-173.5 74.5h-27q-109 0 -193.5 -74.5t-99.5 -183.5zM543 1679l20 144h125l-20 -144h-125zM903 1679l21 144h125l-21 -144h-125z" />
<glyph unicode="&#xd7;" d="M236 297l346 301l-260 303l81 72l263 -301l344 301l63 -72l-346 -303l260 -301l-84 -74l-258 303l-346 -301z" />
<glyph unicode="&#xd8;" d="M231 340l107 756q22 149 141.5 253.5t268.5 104.5h38q105 0 185 -55l18 35h98l-51 -99q76 -106 58 -239l-107 -758q-22 -149 -141 -253.5t-268 -104.5h-39q-102 0 -185 55l-18 -35h-100l53 98q-75 108 -58 242zM338 338q-9 -67 10 -119l567 1079q-57 54 -149 54h-27 q-109 0 -194.5 -74.5t-100.5 -183.5zM410 131q59 -53 149 -53h27q109 0 194.5 74.5t100.5 183.5l106 758q9 70 -12 123z" />
<glyph unicode="&#xd9;" d="M219 340l154 1094h106l-153 -1096q-15 -109 49 -184.5t174 -75.5h24q109 0 194.5 74.5t100.5 183.5l154 1098h106l-153 -1096q-22 -149 -141.5 -253.5t-268.5 -104.5h-39q-148 0 -238.5 105.5t-68.5 254.5zM561 1823h144l184 -250h-111z" />
<glyph unicode="&#xda;" d="M219 340l154 1094h106l-153 -1096q-15 -109 49 -184.5t174 -75.5h24q109 0 194.5 74.5t100.5 183.5l154 1098h106l-153 -1096q-22 -149 -141.5 -253.5t-268.5 -104.5h-39q-148 0 -238.5 105.5t-68.5 254.5zM653 1573l254 250h144l-287 -250h-111z" />
<glyph unicode="&#xdb;" d="M219 340l154 1094h106l-153 -1096q-15 -109 49 -184.5t174 -75.5h24q109 0 194.5 74.5t100.5 183.5l154 1098h106l-153 -1096q-22 -149 -141.5 -253.5t-268.5 -104.5h-39q-148 0 -238.5 105.5t-68.5 254.5zM514 1573l217 250h143l152 -250h-113l-120 178l-168 -178h-111z " />
<glyph unicode="&#xdc;" d="M219 340l154 1094h106l-153 -1096q-15 -109 49 -184.5t174 -75.5h24q109 0 194.5 74.5t100.5 183.5l154 1098h106l-153 -1096q-22 -149 -141.5 -253.5t-268.5 -104.5h-39q-148 0 -238.5 105.5t-68.5 254.5zM543 1679l20 144h125l-20 -144h-125zM903 1679l21 144h125 l-21 -144h-125z" />
<glyph unicode="&#xdd;" d="M336 1434h119l211 -609l385 609h116l-467 -752l-96 -682h-108l96 682zM604 1573l254 250h143l-286 -250h-111z" />
<glyph unicode="&#xde;" d="M231 0l201 1434h107l-31 -217h258q123 0 199 -87.5t59 -211.5l-43 -312q-19 -126 -119 -213.5t-223 -87.5h-258l-43 -305h-107zM395 403h252q82 0 147.5 57.5t75.5 139.5l45 315q11 82 -39 140.5t-131 58.5h-251z" />
<glyph unicode="&#xdf;" d="M158 2l153 1090q22 151 137.5 256.5t258.5 105.5h16q140 0 224 -98.5t65 -229.5l-19 -139q-98 -8 -169.5 -53.5t-80.5 -110.5q-6 -43 7.5 -83t39 -72t57.5 -64t63.5 -67t56 -73.5t36 -90.5t3.5 -111q-17 -119 -111 -200.5t-215 -81.5q-115 0 -184 82t-52 200l2 12h99 l-4 -24q-10 -75 36 -128.5t121 -53.5q76 0 137 53.5t72 128.5q7 50 -6 94t-38.5 77t-57.5 65t-64 65.5t-57.5 70t-37 86.5t-3.5 109q13 89 87.5 149t172.5 76l8 48q17 119 -43.5 197.5t-165.5 78.5q-107 0 -193 -78.5t-103 -197.5l-154 -1088h-94z" />
<glyph unicode="&#xe0;" d="M246 297l61 430q19 134 130 225.5t265 91.5q201 0 347 -63l-111 -788q-6 -42 13 -75t57 -40l-13 -88q-54 1 -96 38t-59 97q-65 -78 -141 -111.5t-146 -33.5q-154 0 -240 91.5t-67 225.5zM348 309q-14 -98 49.5 -170.5t167.5 -72.5q106 0 191.5 72.5t99.5 170.5l84 596 q-124 53 -250 53q-103 0 -186.5 -72.5t-97.5 -170.5zM483 1413h144l184 -250h-111z" />
<glyph unicode="&#xe1;" d="M246 297l61 430q19 134 130 225.5t265 91.5q201 0 347 -63l-111 -788q-6 -42 13 -75t57 -40l-13 -88q-54 1 -96 38t-59 97q-65 -78 -141 -111.5t-146 -33.5q-154 0 -240 91.5t-67 225.5zM348 309q-14 -98 49.5 -170.5t167.5 -72.5q106 0 191.5 72.5t99.5 170.5l84 596 q-124 53 -250 53q-103 0 -186.5 -72.5t-97.5 -170.5zM639 1163l254 250h143l-286 -250h-111z" />
<glyph unicode="&#xe2;" d="M246 297l61 430q19 134 130 225.5t265 91.5q201 0 347 -63l-111 -788q-6 -42 13 -75t57 -40l-13 -88q-54 1 -96 38t-59 97q-65 -78 -141 -111.5t-146 -33.5q-154 0 -240 91.5t-67 225.5zM348 309q-14 -98 49.5 -170.5t167.5 -72.5q106 0 191.5 72.5t99.5 170.5l84 596 q-124 53 -250 53q-103 0 -186.5 -72.5t-97.5 -170.5zM475 1163l217 250h144l151 -250h-113l-120 178l-168 -178h-111z" />
<glyph unicode="&#xe3;" d="M246 297l61 430q19 134 130 225.5t265 91.5q201 0 347 -63l-111 -788q-6 -42 13 -75t57 -40l-13 -88q-54 1 -96 38t-59 97q-65 -78 -141 -111.5t-146 -33.5q-154 0 -240 91.5t-67 225.5zM348 309q-14 -98 49.5 -170.5t167.5 -72.5q106 0 191.5 72.5t99.5 170.5l84 596 q-124 53 -250 53q-103 0 -186.5 -72.5t-97.5 -170.5zM440 1208q18 72 79 129.5t126 57.5q47 0 126.5 -51.5t119.5 -51.5q35 0 60.5 27t35.5 63h86q-18 -72 -76 -129t-120 -57q-40 0 -85 25.5t-87 51t-74 25.5q-36 0 -65 -27t-40 -63h-86z" />
<glyph unicode="&#xe4;" d="M246 297l61 430q19 134 130 225.5t265 91.5q201 0 347 -63l-111 -788q-6 -42 13 -75t57 -40l-13 -88q-54 1 -96 38t-59 97q-65 -78 -141 -111.5t-146 -33.5q-154 0 -240 91.5t-67 225.5zM348 309q-14 -98 49.5 -170.5t167.5 -72.5q106 0 191.5 72.5t99.5 170.5l84 596 q-124 53 -250 53q-103 0 -186.5 -72.5t-97.5 -170.5zM508 1270l18 143h125l-18 -143h-125zM868 1270l19 143h125l-19 -143h-125z" />
<glyph unicode="&#xe5;" d="M246 297l61 430q19 134 130 225.5t265 91.5q201 0 347 -63l-111 -788q-6 -42 13 -75t57 -40l-13 -88q-54 1 -96 38t-59 97q-65 -78 -141 -111.5t-146 -33.5q-154 0 -240 91.5t-67 225.5zM348 309q-14 -98 49.5 -170.5t167.5 -72.5q106 0 191.5 72.5t99.5 170.5l84 596 q-124 53 -250 53q-103 0 -186.5 -72.5t-97.5 -170.5zM600 1296q9 63 59 107.5t111 44.5q62 0 101 -44.5t30 -107.5q-9 -61 -59.5 -105t-112.5 -44t-100 44t-29 105zM674 1296q-5 -33 13.5 -54t51.5 -21q35 0 59 21t29 54q5 35 -13.5 56.5t-53.5 21.5q-34 0 -58 -21.5 t-28 -56.5z" />
<glyph unicode="&#xe6;" d="M145 272l68 469q20 139 91.5 211t219.5 72h400q118 0 186 -77.5t53 -192.5q-14 -97 -70.5 -157.5t-174.5 -127.5l-242 -135l-12 -88q-11 -75 30.5 -129.5t118.5 -53.5q35 1 68 5.5t50 9t44.5 12.5t34.5 10l-13 -90q-106 -30 -198 -30q-67 0 -112.5 27t-57.5 61l-8 -68 h-91l13 70q-37 -51 -81 -70.5t-110 -19.5q-115 0 -170.5 79.5t-36.5 212.5zM242 279q-14 -99 20.5 -157.5t114.5 -58.5q79 0 125.5 59t60.5 161l96 655h-147q-100 0 -145 -53t-60 -160zM690 442l264 144q47 25 77 67t36 92q12 87 -33.5 140t-130.5 53h-141z" />
<glyph unicode="&#xe7;" d="M272 299l62 428q19 134 131 225.5t272 91.5q147 0 230.5 -90t72.5 -223h-100q9 99 -51 162t-164 63q-108 0 -194.5 -71.5t-100.5 -169.5l-57 -406q-14 -98 52 -169.5t175 -71.5q104 0 187 66.5t102 164.5h98q-27 -132 -129.5 -221t-245.5 -96l-8 -56h23q60 0 97.5 -43.5 t29.5 -103.5q-9 -61 -58.5 -104.5t-109.5 -43.5h-127l10 82h115q28 0 49 19t26 47q3 28 -13 45.5t-44 17.5h-92l20 142q-136 15 -206 103t-52 212z" />
<glyph unicode="&#xe8;" d="M285 297l61 430q19 134 133 225.5t273 91.5h24q120 0 204 -85.5t69 -198.5l-5 -33q-13 -92 -80 -153t-188 -103l-387 -133l-4 -35q-14 -97 52.5 -167t174.5 -70q150 0 256 32l-14 -92q-129 -26 -250 -26q-158 0 -248 91.5t-71 225.5zM403 438l396 135q66 23 103.5 59.5 t43.5 82.5l4 24q12 85 -52 152t-153 67h-8q-108 0 -194.5 -72.5t-100.5 -170.5zM539 1413h143l184 -250h-110z" />
<glyph unicode="&#xe9;" d="M285 297l61 430q19 134 133 225.5t273 91.5h24q120 0 204 -85.5t69 -198.5l-5 -33q-13 -92 -80 -153t-188 -103l-387 -133l-4 -35q-14 -97 52.5 -167t174.5 -70q150 0 256 32l-14 -92q-129 -26 -250 -26q-158 0 -248 91.5t-71 225.5zM403 438l396 135q66 23 103.5 59.5 t43.5 82.5l4 24q12 85 -52 152t-153 67h-8q-108 0 -194.5 -72.5t-100.5 -170.5zM504 1163l254 250h143l-287 -250h-110z" />
<glyph unicode="&#xea;" d="M285 297l61 430q19 134 133 225.5t273 91.5h24q120 0 204 -85.5t69 -198.5l-5 -33q-13 -92 -80 -153t-188 -103l-387 -133l-4 -35q-14 -97 52.5 -167t174.5 -70q150 0 256 32l-14 -92q-129 -26 -250 -26q-158 0 -248 91.5t-71 225.5zM403 438l396 135q66 23 103.5 59.5 t43.5 82.5l4 24q12 85 -52 152t-153 67h-8q-108 0 -194.5 -72.5t-100.5 -170.5zM430 1163l217 250h144l151 -250h-113l-120 178l-168 -178h-111z" />
<glyph unicode="&#xeb;" d="M285 297l61 430q19 134 133 225.5t273 91.5h24q120 0 204 -85.5t69 -198.5l-5 -33q-13 -92 -80 -153t-188 -103l-387 -133l-4 -35q-14 -97 52.5 -167t174.5 -70q150 0 256 32l-14 -92q-129 -26 -250 -26q-158 0 -248 91.5t-71 225.5zM403 438l396 135q66 23 103.5 59.5 t43.5 82.5l4 24q12 85 -52 152t-153 67h-8q-108 0 -194.5 -72.5t-100.5 -170.5zM455 1270l18 143h125l-18 -143h-125zM815 1270l19 143h124l-18 -143h-125z" />
<glyph unicode="&#xec;" d="M174 0l12 88h328l119 848h-328l14 88h431l-134 -936h291l-12 -88h-721zM475 1413h143l185 -250h-111z" />
<glyph unicode="&#xed;" d="M174 0l12 88h328l119 848h-328l14 88h431l-134 -936h291l-12 -88h-721zM602 1163l254 250h143l-286 -250h-111z" />
<glyph unicode="&#xee;" d="M174 0l12 88h328l119 848h-328l14 88h431l-134 -936h291l-12 -88h-721zM451 1163l217 250h143l152 -250h-113l-121 178l-168 -178h-110z" />
<glyph unicode="&#xef;" d="M174 0l12 88h328l119 848h-328l14 88h431l-134 -936h291l-12 -88h-721zM477 1270l21 143h125l-21 -143h-125zM838 1270l20 143h125l-20 -143h-125z" />
<glyph unicode="&#xf0;" d="M180 344l33 234q22 151 142.5 256.5t271.5 105.5h12q82 0 145.5 -46t89.5 -101l37 274q3 13 3.5 31t-1.5 26l-213 -73l15 90l180 65q-70 127 -199 127h-139l14 101h146q96 0 172 -52t115 -139l178 76l-15 -94l-145 -64q3 -30 -2 -92l-102 -727q-22 -151 -142.5 -256.5 t-271.5 -105.5h-12q-151 0 -242.5 106.5t-69.5 257.5zM287 342q-15 -110 50 -186t175 -76t196 75t103 185l33 235q15 107 -52 187t-161 80h-13q-110 0 -197 -78t-102 -189z" />
<glyph unicode="&#xf1;" d="M219 0l143 1024h99l-15 -106q50 53 137 89.5t169 36.5q134 0 217.5 -93.5t64.5 -223.5l-100 -727h-98l98 711q14 100 -48 172.5t-163 72.5q-107 0 -199.5 -69.5t-105.5 -167.5l-101 -719h-98zM381 1208q18 72 79 129.5t126 57.5q47 0 126 -51.5t119 -51.5q35 0 61 27.5 t36 62.5h86q-18 -72 -76 -129t-121 -57q-40 0 -85 25.5t-87 51t-74 25.5q-36 0 -64.5 -26.5t-39.5 -63.5h-86z" />
<glyph unicode="&#xf2;" d="M260 297q-19 -134 67.5 -225.5t247.5 -91.5q158 0 269.5 91.5t130.5 225.5l61 430q19 134 -67 225.5t-244 91.5q-160 0 -272 -91.5t-131 -225.5zM360 309l58 406q14 98 99.5 169.5t193.5 71.5t173.5 -71.5t51.5 -169.5l-57 -406q-14 -98 -99.5 -169.5t-191.5 -71.5 q-109 0 -175.5 71.5t-52.5 169.5zM459 1413h143l184 -250h-110z" />
<glyph unicode="&#xf3;" d="M260 297q-19 -134 67.5 -225.5t247.5 -91.5q158 0 269.5 91.5t130.5 225.5l61 430q19 134 -67 225.5t-244 91.5q-160 0 -272 -91.5t-131 -225.5zM360 309l58 406q14 98 99.5 169.5t193.5 71.5t173.5 -71.5t51.5 -169.5l-57 -406q-14 -98 -99.5 -169.5t-191.5 -71.5 q-109 0 -175.5 71.5t-52.5 169.5zM588 1163l254 250h143l-287 -250h-110z" />
<glyph unicode="&#xf4;" d="M260 297q-19 -134 67.5 -225.5t247.5 -91.5q158 0 269.5 91.5t130.5 225.5l61 430q19 134 -67 225.5t-244 91.5q-160 0 -272 -91.5t-131 -225.5zM360 309l58 406q14 98 99.5 169.5t193.5 71.5t173.5 -71.5t51.5 -169.5l-57 -406q-14 -98 -99.5 -169.5t-191.5 -71.5 q-109 0 -175.5 71.5t-52.5 169.5zM430 1163l217 250h144l151 -250h-113l-120 178l-168 -178h-111z" />
<glyph unicode="&#xf5;" d="M260 297q-19 -134 67.5 -225.5t247.5 -91.5q158 0 269.5 91.5t130.5 225.5l61 430q19 134 -67 225.5t-244 91.5q-160 0 -272 -91.5t-131 -225.5zM360 309l58 406q14 98 99.5 169.5t193.5 71.5t173.5 -71.5t51.5 -169.5l-57 -406q-14 -98 -99.5 -169.5t-191.5 -71.5 q-109 0 -175.5 71.5t-52.5 169.5zM387 1208q18 72 79 129.5t126 57.5q47 0 126.5 -51.5t119.5 -51.5q35 0 60.5 27t35.5 63h86q-18 -72 -76 -129t-121 -57q-40 0 -84.5 25.5t-86.5 51t-74 25.5q-36 0 -65 -27t-40 -63h-86z" />
<glyph unicode="&#xf6;" d="M260 297q-19 -134 67.5 -225.5t247.5 -91.5q158 0 269.5 91.5t130.5 225.5l61 430q19 134 -67 225.5t-244 91.5q-160 0 -272 -91.5t-131 -225.5zM360 309l58 406q14 98 99.5 169.5t193.5 71.5t173.5 -71.5t51.5 -169.5l-57 -406q-14 -98 -99.5 -169.5t-191.5 -71.5 q-109 0 -175.5 71.5t-52.5 169.5zM455 1270l18 143h125l-18 -143h-125zM815 1270l19 143h124l-18 -143h-125z" />
<glyph unicode="&#xf7;" d="M199 526l14 103h895l-14 -103h-895zM522 162l21 143h143l-20 -143h-144zM618 854l21 143h143l-20 -143h-144z" />
<glyph unicode="&#xf8;" d="M264 0l60 88q-64 87 -48 209l62 430q19 134 126.5 225.5t260.5 91.5q105 0 188 -53l21 33h96l-57 -90q62 -90 47 -207l-62 -430q-19 -134 -126 -225.5t-257 -91.5q-100 0 -194 53l-21 -33h-96zM373 309q-7 -58 16 -119l467 713q-62 53 -145 53q-103 0 -185 -71.5 t-96 -169.5zM438 119q63 -51 150 -51q102 0 183 71.5t95 169.5l58 406q8 59 -17 121z" />
<glyph unicode="&#xf9;" d="M262 297l103 727h98l-101 -711q-14 -100 48 -172.5t163 -72.5q107 0 200 69.5t106 167.5l102 719h98l-145 -1024h-98l16 106q-52 -54 -138.5 -90t-168.5 -36q-134 0 -218 93.5t-65 223.5zM467 1413h143l185 -250h-111z" />
<glyph unicode="&#xfa;" d="M262 297l103 727h98l-101 -711q-14 -100 48 -172.5t163 -72.5q107 0 200 69.5t106 167.5l102 719h98l-145 -1024h-98l16 106q-52 -54 -138.5 -90t-168.5 -36q-134 0 -218 93.5t-65 223.5zM571 1163l254 250h144l-287 -250h-111z" />
<glyph unicode="&#xfb;" d="M262 297l103 727h98l-101 -711q-14 -100 48 -172.5t163 -72.5q107 0 200 69.5t106 167.5l102 719h98l-145 -1024h-98l16 106q-52 -54 -138.5 -90t-168.5 -36q-134 0 -218 93.5t-65 223.5zM430 1163l217 250h144l151 -250h-113l-120 178l-168 -178h-111z" />
<glyph unicode="&#xfc;" d="M262 297l103 727h98l-101 -711q-14 -100 48 -172.5t163 -72.5q107 0 200 69.5t106 167.5l102 719h98l-145 -1024h-98l16 106q-52 -54 -138.5 -90t-168.5 -36q-134 0 -218 93.5t-65 223.5zM455 1270l18 143h125l-18 -143h-125zM815 1270l19 143h124l-18 -143h-125z" />
<glyph unicode="&#xfd;" d="M315 1024h103l178 -866l424 866h104l-698 -1393h-96l192 383zM612 1163l256 250h144l-289 -250h-111z" />
<glyph unicode="&#xfe;" d="M182 -369l254 1805h94l-73 -514q122 122 266 122q151 0 232.5 -91.5t62.5 -225.5l-60 -430q-19 -134 -126.5 -225.5t-258.5 -91.5q-69 0 -129.5 33.5t-101.5 86.5l-66 -469h-94zM371 309q-12 -98 49 -169.5t164 -71.5t185.5 71.5t94.5 169.5l58 406q14 98 -47.5 169.5 t-163.5 71.5q-101 0 -184.5 -69t-96.5 -164z" />
<glyph unicode="&#xff;" d="M315 1024h103l178 -866l424 866h104l-698 -1393h-96l192 383zM512 1270l20 143h125l-20 -143h-125zM872 1270l21 143h125l-21 -143h-125z" />
<glyph unicode="&#x152;" d="M154 362l100 711q20 150 135.5 255.5t263.5 105.5h559l-12 -99h-364l-76 -528h315l-12 -98h-315l-86 -611h374l-14 -98h-569q-148 0 -234.5 106t-64.5 256zM260 360q-15 -112 44.5 -187t168.5 -75h82l172 1233h-82q-109 0 -189.5 -74t-97.5 -186z" />
<glyph unicode="&#x153;" d="M143 225l82 576q13 100 99 171.5t188 71.5q73 0 124 -40t69 -89q89 127 233 127q99 0 168.5 -86.5t54.5 -193.5q-8 -56 -29 -99.5t-57.5 -78t-70.5 -57.5t-89 -54l-243 -137l-15 -98q-11 -74 33.5 -124.5t120.5 -50.5q40 0 88.5 10.5t76.5 20.5l28 10l-13 -94 q-90 -30 -205 -30q-73 0 -124 32.5t-72 87.5q-85 -120 -228 -120q-105 0 -168.5 71t-50.5 174zM244 238q-10 -73 27.5 -121.5t103.5 -48.5q67 0 118 48t62 122l80 559q9 66 -31.5 112.5t-105.5 46.5q-59 0 -112.5 -49t-63.5 -119zM688 444l250 140q59 33 88 74t39 110 q11 79 -34.5 132.5t-106.5 53.5q-66 0 -122 -46t-65 -111z" />
<glyph unicode="&#x178;" d="M336 1434h119l211 -609l385 609h116l-467 -752l-96 -682h-108l96 682zM541 1679l20 144h125l-20 -144h-125zM901 1679l21 144h125l-21 -144h-125z" />
<glyph unicode="&#x2c6;" d="M430 1163l217 250h144l151 -250h-113l-120 178l-168 -178h-111z" />
<glyph unicode="&#x2dc;" d="M387 1208q18 72 79 129.5t126 57.5q47 0 126.5 -51.5t119.5 -51.5q35 0 60.5 27t35.5 63h86q-18 -72 -76 -129t-121 -57q-40 0 -84.5 25.5t-86.5 51t-74 25.5q-36 0 -65 -27t-40 -63h-86z" />
<glyph unicode="&#x2000;" horiz-adv-x="929" />
<glyph unicode="&#x2001;" horiz-adv-x="1858" />
<glyph unicode="&#x2002;" horiz-adv-x="929" />
<glyph unicode="&#x2003;" horiz-adv-x="1858" />
<glyph unicode="&#x2004;" horiz-adv-x="619" />
<glyph unicode="&#x2005;" horiz-adv-x="464" />
<glyph unicode="&#x2006;" horiz-adv-x="309" />
<glyph unicode="&#x2007;" horiz-adv-x="309" />
<glyph unicode="&#x2008;" horiz-adv-x="232" />
<glyph unicode="&#x2009;" horiz-adv-x="371" />
<glyph unicode="&#x200a;" horiz-adv-x="103" />
<glyph unicode="&#x2010;" d="M418 528l14 103h457l-15 -103h-456z" />
<glyph unicode="&#x2011;" d="M418 528l14 103h457l-15 -103h-456z" />
<glyph unicode="&#x2012;" d="M418 528l14 103h457l-15 -103h-456z" />
<glyph unicode="&#x2013;" d="M262 557l14 98h775l-15 -98h-774z" />
<glyph unicode="&#x2014;" horiz-adv-x="1226" d="M35 557l14 98h1227l-14 -98h-1227z" />
<glyph unicode="&#x2018;" d="M569 1042l191 392h71l-122 -392h-140z" />
<glyph unicode="&#x2019;" d="M569 1042l123 392h139l-192 -392h-70z" />
<glyph unicode="&#x201a;" d="M477 -246l125 389h139l-194 -389h-70z" />
<glyph unicode="&#x201c;" d="M428 1042l190 392h72l-123 -392h-139zM709 1042l190 392h72l-123 -392h-139z" />
<glyph unicode="&#x201d;" d="M428 1042l123 392h139l-192 -392h-70zM709 1042l122 392h140l-193 -392h-69z" />
<glyph unicode="&#x201e;" d="M336 -246l125 389h139l-194 -389h-70zM616 -246l125 389h140l-195 -389h-70z" />
<glyph unicode="&#x2022;" d="M383 750q0 121 86.5 207.5t208.5 86.5t208.5 -86.5t86.5 -207.5q0 -122 -86.5 -208.5t-208.5 -86.5t-208.5 86.5t-86.5 208.5z" />
<glyph unicode="&#x2026;" d="M127 0l20 143h144l-21 -143h-143zM537 0l20 143h143l-20 -143h-143zM946 0l21 143h143l-20 -143h-144z" />
<glyph unicode="&#x202f;" horiz-adv-x="371" />
<glyph unicode="&#x2039;" d="M479 598l283 311h110l-286 -311l200 -311h-110z" />
<glyph unicode="&#x203a;" d="M436 287l285 311l-199 311h109l198 -311l-284 -311h-109z" />
<glyph unicode="&#x205f;" horiz-adv-x="464" />
<glyph unicode="&#x20ac;" d="M217 530l14 105h101l22 153h-100l14 105h101l28 199q22 151 142.5 256.5t271.5 105.5h12q151 0 242.5 -105.5t69.5 -256.5h-107q14 109 -51.5 184.5t-173.5 75.5q-110 0 -196 -76t-101 -186l-29 -197h475l-14 -105h-475l-23 -153h410l-14 -105h-410l-27 -188 q-15 -111 49.5 -187.5t174.5 -76.5t197 76t102 186l2 10h106l-2 -8q-20 -150 -141.5 -256t-272.5 -106h-12q-151 0 -241 106.5t-68 257.5l24 186h-100z" />
<glyph unicode="&#x2122;" d="M258 1374l8 60h393l-8 -60h-166l-88 -626h-65l88 626h-162zM618 748l97 686h76l120 -344h9l210 344h78l-96 -686h-68l78 552h-8l-176 -286h-68l-102 286h-8l-78 -552h-64z" />
<glyph unicode="&#xfb01;" d="M186 -369l183 1305h-148l12 88h148l20 145q17 118 115 202.5t219 84.5q96 0 168 -37l-65 -73q-37 22 -115 22q-79 0 -143.5 -57t-75.5 -133l-23 -154h555l-131 -936h166l-12 -88h-455l12 88h187l119 848h-453l-182 -1305h-101zM952 1270l21 143h135l-21 -143h-135z" />
<glyph unicode="&#xfb02;" d="M186 -369l183 1305h-146l15 88h145l18 145q17 115 113 190t219 75h361l-191 -1346h166l-12 -88h-455l12 88h187l178 1258h-258q-81 0 -144 -47t-73 -121l-21 -154h271l-15 -88h-270l-182 -1305h-101z" />
</font>
</defs>
</svg>
