<?xml version="1.0" standalone="no"?>
<!DOCTYPE svg PUBLIC "-//W3C//DTD SVG 1.1//EN" "http://www.w3.org/Graphics/SVG/1.1/DTD/svg11.dtd" >
<svg xmlns="http://www.w3.org/2000/svg">
<metadata></metadata>
<defs>
<font id="decima_monoregular" horiz-adv-x="1228" >
<font-face units-per-em="2048" ascent="1536" descent="-512" />
<missing-glyph horiz-adv-x="500" />
<glyph />
<glyph />
<glyph unicode="&#xd;" />
<glyph unicode=" " />
<glyph unicode="!" d="M514 0v201h201v-201h-201zM530 338v1096h166v-1096h-166z" />
<glyph unicode="&#x22;" d="M408 950v484h145v-484h-145zM676 950v484h145v-484h-145z" />
<glyph unicode="#" d="M135 393v154h193l45 323h-172v154h194l58 410h155l-59 -410h219l59 410h160l-59 -410h164v-154h-185l-47 -323h166v-154h-188l-56 -393h-157l53 393h-217l-55 -393h-156l55 393h-170zM481 547h219l45 323h-217z" />
<glyph unicode="$" d="M223 373v61h170v-61q0 -90 59.5 -152.5t149.5 -62.5h25q89 0 148 58.5t59 139.5q0 60 -20.5 108t-54.5 81.5t-78.5 61.5t-93.5 52.5t-98 50t-93.5 58t-78.5 72t-54.5 97t-20.5 128.5q0 132 82 233.5t208 131.5v102h162v-102q133 -27 215 -131t82 -259h-172 q0 104 -55.5 169t-147.5 65q-87 0 -143.5 -57t-56.5 -142q0 -47 20 -85t54.5 -66t78.5 -53t93 -50t98 -52t93 -64t78.5 -81.5t54.5 -108.5t20 -142q0 -144 -87.5 -248t-224.5 -123v-100h-162v100q-137 19 -223 123t-86 248z" />
<glyph unicode="%" d="M102 457v116l1024 396v-113zM174 1053v186q0 90 68 152.5t161 62.5h15q93 0 161 -62.5t68 -152.5v-186q0 -90 -68 -151.5t-161 -61.5h-15q-93 0 -161 62.5t-68 150.5zM303 1053q0 -43 32.5 -73t76.5 -30q43 0 74.5 30.5t31.5 72.5v186q0 43 -32 72.5t-78 29.5 q-42 0 -73.5 -30t-31.5 -72v-186zM582 193v186q0 90 68 152.5t161 62.5h14q93 0 161.5 -62.5t68.5 -152.5v-186q0 -90 -68 -151.5t-162 -61.5h-14q-93 0 -161 62.5t-68 150.5zM711 193q0 -43 32 -73t76 -30q43 0 75 30.5t32 72.5v186q0 43 -32.5 72.5t-78.5 29.5 q-42 0 -73 -30t-31 -72v-186z" />
<glyph unicode="&#x26;" d="M207 358v293q0 98 50 174.5t132 116.5l-121 272v220h641v-162h-471v-15l332 -761l74 -199l6 57v318h170v-316q0 -68 -23.5 -131.5t-62.5 -105.5l53 -119h-186l-13 29q-90 -49 -186 -49h-12q-160 0 -271.5 110.5t-111.5 267.5zM379 356q0 -91 63.5 -153t155.5 -62 q89 0 129 25l-272 625q-34 -23 -55 -62t-21 -80v-293z" />
<glyph unicode="'" d="M541 934v483h147v-483h-147z" />
<glyph unicode="(" d="M412 -10v1089q0 157 118 267t285 110v-166q-101 0 -167 -61t-66 -152v-1089q0 -91 66 -153t167 -62v-162q-167 0 -285 111t-118 268z" />
<glyph unicode=")" d="M412 -227q100 0 165.5 61.5t65.5 153.5v1089q0 91 -65 152t-166 61v166q110 0 203 -50.5t147.5 -137t54.5 -189.5v-1089q0 -157 -119 -268t-286 -111v162z" />
<glyph unicode="*" d="M354 1192l41 131l150 -43v152h139v-148l150 47l40 -125l-151 -55l94 -123l-112 -80l-91 119l-79 -119l-115 76l84 125z" />
<glyph unicode="+" d="M147 520v166h381v371h170v-371h381v-166h-381v-375h-170v375h-381z" />
<glyph unicode="," d="M512 -240l70 240h-66v201h201v-187l-86 -254h-119z" />
<glyph unicode="-" d="M365 520v160h499v-160h-499z" />
<glyph unicode="." d="M514 0v201h201v-201h-201z" />
<glyph unicode="/" d="M186 -369l684 1803h172l-686 -1803h-170z" />
<glyph unicode="0" d="M242 358v719q0 157 105.5 267t258.5 110h15q152 0 259 -110t107 -267v-721q0 -157 -107 -266.5t-259 -109.5h-15q-153 0 -258.5 110.5t-105.5 267.5zM410 356q0 -91 59 -153t145 -62q85 0 144 61.5t59 151.5v721q0 91 -59.5 154t-145.5 63q-85 0 -143.5 -63t-58.5 -154 v-719z" />
<glyph unicode="1" d="M221 0v158h305v1114l-278 -43v162l268 43h182v-1276h308v-158h-785z" />
<glyph unicode="2" d="M221 0v150q0 99 34 186.5t88 152.5t119.5 124t131.5 113.5t120 108.5t88 120t34 137q0 85 -62.5 142.5t-148.5 57.5q-93 0 -154 -72t-61 -176h-172q0 177 114 293.5t275 116.5t271 -107.5t110 -267.5q0 -88 -34 -167.5t-88 -140t-119.5 -118t-131.5 -112.5t-120 -110.5 t-88 -124.5t-34 -144h615v-162h-787z" />
<glyph unicode="3" d="M223 356v41h172v-43q0 -91 63.5 -152t155.5 -61q91 0 154 62t63 153v287q0 66 -47 114t-114 48h-154v153l234 314h-449v162h668v-152l-244 -317q110 -14 194.5 -106t84.5 -214v-287q0 -157 -111.5 -267.5t-271.5 -110.5h-15q-160 0 -271.5 109.5t-111.5 266.5z" />
<glyph unicode="4" d="M203 303v160l459 971h184l-447 -965h334v369h172v-369h119v-166h-119v-303h-172v303h-530z" />
<glyph unicode="5" d="M225 356v41h172v-43q0 -91 63.5 -152t155.5 -61q90 0 152.5 62.5t62.5 152.5v234q0 89 -63 152t-152 63h-14q-62 0 -109.5 -34t-64.5 -75l-158 47l60 691h624v-166h-460l-35 -338q66 37 149 37h13q160 0 271.5 -109t111.5 -266v-234q0 -157 -111.5 -267.5t-271.5 -110.5 h-13q-160 0 -271.5 109.5t-111.5 266.5z" />
<glyph unicode="6" d="M225 356v719q0 158 108 268.5t267 110.5h10q160 0 269.5 -111t109.5 -270h-174q0 92 -60 154.5t-151 62.5q-89 0 -149 -63t-60 -154v-194q88 88 211 88h15q160 0 271.5 -109t111.5 -266v-234q0 -157 -111.5 -267.5t-271.5 -110.5h-15q-160 0 -270.5 109.5t-110.5 266.5z M395 354q0 -90 64 -151.5t155 -61.5t154 62t63 153v234q0 89 -63 152t-154 63h-12q-78 0 -142.5 -64t-64.5 -151v-236z" />
<glyph unicode="7" d="M256 1272v162h717v-150q0 -63 -33 -177t-80 -247t-94 -276t-80 -300.5t-33 -283.5h-176q0 135 32.5 296.5t79 304.5t93.5 272.5t81.5 237t37.5 161.5h-545z" />
<glyph unicode="8" d="M225 358v86q0 90 39.5 168t110.5 133q-63 48 -98 119.5t-35 157.5v74q0 149 105.5 253.5t256.5 104.5h19q152 0 257 -104t105 -254v-76q0 -83 -34.5 -155t-94.5 -120q70 -55 109 -132.5t39 -168.5v-88q0 -157 -110 -266.5t-269 -109.5h-19q-159 0 -270 110.5t-111 267.5z M397 356q0 -91 64.5 -153t156.5 -62q88 0 150.5 61.5t62.5 151.5v88q0 91 -63 154t-154 63q-90 0 -153.5 -63.5t-63.5 -153.5v-86zM414 1020q0 -80 54.5 -139.5t137.5 -59.5h19q78 0 133 56.5t55 140.5v69q0 87 -58 146t-145 59q-83 0 -139.5 -59.5t-56.5 -145.5v-67z" />
<glyph unicode="9" d="M225 842v233q0 157 112 268t271 111h15q159 0 270 -110t111 -267v-719q0 -158 -108 -268t-267 -110h-11q-160 0 -269 110.5t-109 269.5h174q0 -92 60 -154.5t151 -62.5q89 0 149 63t60 154v195q-88 -88 -211 -88h-15q-160 0 -271.5 109t-111.5 266zM397 844 q0 -89 63 -152t154 -63h13q78 0 142.5 64t64.5 151v235q0 90 -64.5 151.5t-155.5 61.5t-154 -62t-63 -153v-233z" />
<glyph unicode=":" d="M514 0v201h201v-201h-201zM514 823v201h201v-201h-201z" />
<glyph unicode=";" d="M512 -240l70 240h-66v201h201v-187l-86 -254h-119zM516 823v201h201v-201h-201z" />
<glyph unicode="&#x3c;" d="M190 522v150l848 383v-176l-643 -283l643 -281v-178z" />
<glyph unicode="=" d="M160 342v160h907v-160h-907zM160 694v160h907v-160h-907z" />
<glyph unicode="&#x3e;" d="M190 137v178l644 281l-644 283v176l848 -383v-150z" />
<glyph unicode="?" d="M227 1065q0 176 110.5 281.5t274.5 105.5q166 0 276.5 -103.5t110.5 -271.5q0 -77 -18 -137.5t-47 -101.5t-64.5 -77.5t-70.5 -74.5t-64 -82.5t-47 -112.5t-18 -153h-170q0 100 18 180t46.5 131t63 93.5t68.5 77.5t62.5 70.5t46.5 85.5t18 111q0 85 -61 142t-150 57 q-94 0 -154.5 -60t-60.5 -161h-170zM481 0v203h207v-203h-207z" />
<glyph unicode="@" d="M143 143v811q0 135 60.5 249.5t167.5 182.5t235 68h31q126 0 229 -65.5t160 -177t57 -246.5v-965h-145v55q-77 -71 -176 -71q-132 0 -220.5 85t-88.5 216v448q0 126 89.5 214.5t219.5 88.5q56 0 93 -17.5t77 -53.5q-2 141 -84 238t-211 97h-31q-131 0 -224 -103.5 t-93 -242.5v-811q0 -140 85.5 -242t213.5 -102h37v-153h-31q-129 0 -233 68.5t-161 181.5t-57 247zM604 293q0 -66 47.5 -115t110.5 -49q71 0 120.5 48.5t49.5 115.5v436q0 66 -49 113t-119 47q-64 0 -112 -47.5t-48 -112.5v-436z" />
<glyph unicode="A" d="M219 0v612l248 822h293l248 -826v-608h-174v457h-443v-457h-172zM399 616h430l-196 656h-39z" />
<glyph unicode="B" d="M250 0v1434h375q145 0 241.5 -93.5t96.5 -226.5v-113q0 -69 -32.5 -132.5t-84.5 -110.5q131 -106 131 -266v-148q0 -147 -107 -245.5t-252 -98.5h-368zM422 162h196q80 0 133.5 54t53.5 128v148q0 27 -11 57t-32 59.5t-59 48.5t-85 19h-196v-514zM422 831h207 q70 0 119 47t49 115v115q0 66 -49 113t-119 47h-207v-437z" />
<glyph unicode="C" d="M221 358v719q0 157 113 267t276 110h11q162 0 274.5 -110t112.5 -269h-172q0 89 -64.5 151t-155.5 62q-93 0 -157 -61.5t-64 -151.5v-719q0 -90 64 -152.5t157 -62.5q91 0 155.5 62t64.5 151v43h172v-41q0 -157 -112.5 -266.5t-274.5 -109.5h-11q-162 0 -275.5 110.5 t-113.5 267.5z" />
<glyph unicode="D" d="M231 0v1434h379q161 0 274 -110t113 -267v-680q0 -157 -113 -267t-274 -110h-379zM403 162h201q92 0 155.5 61t63.5 152v680q0 91 -63.5 152t-155.5 61h-201v-1106z" />
<glyph unicode="E" d="M256 0v1434h700v-162h-528v-436h479v-160h-479v-514h545v-162h-717z" />
<glyph unicode="F" d="M264 0v1434h701v-162h-529v-436h479v-160h-479v-676h-172z" />
<glyph unicode="G" d="M207 358v719q0 157 113 267t276 110h35q162 0 275.5 -110.5t113.5 -268.5h-176q0 90 -63 151.5t-156 61.5h-23q-93 0 -157 -61.5t-64 -151.5v-719q0 -90 64 -152.5t157 -62.5h23q93 0 156 61.5t63 151.5v221h-209v162h385v-381q0 -157 -114 -266.5t-275 -109.5h-35 q-162 0 -275.5 110.5t-113.5 267.5z" />
<glyph unicode="H" d="M219 0v1434h172v-598h443v598h174v-1434h-174v676h-443v-676h-172z" />
<glyph unicode="I" d="M219 0v160h309v1114h-309v160h791v-160h-310v-1114h310v-160h-791z" />
<glyph unicode="J" d="M221 356v111h172v-113q0 -89 64 -151t155 -62q93 0 157.5 62.5t64.5 152.5v920h-531v160h705v-1078q0 -157 -113.5 -267.5t-276.5 -110.5h-10q-162 0 -274.5 109.5t-112.5 266.5z" />
<glyph unicode="K" d="M188 0v1434h174v-1434h-174zM362 760l455 674h201l-457 -680l479 -754h-198z" />
<glyph unicode="L" d="M260 0v1434h174v-1272h535v-162h-709z" />
<glyph unicode="M" d="M197 0v1434h219l194 -582h8l195 582h219v-1434h-174v1044l6 97l-8 2l-29 -96l-133 -369h-159l-134 366l-28 99l-8 -2l6 -97v-1044h-174z" />
<glyph unicode="N" d="M219 0v1434h193l391 -1006l37 -123h8l-12 131v998h172v-1434h-193l-389 999l-39 125h-8l12 -135v-989h-172z" />
<glyph unicode="O" d="M207 358v719q0 157 113 267t276 110h35q161 0 275 -110t114 -267v-721q0 -157 -114 -266.5t-275 -109.5h-35q-162 0 -275.5 110.5t-113.5 267.5zM381 356q0 -90 64 -152.5t157 -62.5h23q93 0 156 61.5t63 151.5v721q0 90 -63 151.5t-156 61.5h-23q-93 0 -157 -61.5 t-64 -151.5v-719z" />
<glyph unicode="P" d="M254 0v1434h391q137 0 232.5 -93.5t95.5 -226.5v-295q0 -135 -95.5 -228t-232.5 -93h-219v-498h-172zM426 659h211q67 0 114.5 45.5t47.5 108.5v299q0 65 -47.5 110.5t-114.5 45.5h-211v-609z" />
<glyph unicode="Q" d="M188 358v719q0 157 113.5 267t276.5 110h34q161 0 275 -110t114 -267v-721q0 -109 -57 -194l94 -103l-118 -108l-89 94q-97 -65 -219 -65h-34q-163 0 -276.5 110.5t-113.5 267.5zM362 356q0 -19 3 -34q92 102 219 102q123 0 233 -123q8 18 8 53v721q0 90 -63 151.5 t-156 61.5h-22q-94 0 -158 -62t-64 -151v-719zM446 186q60 -47 144 -47q72 0 129 31q-74 100 -139 100q-83 0 -134 -84z" />
<glyph unicode="R" d="M231 0v1434h392q136 0 231.5 -93t95.5 -227v-272q0 -98 -49 -175.5t-137 -115.5l233 -551h-186l-223 522h-185v-522h-172zM403 682h213q66 0 113 45.5t47 108.5v276q0 64 -47 110t-113 46h-213v-586z" />
<glyph unicode="S" d="M207 356v56h174v-56q0 -90 64 -152.5t157 -62.5h23q92 0 155.5 59t63.5 140q0 77 -34 136t-88.5 98t-120 73.5t-131.5 72t-120.5 82.5t-88.5 115.5t-34 161.5q0 159 113.5 267t275.5 108t275 -110t113 -271h-170q0 85 -63 150t-155 65q-90 0 -152.5 -57t-62.5 -141 q0 -60 34 -108.5t88.5 -83.5t120.5 -68.5t132.5 -75t121 -92t88.5 -129t34 -177.5q0 -156 -113.5 -266t-273.5 -110h-37q-163 0 -276 109.5t-113 266.5z" />
<glyph unicode="T" d="M221 1270v164h787v-164h-306v-1270h-178v1270h-303z" />
<glyph unicode="U" d="M207 358v1076h174v-1078q0 -90 64 -152.5t157 -62.5h23q93 0 156 61.5t63 151.5v1080h176v-1078q0 -157 -114 -266.5t-275 -109.5h-35q-162 0 -275.5 110.5t-113.5 267.5z" />
<glyph unicode="V" d="M219 821v613h172v-592l203 -680h39l201 680v592h174v-609l-248 -825h-293z" />
<glyph unicode="W" d="M180 823v611h174v-596l47 -672h33l60 536h237l57 -536h33l49 672v596h177v-611l-82 -823h-289l-51 506h-25l-49 -506h-291z" />
<glyph unicode="X" d="M158 0l360 745l-334 689h191l237 -508l240 508h188l-333 -689l362 -745h-188l-269 563l-266 -563h-188z" />
<glyph unicode="Y" d="M152 1434h190l272 -539l271 539h192l-375 -756v-678h-178v678z" />
<glyph unicode="Z" d="M217 0v172l588 1100h-557v162h762v-172l-590 -1100h588v-162h-791z" />
<glyph unicode="[" d="M412 -367v1801h403v-166h-233v-1473h233v-162h-403z" />
<glyph unicode="\" d="M178 1434h170l701 -1803h-172z" />
<glyph unicode="]" d="M412 -205h233v1473h-233v166h403v-1801h-403v162z" />
<glyph unicode="^" d="M256 676l289 756h139l289 -756h-152l-211 541l-202 -541h-152z" />
<glyph unicode="_" d="M2 -154h1225v-137h-1225v137z" />
<glyph unicode="`" d="M367 1454h233l260 -303h-182z" />
<glyph unicode="a" d="M221 299q0 132 98.5 226.5t239.5 103.5l281 18v53q0 79 -55 137t-138 58h-20q-69 0 -128 -42t-69 -108h-162q13 127 120 213t245 86h20q162 0 257.5 -95t95.5 -236v-713h-160v84q-29 -38 -99.5 -71t-134.5 -33h-39q-139 0 -245.5 91.5t-106.5 227.5zM385 301 q0 -71 60.5 -122.5t136.5 -51.5h30q91 0 159.5 64t68.5 131v178l-269 -19q-80 -6 -133 -56.5t-53 -123.5z" />
<glyph unicode="b" d="M209 0v1434h158v-484q48 45 111.5 71t127.5 26h25q161 0 275 -110t114 -267v-314q0 -157 -114 -266.5t-275 -109.5h-29q-148 0 -240 92v-72h-153zM373 348q0 -93 66.5 -158t162.5 -65h23q96 0 161.5 64t65.5 157v330q0 93 -65.5 157t-161.5 64h-23q-96 0 -162.5 -64 t-66.5 -157v-328z" />
<glyph unicode="c" d="M213 358v312q0 157 113 267t276 110h35q160 0 264.5 -105.5t104.5 -259.5h-168q0 91 -56.5 153t-150.5 62h-23q-96 0 -162.5 -64t-66.5 -157v-328q0 -93 66.5 -158t162.5 -65h13q96 0 161.5 63t65.5 152h168q0 -146 -114.5 -253t-274.5 -107h-25q-162 0 -275.5 110.5 t-113.5 267.5z" />
<glyph unicode="d" d="M209 356v314q0 157 114 267t275 110h25q64 0 127.5 -26t111.5 -71v484h158v-1434h-154v72q-92 -92 -239 -92h-29q-161 0 -275 109.5t-114 266.5zM377 346q0 -93 65.5 -157t161.5 -64h23q96 0 162.5 65t66.5 158v328q0 93 -66.5 157t-162.5 64h-23q-96 0 -161.5 -64 t-65.5 -157v-330z" />
<glyph unicode="e" d="M211 358v312q0 157 113 265.5t276 108.5h37q161 0 271 -108.5t110 -265.5v-209h-641v-113q0 -93 66.5 -158t162.5 -65h23q90 0 148.5 60.5t58.5 127.5h168q0 -59 -28 -118.5t-75.5 -107t-117.5 -77.5t-148 -30h-35q-162 0 -275.5 110.5t-113.5 267.5zM377 610h479v66 q0 93 -64.5 157t-160.5 64h-25q-96 0 -162.5 -64t-66.5 -157v-66z" />
<glyph unicode="f" d="M190 877v147h228v84q0 142 102.5 244t249.5 102h25q73 0 133 -17.5t84 -34.5l24 -18l-90 -122q-5 5 -16 12t-52 19t-90 12h-12q-80 0 -135 -56.5t-55 -134.5v-90h383v-147h-383v-877h-168v877h-228z" />
<glyph unicode="g" d="M129 -117q0 99 73 169.5t177 70.5h53v205q-24 9 -51.5 29t-57.5 52.5t-49.5 82.5t-19.5 108v135q0 126 99 217.5t237 91.5q93 0 160 -40l65 83q28 37 77 48.5t128 11.5v-148q-98 0 -113 -22l-49 -68q30 -33 47 -80t17 -94v-135q0 -123 -101.5 -218t-230.5 -95v-164h260 q103 0 176.5 -71t73.5 -169v-14q0 -99 -73.5 -168.5t-178.5 -69.5h-469q-104 0 -177 69t-73 169v14zM279 -125q0 -46 35.5 -79.5t86.5 -33.5h426q52 0 87.5 33.5t35.5 81.5q0 46 -35 79.5t-86 33.5h-428q-51 0 -86.5 -34t-35.5 -81zM414 600q0 -69 51 -116.5t125 -47.5 q68 0 119 48t51 116v133q0 69 -50.5 116.5t-119.5 47.5q-74 0 -125 -47t-51 -117v-133z" />
<glyph unicode="h" d="M209 0v1434h164v-490q43 42 110 71t150 29q167 0 276 -108t109 -266v-670h-166v676q0 93 -64 157t-163 64q-98 0 -175 -67t-77 -144v-686h-164z" />
<glyph unicode="i" d="M201 0v147h348v730h-348v147h512v-877h313v-147h-825zM528 1251v183h189v-183h-189z" />
<glyph unicode="j" d="M264 874v150h654v-1067q0 -142 -103 -244t-250 -102h-24q-73 0 -133.5 17.5t-84.5 35.5l-24 17l90 122q5 -5 16 -12t52 -19t90 -12h12q81 0 136 56.5t55 134.5v923h-486zM743 1251v183h185v-183h-185z" />
<glyph unicode="k" d="M193 0v1434h163v-1434h-163zM356 541l447 483h209l-457 -485l479 -539h-209z" />
<glyph unicode="l" d="M211 0v147h315v1139h-258v148h422v-1287h328v-147h-807z" />
<glyph unicode="m" d="M135 0v1024h160v-76q63 92 172 92q41 0 71 -9t50 -28.5t30.5 -34.5t24.5 -42q39 55 87.5 84.5t121.5 29.5q116 0 179 -76.5t63 -195.5v-768h-166v786q0 44 -31 77.5t-68 33.5q-63 0 -97 -48.5t-34 -121.5v-727h-159v786q0 45 -30.5 78t-76.5 33q-61 0 -97 -49t-36 -121 v-727h-164z" />
<glyph unicode="n" d="M209 0v1024h160v-84q43 43 112 73.5t152 30.5q167 0 276 -108t109 -266v-670h-166v676q0 93 -64 157t-163 64q-98 0 -175 -67t-77 -144v-686h-164z" />
<glyph unicode="o" d="M207 358v312q0 157 113 267t276 110h35q161 0 275 -110t114 -267v-314q0 -157 -114 -266.5t-275 -109.5h-35q-162 0 -275.5 110.5t-113.5 267.5zM373 348q0 -93 66.5 -158t162.5 -65h23q96 0 161.5 64t65.5 157v330q0 93 -65.5 157t-161.5 64h-23q-96 0 -162.5 -64 t-66.5 -157v-328z" />
<glyph unicode="p" d="M209 -369v1393h153v-72q92 92 240 92h29q162 0 275.5 -109t113.5 -265v-314q0 -157 -114 -268t-275 -111h-25q-64 0 -127.5 26t-111.5 71v-443h-158zM373 348q0 -93 66.5 -157t162.5 -64h23q96 0 161.5 64t65.5 157v330q0 93 -65.5 157t-161.5 64h-23q-96 0 -162.5 -65 t-66.5 -158v-328z" />
<glyph unicode="q" d="M209 356v314q0 156 113.5 265t275.5 109h29q147 0 239 -92v72h154v-1393h-158v443q-48 -45 -111.5 -71t-127.5 -26h-25q-161 0 -275 111t-114 268zM377 348q0 -93 65.5 -157t161.5 -64h23q96 0 162.5 64t66.5 157v328q0 93 -66.5 158t-162.5 65h-23q-96 0 -161.5 -64 t-65.5 -157v-330z" />
<glyph unicode="r" d="M154 0v147h215v877h159v-88q38 51 97 79.5t131 28.5q77 0 139.5 -30t100 -77.5t57.5 -101t20 -104.5h-166q0 68 -44.5 117t-112.5 49q-86 0 -152 -62t-66 -139v-549h429v-147h-807z" />
<glyph unicode="s" d="M246 299v25h164v-19q0 -72 56 -125t132 -53h37q71 0 122.5 44t51.5 108q0 44 -29 77t-75.5 55t-102.5 42.5t-112 45.5t-102.5 57t-75.5 84t-29 120q0 125 94.5 204.5t230.5 79.5h39q64 0 120 -20t94.5 -52.5t66 -74t40.5 -84t13 -82.5h-170q0 65 -49.5 115.5t-114.5 50.5 h-39q-61 0 -107 -36t-46 -89q0 -42 29 -73t75 -52t101.5 -41t111 -46t101.5 -60.5t75 -92.5t29 -133q0 -121 -102 -207.5t-238 -86.5h-45q-150 0 -248 96t-98 223z" />
<glyph unicode="t" d="M154 877v147h188v291h166v-291h520v-147h-520v-555q0 -79 54.5 -137t137.5 -58h21q76 0 131 59t55 136h168q0 -151 -95 -248t-265 -97h-21q-162 0 -257 95t-95 237v568h-188z" />
<glyph unicode="u" d="M209 354v670h166v-676q0 -93 64 -157t163 -64q98 0 175 67t77 144v686h164v-1024h-160v84q-43 -43 -112 -73.5t-152 -30.5q-167 0 -276 108t-109 266z" />
<glyph unicode="v" d="M246 637v387h164v-385l182 -510h45l184 510v385h160v-387l-229 -637h-275z" />
<glyph unicode="w" d="M176 627v397h164v-381l49 -493h31l90 507h205l94 -507h31l49 493v381h164v-397l-90 -627h-265l-80 473h-10l-78 -473h-264z" />
<glyph unicode="x" d="M195 0l321 524l-311 500h188l221 -356l220 356h190l-313 -500l323 -524h-186l-234 379l-233 -379h-186z" />
<glyph unicode="y" d="M158 1024h176l282 -782l279 782h176l-526 -1393h-166l145 402z" />
<glyph unicode="z" d="M225 0v154l576 723h-547v147h739v-158l-573 -719h581v-147h-776z" />
<glyph unicode="{" d="M358 467v154q44 0 77.5 26.5t33.5 61.5v370q0 157 117 267t284 110v-166q-99 0 -164 -61.5t-65 -151.5v-348q0 -62 -35 -110.5t-84 -77.5q49 -27 84 -75.5t35 -111.5v-366q0 -91 65 -153t164 -62v-162q-167 0 -284 111t-117 268v387q0 36 -33 63t-78 27z" />
<glyph unicode="|" d="M535 -369v1803h159v-1803h-159z" />
<glyph unicode="}" d="M358 -227q99 0 164.5 62t65.5 153v366q0 63 35 111.5t84 75.5q-49 29 -84 77.5t-35 110.5v348q0 90 -65.5 151.5t-164.5 61.5v166q167 0 284.5 -110t117.5 -267v-370q0 -35 33 -61.5t77 -26.5v-154q-45 0 -77.5 -27t-32.5 -63v-387q0 -157 -117.5 -268t-284.5 -111v162z " />
<glyph unicode="~" d="M133 479q13 100 91.5 177t189.5 77q48 0 106.5 -18t104.5 -39.5t100 -39.5t94 -18q45 0 76.5 31t42.5 68h158q-16 -100 -92 -177t-185 -77q-50 0 -111.5 18t-109.5 39.5t-100 39.5t-84 18q-45 0 -78 -30t-47 -69h-156z" />
<glyph unicode="&#xa0;" />
<glyph unicode="&#xa1;" d="M514 823v201h201v-201h-201zM530 -393v1079h166v-1079h-166z" />
<glyph unicode="&#xa2;" d="M242 330v372q0 123 84 214.5t223 111.5v96h164v-102q120 -29 191 -118.5t71 -209.5h-162q0 82 -56.5 138.5t-140.5 56.5q-86 0 -148 -60.5t-62 -138.5v-352q0 -78 61 -136.5t149 -58.5q85 0 145 60t60 143h164q0 -128 -73.5 -221t-198.5 -121v-104h-164v100 q-139 18 -223 111t-84 219z" />
<glyph unicode="&#xa3;" d="M209 578v161h125v381q0 138 100.5 235t243.5 97q141 0 241.5 -97t100.5 -235v-80h-176v90q0 66 -48 113t-114 47q-72 0 -121 -47t-49 -113v-391h258v-161h-258v-412h506v-166h-742v166h58v412h-125z" />
<glyph unicode="&#xa4;" d="M158 258l96 98q-74 113 -74 240q0 128 76 246l-98 98l114 115l99 -99q117 74 243 74q125 0 242 -74l98 99l117 -115l-98 -98q74 -115 74 -246t-72 -240l96 -98l-117 -117l-98 97q-112 -74 -242 -74q-131 0 -243 74l-99 -97zM340 598q0 -112 80 -192t194 -80 q110 0 190.5 81t80.5 191t-80.5 191t-190.5 81t-192 -81t-82 -191z" />
<glyph unicode="&#xa5;" d="M180 1434h187l245 -560l252 560h185l-263 -572h234v-162h-309l-11 -20v-123h320v-160h-320v-397h-174v397h-319v160h319v119l-10 24h-309v162h235z" />
<glyph unicode="&#xa6;" d="M535 -369v742h159v-742h-159zM535 690v746h159v-746h-159z" />
<glyph unicode="&#xa7;" d="M225 797q0 139 105 231q-41 58 -41 150q0 119 84.5 196.5t240.5 77.5h15q164 0 242.5 -85.5t78.5 -231.5h-170q0 151 -157 151h-9q-79 0 -115 -33t-36 -77q0 -38 30 -71t77.5 -58.5t105.5 -52t115.5 -59.5t105 -72t77.5 -97t30 -129q0 -138 -107 -234q43 -71 43 -149 q0 -117 -86 -195.5t-240 -78.5h-14q-164 0 -242.5 86.5t-78.5 232.5h167q0 -69 37 -111.5t121 -42.5h10q76 0 113 34t37 77q0 39 -29.5 72t-77.5 58.5t-105 52t-114.5 59t-105.5 71.5t-77.5 97.5t-29.5 130.5zM395 811q0 -43 24.5 -78.5t68.5 -63.5t89.5 -50t104.5 -50.5 t96 -52.5q53 43 53 105q0 41 -23.5 76t-67.5 63.5t-88 51.5t-104.5 52.5t-98.5 53.5q-54 -44 -54 -107z" />
<glyph unicode="&#xa8;" d="M350 1251v183h182v-183h-182zM696 1251v183h183v-183h-183z" />
<glyph unicode="&#xa9;" d="M147 711v278q0 125 61.5 232t165 169t222.5 62h35q182 0 315 -136t133 -327v-278q0 -191 -133 -327t-315 -136h-35q-119 0 -222.5 62t-165 169t-61.5 232zM260 698q0 -139 101.5 -241.5t234.5 -102.5h35q133 0 233.5 102.5t100.5 241.5v306q0 139 -100.5 240.5 t-233.5 101.5h-35q-133 0 -234.5 -102t-101.5 -240v-306zM397 719v274q0 89 62 151t162 62q91 0 149.5 -68t58.5 -167h-114q0 52 -26.5 83t-67.5 31q-45 0 -77 -33.5t-32 -78.5v-236q0 -44 32 -77t77 -33q41 0 71.5 32t30.5 82h115q0 -101 -61 -169t-156 -68 q-101 0 -162.5 61t-61.5 154z" />
<glyph unicode="&#xaa;" d="M352 997q0 84 71 142t173 67l139 13v14q0 39 -29.5 70.5t-76.5 31.5q-39 0 -66.5 -19.5t-34.5 -58.5h-143q13 96 77 146.5t167 50.5q115 0 180 -60.5t65 -154.5v-440h-135v41q-26 -26 -69 -40t-82 -14q-97 2 -166.5 62t-69.5 149zM369 578v118h505v-118h-505zM489 999 q0 -37 32 -64.5t83 -27.5q50 0 90.5 27.5t40.5 58.5v105l-133 -13q-47 -5 -80 -28t-33 -58z" />
<glyph unicode="&#xab;" d="M209 596l250 326h190l-252 -326l254 -324h-192zM575 596l250 326h191l-252 -326l254 -324h-193z" />
<glyph unicode="&#xac;" d="M160 690v164h907v-573h-164v409h-743z" />
<glyph unicode="&#xad;" />
<glyph unicode="&#xae;" d="M147 713v278q0 125 61.5 232t165 169t222.5 62h35q182 0 315 -136t133 -327v-278q0 -191 -133 -327t-315 -136h-35q-119 0 -222.5 62t-165 169t-61.5 232zM260 700q0 -139 101.5 -241.5t234.5 -102.5h35q133 0 233.5 102.5t100.5 241.5v306q0 139 -100.5 240.5 t-233.5 101.5h-35q-133 0 -234.5 -102t-101.5 -240v-306zM426 530v662h227q63 0 110.5 -50t47.5 -116v-102q0 -41 -21.5 -82.5t-52.5 -63.5l107 -248h-125l-94 224h-84v-224h-115zM537 864h112q18 0 31.5 12.5t13.5 32.5v111q0 19 -14 33t-31 14h-112v-203z" />
<glyph unicode="&#xaf;" d="M305 1223v151h619v-151h-619z" />
<glyph unicode="&#xb0;" d="M315 1157q0 123 88 211t211 88t211 -88t88 -211t-88 -211t-211 -88t-211 88t-88 211zM449 1157q0 -68 48 -117t115 -49q69 0 117.5 49t48.5 117t-48.5 117t-117.5 49q-67 0 -115 -49t-48 -117z" />
<glyph unicode="&#xb1;" d="M145 139v162h936v-162h-936zM145 621v161h383v262h168v-262h383v-161h-383v-261h-168v261h-383z" />
<glyph unicode="&#xb2;" d="M379 662v100q0 74 33 136t79.5 104.5t93.5 80t80 78.5t33 84q0 33 -21 55.5t-54 22.5q-41 0 -67 -31t-26 -84h-141q0 112 67.5 179t166.5 67q93 0 160 -62t67 -155q0 -58 -30.5 -110t-75.5 -91t-90.5 -76t-81 -80t-42.5 -87h320v-131h-471z" />
<glyph unicode="&#xb3;" d="M381 868v23h147v-23q0 -36 25 -61t61 -25t60 25t24 61v133q0 27 -15.5 44.5t-41.5 17.5h-106v115l96 122h-209v134h403v-107l-110 -143q55 -23 93 -73.5t38 -109.5v-133q0 -89 -67.5 -154t-157.5 -65h-13q-95 0 -161 63t-66 156z" />
<glyph unicode="&#xb4;" d="M367 1151l260 303h233l-311 -303h-182z" />
<glyph unicode="&#xb5;" d="M205 -369v1393h160v-698q0 -81 56.5 -140t133.5 -59q87 0 152 57t65 135v705h160v-813q1 -25 21.5 -42t47.5 -17h21v-152h-21q-55 0 -106.5 28.5t-85.5 71.5q-94 -120 -268 -120q-107 0 -179 69v-418h-157z" />
<glyph unicode="&#xb6;" d="M211 1032q0 167 119 283.5t288 116.5h398v-1801h-160v1649h-127v-1649h-160v1008q-151 24 -254.5 133t-103.5 260z" />
<glyph unicode="&#xb7;" d="M514 496v200h201v-200h-201z" />
<glyph unicode="&#xb8;" d="M463 -262h123q18 0 30.5 15t12.5 34q0 18 -12.5 32.5t-30.5 14.5h-103v166h119v-57q65 0 114.5 -46t49.5 -110q0 -66 -48 -111t-114 -45h-141v107z" />
<glyph unicode="&#xb9;" d="M479 1309v125h269v-772h-144v647h-125z" />
<glyph unicode="&#xba;" d="M377 1001v238q0 91 68 153t171 62q102 0 168 -61.5t66 -153.5v-238q0 -92 -66 -153.5t-168 -61.5q-103 0 -171 62t-68 153zM391 578v118h459v-118h-459zM510 1001q0 -38 31.5 -68t74.5 -30q42 0 74.5 30.5t32.5 67.5v238q0 37 -32.5 65.5t-76.5 28.5q-42 0 -73 -28.5 t-31 -65.5v-238z" />
<glyph unicode="&#xbb;" d="M209 272l254 324l-252 326h190l250 -326l-250 -324h-192zM575 272l254 324l-251 326h190l250 -326l-250 -324h-193z" />
<glyph unicode="&#xbc;" d="M139 1309v125h269v-772h-144v647h-125zM184 2l727 1430h109l-725 -1430h-111zM565 156v106l242 502h145l-227 -475h154v170h143v-170h68v-133h-68v-154h-143v154h-314z" />
<glyph unicode="&#xbd;" d="M133 1309v125h268v-772h-143v647h-125zM135 2l727 1430h109l-725 -1430h-111zM625 0v100q0 62 23.5 117t59 92t77 73.5t77 65t59 64t23.5 72.5q0 33 -21.5 55.5t-54.5 22.5q-41 0 -66.5 -31t-25.5 -84h-141q0 112 67 179t166 67q93 0 160.5 -62.5t67.5 -155.5 q0 -58 -30.5 -110t-75.5 -91t-90.5 -76t-81 -80t-42.5 -87h320v-131h-471z" />
<glyph unicode="&#xbe;" d="M113 868v23h147v-23q0 -36 25 -61t61 -25t60 25t24 61v133q0 27 -15.5 44.5t-41.5 17.5h-107v115l96 122h-208v134h403v-107l-111 -143q55 -23 93.5 -73.5t38.5 -109.5v-133q0 -89 -68 -154t-158 -65h-12q-95 0 -161 63t-66 156zM233 2l728 1430h108l-725 -1430h-111z M592 156v106l242 502h145l-227 -475h153v170h144v-170h67v-133h-67v-154h-144v154h-313z" />
<glyph unicode="&#xbf;" d="M227 -53q0 78 18 139.5t47.5 102.5t64.5 77t70 74t64.5 82t47.5 111.5t18 152.5h170q0 -100 -18 -180t-46.5 -131t-63 -93.5t-69 -77.5t-63 -70.5t-46.5 -85.5t-18 -111q0 -85 61 -142t150 -57q94 0 154.5 60t60.5 161h170q0 -176 -110.5 -281.5t-274.5 -105.5 q-166 0 -276.5 103.5t-110.5 271.5zM539 821v203h206v-203h-206z" />
<glyph unicode="&#xc0;" d="M219 0v612l248 822h293l248 -826v-608h-174v457h-443v-457h-172zM289 1864h233l260 -303h-182zM399 616h430l-196 656h-39z" />
<glyph unicode="&#xc1;" d="M219 0v612l248 822h293l248 -826v-608h-174v457h-443v-457h-172zM399 616h430l-196 656h-39zM451 1561l260 303h233l-311 -303h-182z" />
<glyph unicode="&#xc2;" d="M219 0v612l248 822h293l248 -826v-608h-174v457h-443v-457h-172zM315 1563l217 301h156l221 -301h-149l-152 153l-145 -153h-148zM399 616h430l-196 656h-39z" />
<glyph unicode="&#xc3;" d="M219 0v612l248 822h293l248 -826v-608h-174v457h-443v-457h-172zM295 1589q0 85 60.5 156.5t138.5 71.5q32 0 69.5 -14t64.5 -31.5t57.5 -31.5t51.5 -14t34 25.5t13 52.5h148q0 -85 -59 -156t-136 -71q-41 0 -89 22.5t-89 45t-65 22.5q-23 0 -38 -24t-18 -54h-143z M399 616h430l-196 656h-39z" />
<glyph unicode="&#xc4;" d="M219 0v612l248 822h293l248 -826v-608h-174v457h-443v-457h-172zM348 1661v182h182v-182h-182zM399 616h430l-196 656h-39zM694 1661v182h183v-182h-183z" />
<glyph unicode="&#xc5;" d="M219 0v612l248 822h293l248 -826v-608h-174v457h-443v-457h-172zM399 616h430l-196 656h-39zM451 1700q0 69 46 116.5t113 47.5q68 0 116 -47.5t48 -116.5q0 -67 -48 -114.5t-116 -47.5q-67 0 -113 47t-46 115zM551 1702q0 -25 16.5 -42.5t42.5 -17.5t44 17.5t18 42.5 q0 26 -18 43.5t-44 17.5t-42.5 -17.5t-16.5 -43.5z" />
<glyph unicode="&#xc6;" d="M143 0v612l250 822h686v-162h-329v-436h280v-160h-280v-514h335v-162h-512v457h-256v-457h-174zM326 616h247v656h-55z" />
<glyph unicode="&#xc7;" d="M221 358v719q0 157 113 267t276 110h11q162 0 274.5 -110t112.5 -269h-172q0 89 -64.5 151t-155.5 62q-93 0 -157 -61.5t-64 -151.5v-719q0 -90 64 -152.5t157 -62.5q91 0 155.5 62t64.5 151v43h172v-41q0 -142 -94 -247t-236 -125v-41q65 0 114.5 -46t49.5 -110 q0 -66 -48 -111t-114 -45h-141v107h123q18 0 30.5 15t12.5 34q0 18 -12.5 32.5t-30.5 14.5h-103v150q-145 17 -241.5 123.5t-96.5 250.5z" />
<glyph unicode="&#xc8;" d="M256 0v1434h700v-162h-528v-436h479v-160h-479v-514h545v-162h-717zM297 1864h233l261 -303h-183z" />
<glyph unicode="&#xc9;" d="M256 0v1434h700v-162h-528v-436h479v-160h-479v-514h545v-162h-717zM440 1561l260 303h234l-311 -303h-183z" />
<glyph unicode="&#xca;" d="M256 0v1434h700v-162h-528v-436h479v-160h-479v-514h545v-162h-717zM291 1563l217 301h156l221 -301h-150l-151 153l-146 -153h-147z" />
<glyph unicode="&#xcb;" d="M256 0v1434h700v-162h-528v-436h479v-160h-479v-514h545v-162h-717zM344 1661v182h182v-182h-182zM690 1661v182h182v-182h-182z" />
<glyph unicode="&#xcc;" d="M219 0v160h309v1114h-309v160h791v-160h-310v-1114h310v-160h-791zM252 1864h233l260 -303h-182z" />
<glyph unicode="&#xcd;" d="M219 0v160h309v1114h-309v160h791v-160h-310v-1114h310v-160h-791zM485 1561l260 303h234l-311 -303h-183z" />
<glyph unicode="&#xce;" d="M219 0v160h309v1114h-309v160h791v-160h-310v-1114h310v-160h-791zM317 1563l218 301h155l221 -301h-149l-152 153l-145 -153h-148z" />
<glyph unicode="&#xcf;" d="M219 0v160h309v1114h-309v160h791v-160h-310v-1114h310v-160h-791zM350 1661v182h182v-182h-182zM696 1661v182h183v-182h-183z" />
<glyph unicode="&#xd0;" d="M168 676v160h123v598h379q161 0 275 -110t114 -267v-680q0 -157 -114 -267t-275 -110h-379v676h-123zM465 162h199q94 0 156.5 61t62.5 152v682q0 91 -63 153t-156 62h-199v-436h215v-160h-215v-514z" />
<glyph unicode="&#xd1;" d="M219 0v1434h193l391 -1006l37 -123h8l-12 131v998h172v-1434h-193l-389 999l-39 125h-8l12 -135v-989h-172zM299 1589q0 85 60.5 156.5t138.5 71.5q32 0 69.5 -14t64.5 -31.5t57.5 -31.5t51.5 -14t34 25.5t13 52.5h148q0 -85 -59 -156t-136 -71q-41 0 -89 22.5t-89 45 t-65 22.5q-23 0 -38 -24t-18 -54h-143z" />
<glyph unicode="&#xd2;" d="M207 358v719q0 157 113 267t276 110h35q161 0 275 -110t114 -267v-721q0 -157 -114 -266.5t-275 -109.5h-35q-162 0 -275.5 110.5t-113.5 267.5zM295 1864h233l260 -303h-182zM381 356q0 -90 64 -152.5t157 -62.5h23q93 0 156 61.5t63 151.5v721q0 90 -63 151.5 t-156 61.5h-23q-93 0 -157 -61.5t-64 -151.5v-719z" />
<glyph unicode="&#xd3;" d="M207 358v719q0 157 113 267t276 110h35q161 0 275 -110t114 -267v-721q0 -157 -114 -266.5t-275 -109.5h-35q-162 0 -275.5 110.5t-113.5 267.5zM381 356q0 -90 64 -152.5t157 -62.5h23q93 0 156 61.5t63 151.5v721q0 90 -63 151.5t-156 61.5h-23q-93 0 -157 -61.5 t-64 -151.5v-719zM453 1561l260 303h233l-311 -303h-182z" />
<glyph unicode="&#xd4;" d="M207 358v719q0 157 113 267t276 110h35q161 0 275 -110t114 -267v-721q0 -157 -114 -266.5t-275 -109.5h-35q-162 0 -275.5 110.5t-113.5 267.5zM315 1563l217 301h156l221 -301h-149l-152 153l-145 -153h-148zM381 356q0 -90 64 -152.5t157 -62.5h23q93 0 156 61.5 t63 151.5v721q0 90 -63 151.5t-156 61.5h-23q-93 0 -157 -61.5t-64 -151.5v-719z" />
<glyph unicode="&#xd5;" d="M207 358v719q0 157 113 267t276 110h35q161 0 275 -110t114 -267v-721q0 -157 -114 -266.5t-275 -109.5h-35q-162 0 -275.5 110.5t-113.5 267.5zM295 1589q0 85 60.5 156.5t138.5 71.5q32 0 69.5 -14t64.5 -31.5t57.5 -31.5t51.5 -14t34 25.5t13 52.5h148q0 -85 -59 -156 t-136 -71q-41 0 -89 22.5t-89 45t-65 22.5q-23 0 -38 -24t-18 -54h-143zM381 356q0 -90 64 -152.5t157 -62.5h23q93 0 156 61.5t63 151.5v721q0 90 -63 151.5t-156 61.5h-23q-93 0 -157 -61.5t-64 -151.5v-719z" />
<glyph unicode="&#xd6;" d="M207 358v719q0 157 113 267t276 110h35q161 0 275 -110t114 -267v-721q0 -157 -114 -266.5t-275 -109.5h-35q-162 0 -275.5 110.5t-113.5 267.5zM346 1661v182h182v-182h-182zM381 356q0 -90 64 -152.5t157 -62.5h23q93 0 156 61.5t63 151.5v721q0 90 -63 151.5 t-156 61.5h-23q-93 0 -157 -61.5t-64 -151.5v-719zM692 1661v182h182v-182h-182z" />
<glyph unicode="&#xd7;" d="M217 315l281 281l-281 285l115 114l282 -282l283 282l115 -114l-283 -285l283 -281l-115 -116l-283 284l-280 -282z" />
<glyph unicode="&#xd8;" d="M207 0l65 145q-65 92 -65 213v719q0 157 113 267t276 110h35q110 0 200 -55l17 35h172l-66 -148q66 -95 66 -209v-721q0 -157 -114 -266.5t-275 -109.5h-35q-112 0 -205 55l-14 -35h-170zM381 362l25 82l356 797q-60 47 -137 47h-23q-93 0 -157 -61.5t-64 -151.5v-713z M461 188q63 -47 141 -47h23q93 0 156 61.5t63 151.5v721l-19 -76z" />
<glyph unicode="&#xd9;" d="M207 358v1076h174v-1078q0 -90 64 -152.5t157 -62.5h23q93 0 156 61.5t63 151.5v1080h176v-1078q0 -157 -114 -266.5t-275 -109.5h-35q-162 0 -275.5 110.5t-113.5 267.5zM287 1864h233l260 -303h-182z" />
<glyph unicode="&#xda;" d="M207 358v1076h174v-1078q0 -90 64 -152.5t157 -62.5h23q93 0 156 61.5t63 151.5v1080h176v-1078q0 -157 -114 -266.5t-275 -109.5h-35q-162 0 -275.5 110.5t-113.5 267.5zM440 1561l260 303h234l-311 -303h-183z" />
<glyph unicode="&#xdb;" d="M207 358v1076h174v-1078q0 -90 64 -152.5t157 -62.5h23q93 0 156 61.5t63 151.5v1080h176v-1078q0 -157 -114 -266.5t-275 -109.5h-35q-162 0 -275.5 110.5t-113.5 267.5zM315 1563l217 301h156l221 -301h-149l-152 153l-145 -153h-148z" />
<glyph unicode="&#xdc;" d="M207 358v1076h174v-1078q0 -90 64 -152.5t157 -62.5h23q93 0 156 61.5t63 151.5v1080h176v-1078q0 -157 -114 -266.5t-275 -109.5h-35q-162 0 -275.5 110.5t-113.5 267.5zM348 1661v182h182v-182h-182zM694 1661v182h183v-182h-183z" />
<glyph unicode="&#xdd;" d="M152 1434h190l272 -539l271 539h192l-375 -756v-678h-178v678zM455 1561l260 303h233l-311 -303h-182z" />
<glyph unicode="&#xde;" d="M254 0v1434h172v-207h219q137 0 232.5 -93.5t95.5 -226.5v-297q0 -133 -95.5 -226t-232.5 -93h-219v-291h-172zM426 453h213q66 0 113 45t47 108v299q0 64 -47 110t-113 46h-213v-608z" />
<glyph unicode="&#xdf;" d="M188 0v1075q0 157 106.5 267t258.5 110h16q150 0 253.5 -103t103.5 -241v-164q-90 -5 -153.5 -43.5t-63.5 -89.5q0 -35 18 -69t47 -63t64.5 -59t70.5 -65t64 -73t47 -90t18 -111q0 -125 -89 -213t-218 -88q-125 0 -214 88.5t-89 212.5v30h164v-41q0 -59 41.5 -101 t101.5 -42q57 0 99.5 42.5t42.5 100.5q0 42 -18.5 79t-47.5 67t-64.5 59.5t-71 62.5t-64.5 69.5t-47.5 87.5t-18.5 110q0 96 63.5 164.5t157.5 89.5v14q0 99 -59 166.5t-146 67.5q-88 0 -150.5 -67.5t-62.5 -166.5v-1073h-160z" />
<glyph unicode="&#xe0;" d="M221 299q0 132 98.5 226.5t239.5 103.5l281 18v53q0 79 -55 137t-138 58h-20q-69 0 -128 -42t-69 -108h-162q13 127 120 213t245 86h20q162 0 257.5 -95t95.5 -236v-713h-160v84q-29 -38 -99.5 -71t-134.5 -33h-39q-139 0 -245.5 91.5t-106.5 227.5zM309 1454h234 l260 -303h-182zM385 301q0 -71 60.5 -122.5t136.5 -51.5h30q91 0 159.5 64t68.5 131v178l-269 -19q-80 -6 -133 -56.5t-53 -123.5z" />
<glyph unicode="&#xe1;" d="M221 299q0 132 98.5 226.5t239.5 103.5l281 18v53q0 79 -55 137t-138 58h-20q-69 0 -128 -42t-69 -108h-162q13 127 120 213t245 86h20q162 0 257.5 -95t95.5 -236v-713h-160v84q-29 -38 -99.5 -71t-134.5 -33h-39q-139 0 -245.5 91.5t-106.5 227.5zM385 301 q0 -71 60.5 -122.5t136.5 -51.5h30q91 0 159.5 64t68.5 131v178l-269 -19q-80 -6 -133 -56.5t-53 -123.5zM489 1151l261 303h233l-311 -303h-183z" />
<glyph unicode="&#xe2;" d="M221 299q0 132 98.5 226.5t239.5 103.5l281 18v53q0 79 -55 137t-138 58h-20q-69 0 -128 -42t-69 -108h-162q13 127 120 213t245 86h20q162 0 257.5 -95t95.5 -236v-713h-160v84q-29 -38 -99.5 -71t-134.5 -33h-39q-139 0 -245.5 91.5t-106.5 227.5zM352 1153l217 301 h156l221 -301h-149l-152 154l-145 -154h-148zM385 301q0 -71 60.5 -122.5t136.5 -51.5h30q91 0 159.5 64t68.5 131v178l-269 -19q-80 -6 -133 -56.5t-53 -123.5z" />
<glyph unicode="&#xe3;" d="M221 299q0 132 98.5 226.5t239.5 103.5l281 18v53q0 79 -55 137t-138 58h-20q-69 0 -128 -42t-69 -108h-162q13 127 120 213t245 86h20q162 0 257.5 -95t95.5 -236v-713h-160v84q-29 -38 -99.5 -71t-134.5 -33h-39q-139 0 -245.5 91.5t-106.5 227.5zM330 1180 q0 85 60 156t138 71q41 0 88.5 -22.5t89 -45t66.5 -22.5q21 0 34 25.5t13 52.5h148q0 -85 -59 -156.5t-136 -71.5q-41 0 -89 22.5t-89.5 45t-65.5 22.5q-23 0 -37.5 -23.5t-17.5 -53.5h-143zM385 301q0 -71 60.5 -122.5t136.5 -51.5h30q91 0 159.5 64t68.5 131v178l-269 -19 q-80 -6 -133 -56.5t-53 -123.5z" />
<glyph unicode="&#xe4;" d="M221 299q0 132 98.5 226.5t239.5 103.5l281 18v53q0 79 -55 137t-138 58h-20q-69 0 -128 -42t-69 -108h-162q13 127 120 213t245 86h20q162 0 257.5 -95t95.5 -236v-713h-160v84q-29 -38 -99.5 -71t-134.5 -33h-39q-139 0 -245.5 91.5t-106.5 227.5zM385 301 q0 -71 60.5 -122.5t136.5 -51.5h30q91 0 159.5 64t68.5 131v178l-269 -19q-80 -6 -133 -56.5t-53 -123.5zM385 1251v183h182v-183h-182zM731 1251v183h182v-183h-182z" />
<glyph unicode="&#xe5;" d="M221 299q0 132 98.5 226.5t239.5 103.5l281 18v53q0 79 -55 137t-138 58h-20q-69 0 -128 -42t-69 -108h-162q13 127 120 213t245 86h20q162 0 257.5 -95t95.5 -236v-713h-160v84q-29 -38 -99.5 -71t-134.5 -33h-39q-139 0 -245.5 91.5t-106.5 227.5zM385 301 q0 -71 60.5 -122.5t136.5 -51.5h30q91 0 159.5 64t68.5 131v178l-269 -19q-80 -6 -133 -56.5t-53 -123.5zM487 1290q0 69 46.5 116.5t113.5 47.5q68 0 116 -47.5t48 -116.5q0 -67 -48 -114.5t-116 -47.5q-67 0 -113.5 47t-46.5 115zM588 1292q0 -25 16.5 -42t42.5 -17t44 17 t18 42q0 26 -18 44t-44 18t-42.5 -17.5t-16.5 -44.5z" />
<glyph unicode="&#xe6;" d="M129 299q0 137 77 229.5t195 92.5h142v139q0 57 -36.5 96t-84.5 39q-60 0 -90.5 -41t-30.5 -111h-147q0 133 72.5 217t195.5 84q120 0 196 -110q40 56 86 83t119 27q116 0 195.5 -82t79.5 -200v-289h-406v-215q0 -55 35.5 -92t91.5 -37q55 0 92 37.5t37 93.5v53h150v-53 q0 -115 -83 -197.5t-192 -82.5q-74 0 -119 25.5t-86 82.5q-71 -108 -223 -108q-115 0 -190.5 91t-75.5 228zM281 301q0 -76 32 -124t93 -48q54 0 95.5 38t41.5 91v215h-137q-61 0 -93 -48t-32 -124zM692 621h256v141q0 56 -37.5 94.5t-89.5 38.5q-59 0 -94 -37.5t-35 -95.5 v-141z" />
<glyph unicode="&#xe7;" d="M213 358v312q0 157 113 267t276 110h35q160 0 264.5 -105.5t104.5 -259.5h-168q0 91 -56.5 153t-150.5 62h-23q-96 0 -162.5 -64t-66.5 -157v-328q0 -93 66.5 -158t162.5 -65h13q96 0 161.5 63t65.5 152h168q0 -130 -95 -233t-235 -123v-41q65 0 114.5 -46t49.5 -110 q0 -66 -48 -111t-114 -45h-141v107h123q18 0 30.5 15t12.5 34q0 18 -12.5 32.5t-30.5 14.5h-103v148q-151 12 -252.5 119.5t-101.5 256.5z" />
<glyph unicode="&#xe8;" d="M211 358v312q0 157 113 265.5t276 108.5h37q161 0 271 -108.5t110 -265.5v-209h-641v-113q0 -93 66.5 -158t162.5 -65h23q90 0 148.5 60.5t58.5 127.5h168q0 -59 -28 -118.5t-75.5 -107t-117.5 -77.5t-148 -30h-35q-162 0 -275.5 110.5t-113.5 267.5zM279 1454h233 l260 -303h-182zM377 610h479v66q0 93 -64.5 157t-160.5 64h-25q-96 0 -162.5 -64t-66.5 -157v-66z" />
<glyph unicode="&#xe9;" d="M211 358v312q0 157 113 265.5t276 108.5h37q161 0 271 -108.5t110 -265.5v-209h-641v-113q0 -93 66.5 -158t162.5 -65h23q90 0 148.5 60.5t58.5 127.5h168q0 -59 -28 -118.5t-75.5 -107t-117.5 -77.5t-148 -30h-35q-162 0 -275.5 110.5t-113.5 267.5zM377 610h479v66 q0 93 -64.5 157t-160.5 64h-25q-96 0 -162.5 -64t-66.5 -157v-66zM453 1151l260 303h233l-311 -303h-182z" />
<glyph unicode="&#xea;" d="M211 358v312q0 157 113 265.5t276 108.5h37q161 0 271 -108.5t110 -265.5v-209h-641v-113q0 -93 66.5 -158t162.5 -65h23q90 0 148.5 60.5t58.5 127.5h168q0 -59 -28 -118.5t-75.5 -107t-117.5 -77.5t-148 -30h-35q-162 0 -275.5 110.5t-113.5 267.5zM315 1153l217 301 h156l221 -301h-149l-152 154l-145 -154h-148zM377 610h479v66q0 93 -64.5 157t-160.5 64h-25q-96 0 -162.5 -64t-66.5 -157v-66z" />
<glyph unicode="&#xeb;" d="M211 358v312q0 157 113 265.5t276 108.5h37q161 0 271 -108.5t110 -265.5v-209h-641v-113q0 -93 66.5 -158t162.5 -65h23q90 0 148.5 60.5t58.5 127.5h168q0 -59 -28 -118.5t-75.5 -107t-117.5 -77.5t-148 -30h-35q-162 0 -275.5 110.5t-113.5 267.5zM348 1251v183h182 v-183h-182zM377 610h479v66q0 93 -64.5 157t-160.5 64h-25q-96 0 -162.5 -64t-66.5 -157v-66zM694 1251v183h183v-183h-183z" />
<glyph unicode="&#xec;" d="M182 0v147h344v730h-344v147h508v-877h320v-147h-828zM250 1454h233l260 -303h-182z" />
<glyph unicode="&#xed;" d="M182 0v147h344v730h-344v147h508v-877h318v-147h-826zM444 1151l261 303h233l-311 -303h-183z" />
<glyph unicode="&#xee;" d="M182 0v147h344v730h-344v147h508v-877h320v-147h-828zM305 1153l217 301h156l221 -301h-149l-152 154l-145 -154h-148z" />
<glyph unicode="&#xef;" d="M182 0v147h344v730h-344v147h508v-877h320v-147h-828zM332 1251v183h182v-183h-182zM678 1251v183h182v-183h-182z" />
<glyph unicode="&#xf0;" d="M170 311v324q0 140 106 236t277 96q137 0 209 -64v154l-2 26l-162 -53v141l115 39q-67 74 -162 74h-121v150h121q105 0 192 -44t140 -122l174 57v-143l-131 -43q4 -12 4 -82v-746q0 -141 -105 -236t-272 -95q-171 0 -277 95t-106 236zM338 324q0 -78 63 -136.5t152 -58.5 q86 0 147.5 58.5t61.5 136.5v299q0 78 -61.5 136t-149.5 58t-150.5 -58t-62.5 -136v-299z" />
<glyph unicode="&#xf1;" d="M209 0v1024h160v-84q43 43 112 73.5t152 30.5q167 0 276 -108t109 -266v-670h-166v676q0 93 -64 157t-163 64q-98 0 -175 -67t-77 -144v-686h-164zM309 1180q0 85 60.5 156t138.5 71q41 0 88.5 -22.5t89 -45t66.5 -22.5q21 0 34 25.5t13 52.5h147q0 -85 -59 -156.5 t-135 -71.5q-41 0 -89 22.5t-89.5 45t-65.5 22.5q-23 0 -37.5 -23.5t-17.5 -53.5h-144z" />
<glyph unicode="&#xf2;" d="M207 358v312q0 157 113 267t276 110h35q161 0 275 -110t114 -267v-314q0 -157 -114 -266.5t-275 -109.5h-35q-162 0 -275.5 110.5t-113.5 267.5zM301 1454h234l260 -303h-183zM373 348q0 -93 66.5 -158t162.5 -65h23q96 0 161.5 64t65.5 157v330q0 93 -65.5 157 t-161.5 64h-23q-96 0 -162.5 -64t-66.5 -157v-328z" />
<glyph unicode="&#xf3;" d="M207 358v312q0 157 113 267t276 110h35q161 0 275 -110t114 -267v-314q0 -157 -114 -266.5t-275 -109.5h-35q-162 0 -275.5 110.5t-113.5 267.5zM373 348q0 -93 66.5 -158t162.5 -65h23q96 0 161.5 64t65.5 157v330q0 93 -65.5 157t-161.5 64h-23q-96 0 -162.5 -64 t-66.5 -157v-328zM434 1151l260 303h234l-312 -303h-182z" />
<glyph unicode="&#xf4;" d="M207 358v312q0 157 113 267t276 110h35q161 0 275 -110t114 -267v-314q0 -157 -114 -266.5t-275 -109.5h-35q-162 0 -275.5 110.5t-113.5 267.5zM317 1153l218 301h155l221 -301h-149l-152 154l-145 -154h-148zM373 348q0 -93 66.5 -158t162.5 -65h23q96 0 161.5 64 t65.5 157v330q0 93 -65.5 157t-161.5 64h-23q-96 0 -162.5 -64t-66.5 -157v-328z" />
<glyph unicode="&#xf5;" d="M207 358v312q0 157 113 267t276 110h35q161 0 275 -110t114 -267v-314q0 -157 -114 -266.5t-275 -109.5h-35q-162 0 -275.5 110.5t-113.5 267.5zM295 1180q0 85 60.5 156t138.5 71q41 0 88.5 -22.5t88.5 -45t66 -22.5q21 0 34 25.5t13 52.5h148q0 -85 -59 -156.5 t-136 -71.5q-41 0 -89 22.5t-89 45t-65 22.5q-23 0 -38 -23.5t-18 -53.5h-143zM373 348q0 -93 66.5 -158t162.5 -65h23q96 0 161.5 64t65.5 157v330q0 93 -65.5 157t-161.5 64h-23q-96 0 -162.5 -64t-66.5 -157v-328z" />
<glyph unicode="&#xf6;" d="M207 358v312q0 157 113 267t276 110h35q161 0 275 -110t114 -267v-314q0 -157 -114 -266.5t-275 -109.5h-35q-162 0 -275.5 110.5t-113.5 267.5zM350 1251v183h182v-183h-182zM373 348q0 -93 66.5 -158t162.5 -65h23q96 0 161.5 64t65.5 157v330q0 93 -65.5 157 t-161.5 64h-23q-96 0 -162.5 -64t-66.5 -157v-328zM696 1251v183h183v-183h-183z" />
<glyph unicode="&#xf7;" d="M147 520v164h932v-164h-932zM512 176v203h207v-203h-207zM512 829v203h207v-203h-207z" />
<glyph unicode="&#xf8;" d="M233 311v402q0 140 106.5 235.5t276.5 95.5q105 0 183 -38l12 18h178l-65 -113q71 -88 71 -198v-402q0 -141 -106 -236t-273 -95q-111 0 -186 38l-14 -18h-176l63 111q-70 86 -70 200zM401 324l2 -31l322 573q-56 29 -111 29q-88 0 -150.5 -58.5t-62.5 -136.5v-376z M504 158q53 -29 112 -29q88 0 149.5 58.5t61.5 136.5v376l-4 29z" />
<glyph unicode="&#xf9;" d="M209 354v670h166v-676q0 -93 64 -157t163 -64q98 0 175 67t77 144v686h164v-1024h-160v84q-43 -43 -112 -73.5t-152 -30.5q-167 0 -276 108t-109 266zM303 1454h234l260 -303h-183z" />
<glyph unicode="&#xfa;" d="M209 354v670h166v-676q0 -93 64 -157t163 -64q98 0 175 67t77 144v686h164v-1024h-160v84q-43 -43 -112 -73.5t-152 -30.5q-167 0 -276 108t-109 266zM438 1151l260 303h234l-311 -303h-183z" />
<glyph unicode="&#xfb;" d="M209 354v670h166v-676q0 -93 64 -157t163 -64q98 0 175 67t77 144v686h164v-1024h-160v84q-43 -43 -112 -73.5t-152 -30.5q-167 0 -276 108t-109 266zM326 1153l217 301h155l222 -301h-150l-152 154l-145 -154h-147z" />
<glyph unicode="&#xfc;" d="M209 354v670h166v-676q0 -93 64 -157t163 -64q98 0 175 67t77 144v686h164v-1024h-160v84q-43 -43 -112 -73.5t-152 -30.5q-167 0 -276 108t-109 266zM358 1251v183h183v-183h-183zM705 1251v183h182v-183h-182z" />
<glyph unicode="&#xfd;" d="M158 1024h176l282 -782l279 782h176l-526 -1393h-166l145 402zM451 1151l260 303h233l-311 -303h-182z" />
<glyph unicode="&#xfe;" d="M209 -369v1803h160v-480q93 90 233 90h29q162 0 275.5 -109t113.5 -265v-314q0 -157 -114 -268t-275 -111h-25q-64 0 -127.5 26t-111.5 71v-443h-158zM373 348q0 -93 66.5 -157t162.5 -64h23q96 0 161.5 64t65.5 157v330q0 93 -65.5 157t-161.5 64h-23q-96 0 -162.5 -65 t-66.5 -158v-328z" />
<glyph unicode="&#xff;" d="M158 1024h176l282 -782l279 782h176l-526 -1393h-166l145 402zM350 1251v183h182v-183h-182zM696 1251v183h183v-183h-183z" />
<glyph unicode="&#x152;" d="M139 383v670q0 159 110.5 270t272.5 111h557v-164h-317v-432h268v-162h-268v-512h325v-164h-565q-162 0 -272.5 112t-110.5 271zM313 381q0 -93 61 -155t154 -62h58v1102h-58q-93 0 -154 -61t-61 -154v-670z" />
<glyph unicode="&#x153;" d="M131 258v508q0 117 78.5 197.5t196.5 80.5q71 0 116.5 -25.5t89.5 -82.5q45 57 90 82.5t119 25.5q117 0 197 -81t80 -197v-305h-410v-203q0 -54 37 -91.5t94 -37.5q53 0 91 37.5t38 91.5v55h150v-55q0 -115 -82 -196.5t-195 -81.5q-74 0 -119.5 24.5t-89.5 79.5 q-44 -55 -89.5 -79.5t-116.5 -24.5q-111 0 -193 81.5t-82 196.5zM276 258q0 -54 37.5 -91.5t92.5 -37.5q53 0 92 38t39 91v508q0 54 -40 91.5t-94 37.5q-51 0 -89 -37.5t-38 -91.5v-508zM688 610h260v156q0 53 -38.5 91t-90.5 38q-55 0 -93 -37.5t-38 -91.5v-156z" />
<glyph unicode="&#x178;" d="M152 1434h190l272 -539l271 539h192l-375 -756v-678h-178v678zM371 1661v182h182v-182h-182zM717 1661v182h182v-182h-182z" />
<glyph unicode="&#x2c6;" d="M317 1153l218 301h155l221 -301h-149l-152 154l-145 -154h-148z" />
<glyph unicode="&#x2dc;" d="M295 1180q0 85 60.5 156t138.5 71q41 0 88.5 -22.5t88.5 -45t66 -22.5q21 0 34 25.5t13 52.5h148q0 -85 -59 -156.5t-136 -71.5q-41 0 -89 22.5t-89 45t-65 22.5q-23 0 -38 -23.5t-18 -53.5h-143z" />
<glyph unicode="&#x2000;" horiz-adv-x="932" />
<glyph unicode="&#x2001;" horiz-adv-x="1864" />
<glyph unicode="&#x2002;" horiz-adv-x="932" />
<glyph unicode="&#x2003;" horiz-adv-x="1864" />
<glyph unicode="&#x2004;" horiz-adv-x="621" />
<glyph unicode="&#x2005;" horiz-adv-x="466" />
<glyph unicode="&#x2006;" horiz-adv-x="310" />
<glyph unicode="&#x2007;" horiz-adv-x="310" />
<glyph unicode="&#x2008;" horiz-adv-x="233" />
<glyph unicode="&#x2009;" horiz-adv-x="372" />
<glyph unicode="&#x200a;" horiz-adv-x="103" />
<glyph unicode="&#x2010;" d="M365 520v160h499v-160h-499z" />
<glyph unicode="&#x2011;" d="M365 520v160h499v-160h-499z" />
<glyph unicode="&#x2012;" d="M365 520v160h499v-160h-499z" />
<glyph unicode="&#x2013;" d="M225 520v160h779v-160h-779z" />
<glyph unicode="&#x2014;" d="M0 520v160h1229v-160h-1229z" />
<glyph unicode="&#x2018;" d="M483 995l148 439h114l-73 -439h-189z" />
<glyph unicode="&#x2019;" d="M483 995l74 439h188l-147 -439h-115z" />
<glyph unicode="&#x201a;" d="M483 -238l74 439h188l-147 -439h-115z" />
<glyph unicode="&#x201c;" d="M328 997l147 439h115l-74 -439h-188zM639 997l147 439h115l-74 -439h-188z" />
<glyph unicode="&#x201d;" d="M328 997l73 439h189l-148 -439h-114zM639 997l74 439h188l-147 -439h-115z" />
<glyph unicode="&#x201e;" d="M328 -238l73 439h189l-148 -439h-114zM639 -238l74 439h188l-147 -439h-115z" />
<glyph unicode="&#x2022;" d="M305 735q0 128 90 218.5t219 90.5q128 0 219 -91t91 -218q0 -129 -91 -219t-219 -90q-129 0 -219 90t-90 219z" />
<glyph unicode="&#x2026;" d="M106 0v201h201v-201h-201zM514 0v201h201v-201h-201zM922 0v201h200v-201h-200z" />
<glyph unicode="&#x202f;" horiz-adv-x="372" />
<glyph unicode="&#x2039;" d="M393 596l250 326h191l-252 -326l254 -324h-193z" />
<glyph unicode="&#x203a;" d="M393 922h193l250 -326l-250 -324h-191l252 324z" />
<glyph unicode="&#x205f;" horiz-adv-x="466" />
<glyph unicode="&#x20ac;" d="M176 492v161h96v117h-96v162h96v145q0 157 111.5 267t271.5 110h13q161 0 272 -108.5t111 -270.5h-172q0 89 -63 152t-154 63t-154.5 -63t-63.5 -152v-143h457v-162h-457v-117h394v-161h-394v-136q0 -90 64 -153.5t154 -63.5q91 0 154 63t63 152v25h172v-23 q0 -157 -111.5 -266.5t-271.5 -109.5h-13q-160 0 -271.5 110.5t-111.5 267.5v134h-96z" />
<glyph unicode="&#x2122;" d="M141 1331v105h400v-105h-144v-583h-114v583h-142zM596 748v688h113l133 -281l131 281h114v-688h-114v411l10 68l-96 -197h-90l-101 197l13 -70v-409h-113z" />
<glyph unicode="&#xfb01;" d="M113 877v147h159v145q0 118 83.5 200.5t203.5 82.5q92 0 184 -63l-94 -123q-49 34 -90 34q-54 0 -90.5 -35.5t-36.5 -88.5v-152h537v-874h147v-150h-450v150h141v727h-375v-877h-160v877h-159zM795 1249v185h188v-185h-188z" />
<glyph unicode="&#xfb02;" d="M111 877v147h159v127q0 118 83.5 200.5t203.5 82.5h412v-1284h149v-150h-452v150h141v1132h-250q-53 0 -90 -37t-37 -88v-133h260v-147h-260v-877h-160v877h-159z" />
</font>
</defs>
</svg>
